/* XPM */
static char *Ym9vazEu[] = {
/* columns rows colors chars-per-pixel */
"64 64 252 2 ",
"   c #3D0C00",
".  c #380400",
"X  c #3F1000",
"o  c #4A0B00",
"O  c #580C02",
"+  c #441500",
"@  c #5A1504",
"#  c #661302",
"$  c #651B06",
"%  c #721C00",
"&  c #7A1701",
"*  c #6E0F08",
"=  c #592201",
"-  c #6A2404",
";  c #742400",
":  c #7C2600",
">  c #782A06",
",  c #78330A",
"<  c #772E1C",
"1  c #6B3518",
"2  c #6A3523",
"3  c #7B3D24",
"4  c #7D411D",
"5  c #74462C",
"6  c #891500",
"7  c #8B1C00",
"8  c #831802",
"9  c #931C00",
"0  c #9C1D00",
"q  c #98160A",
"w  c #8E140C",
"e  c #A41E00",
"r  c #AA1E00",
"t  c #A71500",
"y  c #A91F12",
"u  c #842402",
"i  c #8D2201",
"p  c #852C09",
"a  c #892A06",
"s  c #942300",
"d  c #9B2201",
"f  c #942905",
"g  c #9D2A02",
"h  c #922C0B",
"j  c #9B2C0C",
"k  c #982609",
"l  c #883309",
"z  c #983308",
"x  c #972B13",
"c  c #8A3C1C",
"v  c #9C3413",
"b  c #973816",
"n  c #842F12",
"m  c #A42300",
"M  c #AB2401",
"N  c #A32902",
"B  c #AD2B01",
"V  c #A52B0B",
"C  c #B22302",
"Z  c #B22B04",
"A  c #B52A0C",
"S  c #A63706",
"D  c #B43906",
"F  c #A42415",
"G  c #B82C13",
"H  c #A73917",
"J  c #BA351A",
"K  c #B43716",
"L  c #8A3B25",
"P  c #993825",
"I  c #AB3925",
"U  c #A82E21",
"Y  c #C1360B",
"T  c #CC3C2E",
"R  c #894215",
"E  c #93421C",
"W  c #814E0D",
"Q  c #B74406",
"!  c #AC4519",
"~  c #AF4E09",
"^  c #804F2F",
"/  c #964729",
"(  c #88522B",
")  c #9A5527",
"_  c #8C4436",
"`  c #994432",
"'  c #985539",
"]  c #865B3B",
"[  c #A84A27",
"{  c #B54423",
"}  c #A7562B",
"|  c #A64935",
" . c #A85737",
".. c #B2593E",
"X. c #B45632",
"o. c #9E6434",
"O. c #A96839",
"+. c #BA743B",
"@. c #C04013",
"#. c #C75239",
"$. c #DD7C38",
"%. c #E17A38",
"&. c #94564B",
"*. c #B55B44",
"=. c #AE5C44",
"-. c #996B44",
";. c #976D55",
":. c #AA6945",
">. c #B46A44",
",. c #B57648",
"<. c #A97654",
"1. c #B27056",
"2. c #A97367",
"3. c #B87B78",
"4. c #DA5D47",
"5. c #C56341",
"6. c #D27550",
"7. c #B9833B",
"8. c #B78551",
"9. c #B98667",
"0. c #B99267",
"q. c #BA9874",
"w. c #BE8F7D",
"e. c #CA865A",
"r. c #D48955",
"t. c #D9935E",
"y. c #C88942",
"u. c #E58A4F",
"i. c #EC9252",
"p. c #FBA95D",
"a. c #C78967",
"s. c #D88D69",
"d. c #C89869",
"f. c #D69A66",
"g. c #C48472",
"h. c #C89977",
"j. c #D39474",
"k. c #D79B74",
"l. c #D18E73",
"z. c #F39F66",
"x. c #CAA56D",
"c. c #D6A469",
"v. c #C9A478",
"b. c #D7AA78",
"n. c #D5B57C",
"m. c #DAB67C",
"M. c #D7B87D",
"N. c #DBBC7E",
"B. c #DBB276",
"V. c #DFB76F",
"C. c #E4AB6A",
"Z. c #E4A779",
"A. c #E8B67A",
"S. c #FFB979",
"D. c #F1AC6C",
"F. c #DEC17F",
"G. c #E7C07B",
"H. c #CB9A8A",
"J. c #D7AA86",
"K. c #DCB683",
"L. c #D6BA83",
"P. c #DCBD84",
"I. c #DDBE89",
"U. c #D5B687",
"Y. c #DAA799",
"T. c #D8B796",
"R. c #C8B387",
"E. c #E7A782",
"W. c #FFA484",
"Q. c #E3B483",
"!. c #EBB383",
"~. c #E3BD85",
"^. c #EBBC83",
"/. c #E3BE8B",
"(. c #EABC8B",
"). c #E7B38A",
"_. c #F3BD85",
"`. c #F4B688",
"'. c #E5BC93",
"]. c #EABD94",
"[. c #EBBC9C",
"{. c #E3BA9A",
"}. c #FAB793",
"|. c #FFAA90",
" X c #D7B7A6",
".X c #CCBBA7",
"XX c #E6B9A6",
"oX c #EAB7AB",
"OX c #DEC185",
"+X c #DEC28A",
"@X c #D8C78A",
"#X c #DDC492",
"$X c #DECA92",
"%X c #D9C69B",
"&X c #E1C286",
"*X c #E3C38C",
"=X c #EAC48D",
"-X c #E6C88D",
";X c #E9C98D",
":X c #E9C384",
">X c #F4C48C",
",X c #F4CD8C",
"<X c #E2C692",
"1X c #E6C691",
"2X c #E5C691",
"3X c #E9C591",
"4X c #EBC492",
"5X c #E6C992",
"6X c #E6C992",
"7X c #E9C992",
"8X c #EACA93",
"9X c #E3CA99",
"0X c #EBCC99",
"qX c #EAC49A",
"wX c #F3C292",
"eX c #F2CA94",
"rX c #F6C697",
"tX c #EAD198",
"yX c #F1D29B",
"uX c #D9C9AB",
"iX c #DDD2AD",
"pX c #D7C9B4",
"aX c #D6D0B3",
"sX c #E4C5A8",
"dX c #F6CAA7",
"fX c #F4D3A3",
"gX c #F9DAAC",
"hX c #E8CAB9",
"jX c #F1CEBC",
"kX c #E8D6B8",
"lX c #F7D8BB",
"zX c #EBD5A4",
"xX c #FDE3B4",
"cX c #DFD9CA",
"vX c #DECCC0",
"bX c #E9CDCA",
"nX c #EDDBCC",
"mX c #E8D7C8",
"MX c #FBDCCE",
"NX c #F4D8C9",
"BX c #ECD8D3",
"VX c #F7DDD4",
"CX c #F2C6C7",
"ZX c #EBE5C8",
"AX c #FAE6CA",
"SX c #ECE4D4",
"DX c #E7E8D4",
"FX c #FCE2D4",
"GX c #FFEBDC",
"HX c #F7E7D9",
"JX c #FDF2E8",
"KX c #F6E0E3",
/* pixels */
"&XN.m.N.P.P.P.P.~.I.*X*X*X*X*X*X4X4XK.K.I.I.6X0X$X6X+XtXI.2XI.6X$X+X+X$X+X+X6X6X<X1X4XqXqX4X'.<X<X'.*XP.+X*X1X7X~.*X-X&XOXL.OX&X",
"&XF.N.F.&X&X~.&XP.P.P././.P.P.&X/.2XI./.6X+X6X6X<X<X+X6X*X1XI./.#X+XI.+X+X+X*X+X*X*X<X5X5X2X'.2X5X2X*X*X*X+X*X+X&X*X-X&XOXOX&X*X",
"&X:X&X&X:X*X*X&X/.*X*X*X=X*X=X-XP.*X+X*X8X*X2X2XP.*X*X6XI.I.Q.*X*X/.2X/.*X3X*XP.P.+X<X6X2X9XqX<X*XI.I.*X*X*X*X*X*X&X&X&X+X&X+X&X",
";X;X;X:X*X-X-X*XI././.+X&X*X;X*X*X6X2X2X1X2X+X2XK.*X3X5X/.K.P././.4X4X*X/.1X6XI.P.+X<X<X9X9X9X#X+X*X+X*X*X*X*X&X*X*X*X*X&X&XOX&X",
"&X;X;X;X*X-X7X1X/./.*X*X&X*X*X*X*X6X9X2X*X2X/.4X2X/./.=X5X4X/./.].4X4X*XP.*X2X+XL.+X9X<X<X9X9X'.5X1X*X*X*X*X&X&X&X*X-X8X;X&XOX&X",
"F.F.-X-X&X*X1X3X7X8X8X*X&X*X;X;X@X+X6X*X2X6X/./.3X/.4X/.4X/.2X*X4X4X4X*XI./.$X+X+X#X$X<X<X2X#X/.1X*X+X*XI.*X*X*XOX+X&X7X-X+XOXOX",
"N.N.OX&X*X&X*X*X*X3X*X+XP.*X&XOXL.@X+XI.*X8XI./././.5X/.1XL.*X8X8X4X3X3X*X$X-X+X+X+X2X2X]./.'./.*XI.I.P.*X&X6X7XP.K.P.*X*XOXOXOX",
"OXF.OX+X;X&X*X+X+X*X*XP.L.&X&X+X+X+X2XP.*X0X*X*X2XI.2XI.1XI.<X8XeX]./.-X*X6X+XOX*X*X/.4X4X/./.=X*X/.*XI.*X*X*X*X&XL.P.&X*X&X+X&X",
"&X+X*X*X6X8X8X1X1X*XI.P.P.P.OX*X8X6X*XP.P.*X*X+X+X&X+X+X$X$X-X*X4X`.(.wX7X~.:X;X4X7X=X/.~.=X3X3X*X7X*XP.P.P.P.*X*X&X-X1X*X*X2X*X",
"&X*X&X*X8X8X3X2X8X1X*X+XP.P.P.&XeX8X6X*X+X*X1X+X8XtXtX-XOXOX+XyXk.) $ , O.f.Q.(.:X^.~./.*X*X/.I.OX*X*X&X&X6X&X+X*X*X*X&X*X*X+X*X",
"*X*X*X6X8X0X8X5X8X1X*X*X*XP.P.&X*X4X1X*X2X*X6X6X8XP.7X0XP.*X6Xd.> u p p > l  .t._.>X>X(.P.OX*X&X*X&XOXP.*X*X;X&X-X*X*X*XI.*X*X+X",
"*X*X*X*X1X8X8X<X2X*X+X*XOXOX&X&XP.P.P.P.I.+X+X-X*X1X4X/.(.(.8.; a v v z v z l l } e.S.^.A.~.&XN.-X&X*X*XOX*X-X8X6X-X*X*X*X1X*X*X",
"*X-X2X<X1X2X+X+X*X+XOX+X+X+X*X-X*X/.K.L.L.@XL.P.*X3X(.wX`.>.; % h k k 9 d j j z z l ) r.A._._.:X;XOXOX8X8X&X&X8X*X*X*X1X*X*X*X*X",
"P.+X2X6X8X1X2X+X6X+XOX+X&X&X&X&X1X*XP.I.+X+X+XP.P.Q.}.!.>.: : b 7 9 9 d 0 0 d N g H z a [ t.`.A.,X*XOX&X;X*X&X6X*X*X2X*X*X+XI.P.",
"L.OX*X<X<X8X6X6X*X+XOX+X-X-X&XOX1X*X+X+X-X$X1X3X~.>XA. .* u v 6 f 7 9 s d 0 0 e N m S H g u ! r.B.-XN.n.&X&XK.*X*X*X*X*XI.P.P.I.",
"6X<X-X*X*X2X<X6XI.P.L.*X-X-X&XL.&X&X*X6X-X+X*X=XwXZ.) * j x 6 9 7 9 s s 9 m r e m e e m K ! S u +.A.A.A.&X&XM.OX+X*X2X*XI.P.*X1X",
"8X-XOXP.*X8X7X1X*X*X*XI.*X&X*X*X:X*X3X7X*X~.(.rXZ.c % h f 7 9 0 0 0 s i s s d e e r m m m N Z D z $.p.D.S.A.F.$X@X-X/././.1X*X7X",
"*X&X&X&X&X6X=X*X/.~.~./.1X1X*X*X*X*X~.*XrXwXZ.k.c : u h 7 9 0 0 0 0 s s s f d 0 r m m m m N B Z @.S @.i.G.G.F.@X$X6X4X=X4X*X*X&X",
"&X-X-X*X*XP.P.K.*X=X~.&X7X;X*X&X-XtX;X~.Q.wXs., % > h 7 6 s m 9 0 0 s s s d m r r m m m m N M M D S z S.c.,XOXOX*X6X6X*X4X*X*X&X",
"&X-X-X&X&X&XOXP.4X-X*X~.*X*X*X&X-XtX:X(.!.,.p ; h h 9 7 9 f s 9 s s d d d m r r r m M m M M M M D ~ p.D.A.:XOX7X&X<X+X*X4X*X*X7X",
"*X*X&X&X*X-X;X;X;X;X~.N.~.:X~.*XOXM.:XA.,.> ; h 7 7 9 s s 7 s j s d 0 m r r m m r M M M M M Z D g X.f.:X,X:X:X;X&X+X+X+X*X/.*X8X",
"-X*XP.P.*X-X;X-XN.&X~.~.*X&XP.:XA.^.Z.O.; u v 7 6 9 9 9 d 9 i s d d e e r m m m m M M C m M Z K f +.c.M.&X;XA.;X*X$X@X+X*X/./.5X",
"*X*X*XP.&X*X=X~.N.&X:X~.*X&X~.^.^.A.o.; l a & s 0 0 0 9 s d s 9 d m r r m m g N N M C C M Z K ! [ Z.A.P.OXn.8X=XOX+XOX+X'.I.I.<X",
"K.~.OX:X*X;X&XP.&X;X=X&X&X(.(.].S.} : a i 7 9 9 9 9 d d 0 s k d 0 0 r r m m m g N m C C Z K ! ! k.!.5X*XOX+XOX*XM.N.P.*X1XI.I.2X",
"3X=X*XP.OX-X&X&X-XF.*X8X4X~.4Xb.b u i h i 7 6 d 9 9 9 d d m d d e m M M m m m M M r C G J H } f.[.gX]./.&X+X$X@X*XF.m.*X*X*X2X6X",
"*X*X*X*XOX&X&X&XF.&X7X=X4X4Xd.) p x v 7 8 s f s s 0 d 0 0 d e m d m m r m M N M t Y A J { | a./.xXfX(.].8X6X$X@X-X+X~.*X*X*XI.+X",
"P.=X-X=X&X&X&X&XP.P.*X=X0Xb.5 - & 8 j j i 7 7 s s s d d 0 e e m g d m m M C M C C A T H X.j.T.gXgXfXQ.).].7X@X@X@X&X*X(.*X<X<X#X",
"K.*X7X-X-X&X*X&X*XK.K.4X9X8.= 4 n & 8 b b h 7 s s 9 0 m e m e m g g g m M C C C G J U *.g.{.lXkXzXfXe.dXb.*X$XL.+X&X/./.6X7X6X*X",
"K.*X;X-X*X&X+XOX~.*X/.].).-.+ :.:.L > ; p b v z d s 0 d m m r m m N m M M C C A J [  .j.XXhXNXAXgX8.(.K.(./.*X*X+X2X6X*X*X-X*XK.",
"K.~.*X*X&X&X+XOXM.*X/.'.'.5   9.d.<.' , ; p h j V N m e e r m m m N N M C C A J H  .j.T.jXGXNXNX-.c.A./.(.=X~.1XL.@X+X+X*X6X;X&X",
"~.~.P.&X*X;X-X&X*XI.U.].{.1 . H.R.q.q.<.( n u k V V A N r r m m m M C C Z A Y {  .k.%XiXZXFXCX2., A.~.m.;XwXQ.=XU.L.@X@X-X0X0XeX",
"~.P.P.P.*X8X;X*X1X5X'.'.'.1 . J.sXR.R.h.a.:.c a k j F G N m m M C C C C Z J { | h.T.kXZXAXNX3.$ ,._.:X7X/.=XrX'.+X$X@X$X<X*X:X*X",
"-XA.P.*X8X*X*X3X0X5X'.{.T.2   Y.bX.XuXT.d.a.0.-.c x x F Z Z M m C Y t Y @.~ } j.XXnXnXnXFX9.; >.!.~.*X3X2X2X4X0X0X#X#X9X2X<X6X0X",
"&X&X&X*X=X3X0X8X4XI.2XdXsX2 X hXVXaXaXuXl.c <.0.1.| L x V S D D B Y Y Z K } j.sXbXBXHXFXw.@ ..Z.=X-X3X*X2XI.I.T.6X2X<X<XI.U.+X#X",
"F.;X-X~.P.*X*X1X8X8X2X4X'.5 . XXVXAXkXXXI w # 0.J.h.<.( b E g 7 Q Q g 6.6.s.XXjXMXVXVXH.$ ' E.=X-X*X*X*X/.*X+XI.2XI.#X2XU.+X2X#X",
"&X&X7X*X/.*X*X*X*XyX'.I.'.]   T.VXnXFXoXw T | j.T.T.R.8.,.u.u.$.S ~ u.C.Z.].jXMXNXMXY.$ ` E.4XyX*XP.P.I.2X<X<X+X2XI.2X#X+X+X<X2X",
"A.&X-X-X3X8X8X1X/.*X/.4X[.-.X ;.jXFXkXXX6 y =.oXuXuXsXT.d.e.r.u.p.p.C.d.T.kXGXbXGXH.* | j.K.<X#X*XP.P.&X*X6X1X*X6X2X*X*X+X-X-XOX",
"*X&X&X&X2X5X1X1XeXP.*X*X/.v.5 + 5 XXAXdXw w 1.oXhXpXsXsXT.n.d.8.y.7.x.%XkXHXmXGXY.* / s.`./.U.U.OXOX&X&X*X6X1X*X6X*X2X6X<X6X<X+X",
"&X-X-XI.P.*X*XP.7X&X*XQ.4XdXv.^ @ . q.XX..* 3.lXNXmXpXpXaXiX%Xv.d.x.9XiXDXcXJXXX@ &.e.`.~.I.9XfXL.F.&X-X-X*X7X7X+X*X6X1X*X-X6X-X",
"M.*X6XP.I.<X*XN.;X7X/.M.2XQ.].].:.3   / U * a.lXAXZXmXmXaXaXaXsXT.9XpXDXDXSXoX2 P 6.`.,X*X1X0X2XP.OX*X-X*X*X&X1XP.*X6X&XL.N.OXF.",
"P.&XI.3X*X8XI.K.-X-X&X:X*X/.4XqXqXh.=.w U 8 3.MXVXHXSXcXcXbXpXpX.XbXFXSXSXjX_ L 1.).wXM.L.+X2XfX&X-X-X*XOXP.I.*XP.L.L.*X*XOXN.N.",
"P.OXI.*X<X0X*XP.OX&X&XG./.7XwX(.[.}.6.q q | < H.CXBXKXJXBXVXnXbXbXBXHXbXbX&.L =.E.yX8X+X$X+XP.*XP.OX&XP.OX*X*X1X1XI.P.&X&X&X&X&X",
"OXL.&X*X9X8X6X+X8X;X=X;X-X/.(.rXW.4.G y x  .< o &.Y.BXKXDXcXDXBXKXBXBXVX1.# :.`.eX0X<X@X$X#X/.=X*X*X&XP.I.*X1X1X*XI.&X*X*X:XOXF.",
"OXP.*X+X6X#X2XP.&XN.M.&XeX;X4X`.#.G T y *.|.l.' < o 2..XHXHXnXnXBXBXMX2.> ..k.>X*X+X+X$X@XI.1X0X7X;X+XP.*X8X3X*X*X/./.*X;X&XF.P.",
"&X*X8X+X<XI.<X2X6X-X&XN./.*Xx.O.5.|.J #.}.].T.T.1.L O @ 9.qXAXZXZXFXg.#  .e.(.wX5X2X<X$XI.U.*X*X*X*X*XP.*X1X5X2X1X/.P.~.*X&X:X;X",
"-X1X8X*X2X2X<X<XM.K.P.&X4X2Xn.d.}.5.I W.|.K.9X#XqXE.*.P O - 0.9XxXb.@ y.f.>X>X=X0X$X%X#X+X#X+XP.6X*X*X*X2X2X*X/.1X*X/.*X=X&X&X=X",
"-X-X&X*XT.<X2X2X*XL.:XtXeX~.K.4X`.O.Z.!.).eX+X$X$X*XrXe.o.,.l o.8.4 C.V.>XB.>X*X#X#X#X'.<X#X*X-X8X*X1X6X2XP.I./.*XI./.-X;X:X&X&X",
"tX8X+X*X*XqX<X2X/.L.L.&X8X3X/.~./.x././.Q.=X0X<X+X+Xb.:X~.c.D.t.+.C.G.G.>X:XM.*X+X#X9X2X2XP.I.8X*X+X+X1X+XU.P.1X1X/.P.:X~.&X&X&X",
"P.I.I.*X1X3X8X8X<X*XP.P.*X&X&X*Xm.F.OXN.~.*X*X&X*X*X&X*X*X~.B.b.B.B.n.&X;X*X*XI.+X2XI.P.*X7X*X-X*X&XP.I.0XyX4X<X0X/.P.P.*X-XG.F.",
"P.P.I.+X1X<X6X8X2X*XI.P.P.&XOXOXF.F.F.OXOXOXP.P.6X-X*X*X&X*XOXP.*X+XK.*X*X*X*XP.*X*X*XI.*X*X+XP.OX&XP.P.8X5X'.+XI.+XI.P.L.N.F.OX",
"I.+X/.*X1X6X8X6X*X*X*X*X&XOXOXN.&XF.OX-X-X&X&X*X7X6X7X6X*X&X*X7XtX0X*X*X3X*X*X*X1X6X*XP.*X+XI.*XOX&XOX+X5X5XI.I./.*X2X*XF.F.F.&X",
"*X*X*X*X1X1X1X1X2X2X1X1X*X&X&XOX&XF.OX-X-X&X-X6X7X*X*X7X*XP.*X7X0X8XI.*X*X*X7X6X1X8X1X*X*X*X*X*X*X&XOX*X<X2X2X+X<X2X*X*X&X-X&XF.",
"7X1X*X1X*X*X*XI.2X*X*X1X;X-X&XOXOX&X*X&X*X*X2X/.*XI.+X1X1X+XI.*X&X*XK.+X*X*X7X6XI.*X7X8X6X*XP.P.*X&XOX*X*X*X2X'.2X*X*X*X*X&XOXF.",
"0X7X1X*X2X*X*XI.+X*X*X*X-X*X&XP.OX&X*X&X+X1X1X*XI.I.I.2X1X*XI.*X*X*XOX*X1X*X8X1X*X1X*X+X*XP.P.*X-XOX*X*XI.I.I.2X+X*X7X-X&XOXF.&X",
"7X-X*X*X+X2X*X2X*X*X+X*X*X*X+XOX&X*X*X*X*X8X5X0X+X/.2X*X*X*X*X*X1X6X&X6X1X*X7X1X7X1XP.P.P.I.I.7X*XL.&X-XI.P.*X+X*X1X6X*XOXF.&X&X",
"&XOXP.L.P.I.I.2X*X2X*X*XOXOX&X&X0X-X1X1X1X2X2XqX1X0X6X2XP.I.*X1X7X7X+X*X*X+X*X*XI.+X*X2X8X*X*X7X*XM.&X*X*XP.2X*X1X+XP.P.*X+XF.F.",
"&X;X*XP.L.P.I.I.U.P.2X*XI.P.*X*XyX1XP.*X'.L.I.<XP.0X7X6X*XP.6X*X6X*XI.1X*XP./.+X*X*X*X*X1X8X7X-X&X&X+X*X*X+XP.K.*X1XI.L.P.*XOX*X",
"&X*X*XP.P.+X+XI.*X*X1X1X*XI.*X-XP.+X+X8X0X2X2X2XP.<X8X8X*XI.6X*X1X*XP.*X6X+X*X*X*X*X*X*X*X*X+XP.*XOX*X*XOXOXI.*X8X8X*XP.&X*X*X&X",
"N.OXP.&X*X5X1X*X<X2X*XI.*XP.*X*XI.2X*X*XI.P.2XI.I.2X8X0X6XI.*X;X*X1XI.*X*X*X*XP.+X*X*X1X*XI.I.P.*XOXOX&X+XK.OX-X6X1X*X*XI.1X8X*X",
"OXOX+X*X3X8X1X2X5X2XI.*X+XI.I.*X2X8X2XI.U.P.'.#XI.'.*X7X7XP.P.*XP.*X*X+XI.P.*XI.I.I.*X*X2X+X*X*X&XL.P.*X&XOXOX7X*XI.*X*XP.*X6X*X",
"-X-X-X*X*X*X*XI.8X6X6X6X*X*X*X*XP.8X6X1X*X*X0X1X+XI.2X1X*XOXP.&XL.2X*X+XP.P.*X*X*X*X2X2X*X*X*X-X;X&X&X-X-X&X&X-X*X*X*X*XP.*X6XI.",
"&X-X-X-X*X*X*X2X6X8X0X8X6X*X*X*XI.1X*X1X1X2X0X*X2X*X1X*X&XOXL.OXM.*X*X/.I.P.2X*X1X*X*X*X*X+X*X-X0X-X&X&X&XOX&X+X*X*X*XI.I.*X1X+X",
"F.&X;X-X*XI.2X<X1X1X1X6X*XI.I.*X1X1XP.P.+X*X8X2X7X*X8X*X&X-XP.&XP.*XP.+X*X*X1X*X+XP.P.*X*X*X&X7X;X-X&XOXN.OXOX&XP.*X+XP.I.1X*X1X",
"F.;XtX;X+XK.P.2X*X*X*X*X2X*X/.+X1X*XP.I.2X2X8X*X1X*X7X+XOX;XOXP.*X*XP.*X6X6X7X+X*XP.I.*X1X+X+X&X-X-X+XM.n.OX&X-X;X0X1XI.*X*X+X*X"
};
