/* XPM */
static char *Ym9vazIu[] = {
/* columns rows colors chars-per-pixel */
"64 64 246 2 ",
"   c #3C0500",
".  c #460B00",
"X  c #570B02",
"o  c #4A1301",
"O  c #591602",
"+  c #7A0B05",
"@  c #681805",
"#  c #7C1C00",
"$  c #751A05",
"%  c #781E15",
"&  c #5A260C",
"*  c #6E2704",
"=  c #7D2100",
"-  c #772703",
";  c #653619",
":  c #742E13",
">  c #6D3A20",
",  c #783B28",
"<  c #7A4625",
"1  c #754918",
"2  c #795B43",
"3  c #8C1400",
"4  c #841E00",
"5  c #8D1B00",
"6  c #871908",
"7  c #931500",
"8  c #941C00",
"9  c #9C1E00",
"0  c #831A11",
"q  c #860F00",
"w  c #A21E01",
"e  c #AA1E00",
"r  c #822300",
"t  c #8B2301",
"y  c #8D2B0A",
"u  c #852C04",
"i  c #942301",
"p  c #9B2302",
"a  c #9D2903",
"s  c #942C0C",
"d  c #9C2B0B",
"f  c #962708",
"g  c #883309",
"h  c #9B320D",
"j  c #993603",
"k  c #892819",
"l  c #873817",
"z  c #983A18",
"x  c #982C10",
"c  c #A32201",
"v  c #AA2301",
"b  c #A32803",
"n  c #AC2B02",
"m  c #A6280A",
"M  c #B22501",
"N  c #B82E09",
"B  c #B52F02",
"V  c #A93407",
"C  c #B5350B",
"Z  c #BC340C",
"A  c #B93808",
"S  c #A32716",
"D  c #AB3413",
"F  c #A73715",
"G  c #B63814",
"H  c #B62A1D",
"J  c #8A3B27",
"K  c #943D2A",
"L  c #AB312C",
"P  c #AA382E",
"I  c #C33916",
"U  c #834B1B",
"Y  c #AD470A",
"T  c #B8410C",
"R  c #B8431A",
"E  c #A1480E",
"W  c #964C27",
"Q  c #955025",
"!  c #8C5131",
"~  c #A64D28",
"^  c #B65526",
"/  c #AA4B32",
"(  c #A75538",
")  c #B85A34",
"_  c #AC4E28",
"`  c #AB663A",
"'  c #C84923",
"]  c #C46A37",
"[  c #CE7E39",
"{  c #924E44",
"}  c #A85745",
"|  c #98674E",
" . c #A7694A",
".. c #AA774A",
"X. c #B47044",
"o. c #B77A48",
"O. c #B36C57",
"+. c #A57554",
"@. c #B57959",
"#. c #B86849",
"$. c #BA7B67",
"%. c #A67368",
"&. c #D47659",
"*. c #CA7654",
"=. c #E27443",
"-. c #C67A6F",
";. c #BA8258",
":. c #B68350",
">. c #B78767",
",. c #BD956E",
"<. c #BF8B76",
"1. c #BB9A73",
"2. c #AB9065",
"3. c #C58758",
"4. c #D48657",
"5. c #D89459",
"6. c #CA8D4D",
"7. c #E88A58",
"8. c #C78B67",
"9. c #D58867",
"0. c #C79869",
"q. c #D7946A",
"w. c #C89677",
"e. c #D69575",
"r. c #E99D6A",
"t. c #F09C77",
"y. c #CAA56C",
"u. c #DBA46F",
"i. c #D8A476",
"p. c #D4B47D",
"a. c #DBB67C",
"s. c #D6B87C",
"d. c #DBBC7E",
"f. c #DFB372",
"g. c #CCAE7C",
"h. c #E4A468",
"j. c #F3A769",
"k. c #E6A77A",
"l. c #F2A677",
"z. c #E2BC7E",
"x. c #E7B57A",
"c. c #F9B477",
"v. c #DEC27E",
"b. c #E1C47E",
"n. c #F9C27F",
"m. c #BFB09B",
"M. c #D39C82",
"N. c #CC9589",
"B. c #DAAA86",
"V. c #CEBB87",
"C. c #D5B682",
"Z. c #D6BB84",
"A. c #DCBD84",
"S. c #DDBE89",
"D. c #D9B889",
"F. c #D9AC9A",
"G. c #D7BA97",
"H. c #C6B18C",
"J. c #E6A985",
"K. c #E4B583",
"L. c #E2BD84",
"P. c #E3BE8A",
"I. c #ECBD8B",
"U. c #E8B787",
"Y. c #F4BC83",
"T. c #F5BC8D",
"R. c #FAB789",
"E. c #E3BC93",
"W. c #EBBE92",
"Q. c #E5BA9A",
"!. c #F5BB93",
"~. c #EAA793",
"^. c #D4BDA5",
"/. c #D0BBAD",
"(. c #E6B8A6",
"). c #F1BCAF",
"_. c #D5C286",
"`. c #DEC185",
"'. c #D6C58B",
"]. c #DDC28B",
"[. c #DCC98D",
"{. c #DDC492",
"}. c #DECB91",
"|. c #D8C09A",
" X c #CEC29A",
".X c #E2C286",
"XX c #EBC184",
"oX c #E3C38C",
"OX c #EAC38D",
"+X c #E6C88E",
"@X c #E5C98D",
"#X c #E9C98E",
"$X c #E6C885",
"%X c #F2C28B",
"&X c #F5C586",
"*X c #E2C291",
"=X c #E5C690",
"-X c #E6C790",
";X c #E5C592",
":X c #E6C694",
">X c #E4C591",
",X c #EAC592",
"<X c #E7C892",
"1X c #E5C992",
"2X c #E8C992",
"3X c #E9CA95",
"4X c #EACB93",
"5X c #E7C69A",
"6X c #EDC39A",
"7X c #E7C999",
"8X c #ECCC99",
"9X c #F3C392",
"0X c #F3CA94",
"qX c #F3C69D",
"wX c #F3CA9B",
"eX c #FCC597",
"rX c #EAD196",
"tX c #F2D399",
"yX c #D9C7A8",
"uX c #DCCCB3",
"iX c #DBC9BD",
"pX c #DAD7BB",
"aX c #CDC7A7",
"sX c #E3C7AA",
"dX c #E8CAB6",
"fX c #F1C7B1",
"gX c #E7D6BD",
"hX c #F8D7B7",
"jX c #F2D1A9",
"kX c #F3E8BC",
"lX c #DBD9C3",
"zX c #EBDBCA",
"xX c #E7D8C7",
"cX c #F5D8C7",
"vX c #EBDBD1",
"bX c #F3DCD3",
"nX c #FBDCD4",
"mX c #EECBC5",
"MX c #ECE2CD",
"NX c #F6E4CE",
"BX c #ECE6D4",
"VX c #F3E2D3",
"CX c #FDEBD2",
"ZX c #FDE5DA",
"AX c #FAE6D8",
"SX c #FFEEE0",
/* pixels */
".Xd.a.d.A.A.A.L.`.P.oX;XoXoXoX.X<X3XZ.C.P.S.3X4X:X<XoX2XS.oX`.:X@XoXoXoXA.oX+X+X:XoX:X7X5XE.{.5X;XoXS.S.S.:X+X2XA.+X+X`.A.A.`..X",
".Xv.d.d.L..X.XA.A.A.S.`.L.A.A.P.A.:XA.oX:XoX3X:X<X+XA.<XoX,X].oX.XA.A.`..XoXoXS.oXoX:X:X5X:XE.:X:XoXoXP.oX].oXS.oX+X$XoX`.`.`.$X",
"$X.X.X.X.X+X$XL.P.oXoXoX+XoX+X+XZ.oX`.:X3X{.:XoXA.oX+X<XS.A.A.`.oXoXoXoX`.+X:XA.A.oX:X:X:X5X:X:XoX].].oXoXoX.X`.oXoXA.S.`.`.`.oX",
"$X#X#X$X.X+X:XoXS.S.P.P.P..X+X+XoX<X:XoX:X$XoXoXZ.oX<X:XS.C.Z.oXoX*X:XoX].+X:XA.Z.S.:X*X:X7X7X;XoXoXS.oXoXoXoXoXoX.XoX$X$XoX.X`.",
".X#X4X#XoXoX,X:XP.oXoXS.L.oXoXoX:X2X3XoX+X:X`.:X+XS.].oX:X:XoXA.S.+X:X`.D.oXoXS.A.].:X:X;X:X:X*X:X:XoXoXoXoXoXA.oX+X#X3X:XoX`..X",
"d..X@XoX.XoX+X:X,X3X,X+XoX+X@XOXA.oX2XoXoX:XS.oX:XoX=XoX<XoX:XoX:X:X:XoXS.oX+XoXA.oX+XoXoX+X*XS.:XoXoX`.S.oXoX+XA.A.oX2X+XA.Z.`.",
"d.d..X$XoXoX$XoXoX<X+XS.A..X.X.XA.S.+XA.oX2XA.`.A.S.3XoXoXZ.oX2X7X:X:X:XoXoX:XoX.XoXoX:X*XoX`.oXoXS.A.S.oXoX+X2XA.Z.A..XoXA.A..X",
".XA.A..X#XoXS.oX`.oXoXA.Z..X.X`.A.S.+XZ.oX8XoXoX=XS.oXS.:XS.:X3X8X;X*X=X=X:XoXA.oX.XoX+X+XS.S.`.oX`.oXS.oXoXoXoXL.d.Z.$XoXoX.XoX",
"oX].oX].<X4X4X<X:XoXS.A.A.A.`.oX4X#XoXZ.A.oXoXS.oX+XoXS.S.=X:X*X;XG.oX3X:XP.`.:X+X+XoX`.oXoX+XoXoX2X2XA.Z..XoXA.`.oX+X+XoXoX=X=X",
"oX`.$X<X4X4X:XoX<X:XoX].S.A.A.`.4X4X:XoXoX.XoXoX:X3X8X2X`.S.=X8XS.S.P.;X].A.A.A.oX+XoXoXS.$XoXoXS.+X.X`.A.oX+XoXoXoXoXoXoXP.oX].",
"P.`.oX<X4X8X3X<X3X<X=XoX.XA.`.`.oX+X+X.XoX:X+X:X<X:X:X:X*XS.S.:XP.*X:X*X*XoX`.A.oX+XoXA.A.A.oX`..X`..XA.oXoX+X+X<X+XoXS.oXS.S.oX",
"oXoXoXoX<X<X:X:XoXoX`.oXoX`..X.XA.A.A.Z.S.oXoXoXoXoX].oX*XS.P.*X*X:X:X*XoX<X2X+XoXoXoX`.A.S.S.A.+X.X.XoXoXoXoX<X@X+XoXoXoX+XoXoX",
"+X=X=X1X<X@X].].*X].`.`.`.`.oXoX$XA.A.Z.A.Z.A.Z.A.=X7X;XS.S.:X3XS.=X*X`.].;XoX`.$XoXoXoXoXoXoXS.2XoX.X@X:X$X=X2X+XoXoX=X*XoXoXoX",
"A.`.=X:X4X:X=X].:X].S.`.$X].`.$X<X`.A.A.L.oX`.A.S.oX:XS.D.S.G.P.S.oX=XoXoXoXL.Z.2X:X+XoXoX+X=XoX+X`.A..XoX$XoXoX`.oX=XoXoXS.S.A.",
"Z.`.].=X:X1X:X:X=XS.A.`.@X@X].`.$X`.`.oX+X+X=X:X*X`.A.D.P.1X{.Z.=X=XoX].oXoXoX`.+X2X2X+X`.S.oXoX.XA.d.A.`.`.S.S.oXoX+XoXS.A.A.S.",
"<X<X:X].oXoX<X:X`.Z.Z.oX#X@X.XZ.oX.XoX@X<X`.oX+X:X+X,X6X3X=X:X8X=X].A.A.A.`.oX+XA.2X2XoXA.C.A.D.oX.X`.d.A..XL.A.S.oXoXoXS.S.].=X",
"4X+XA.Z.+X3X,X+X.X+XP.A.oXoXoXOX+XP..X1X1X[.].4X6XwX0XOXOX;XoX@X@X`.[._.'.1X:X$XoXoX+X<XD.C.A.2X4X#X#XL.L.L.P.3X.X:X].S.oX=XoX:X",
"oX$XoXL..X+X+XP.A.oXA.oX+X#X.XoXOXOX@X`.[._.[.@X,X,X,X9XL.;X@Xs.$X#X0X#XI.,X3XL.P.,X3X,X*XS.oX<XoX.XOX.XP.I.P.P.oX+X=X].=X=XoXoX",
"oX+X+XoXoXA.A.d.oXoXL..X#X+X.X.X#X#X#X.XS.oX2X:X'.8X3XP.P.P.P.eXi.Q O - X.k.!.T.9X,X#XoXS._.'.].1XS.oXA.S.oXS.oX;X:XoX].+XoXoXoX",
"P.oX+XoX.XP.A.A.2X2X`.L..X+XoXoXoX0X#XL.A.+X<XoX1X`.:X:Xp.!.eX8.u r g g = - ` h.eXT.B.A.oX[.[.'.7X].].S.{.:XoX<XoX;XoXoXoX+X.X2X",
"oXP.`.L.oX+X2X#X,X+XL.Z.L.oX`.oXA.A.L.L.L.P.P.S.1X_.`.oXI.T.3.- r a F F h h y = ~ q.%X%XL.+X@X_.V.Z.{.=X1X5X{.{.{.*XoXS.oX.XOX#X",
"+X+X`.A.oX#X4X+XA.oXA.oX$XoXA.L.A.d.K.L.P.P.A.A.V.7X'.L.I.X.* r d a p p f m D F h g W 5.Y.x.L.OXA.A.S.P.S.{.{.1X].=X].oX.XL.L.#X",
"oX.XoXL.oX+X.XP.A..XoXA.oXS.A.oX.X.X.X+X:XoXS.S.A.A.,Xi.` - = x i 3 3 8 8 8 8 p h V h u ~ 5.c.R.I.L.XXA.Z.S.].:X'.S.`.oXoXA.L.oX",
"Z.A.A.oX.X+XoXL..X2X.XoXoXoX.X+XoXoXoX+X:X1X].S.P.OXK.` * u h 4 t i i p 7 9 c p c b D D s t ^ 4.R.&X&XL.oX.XoXoXC.A.A.oX+XL.A.+X",
"+X,X.XP.`.oX.X.X.XP..X3X,XA.A.`.#X#X#XrXrX@XZ.L.I.u.W $ s x 6 8 t t i i i p 9 w v 9 9 b n G V r ] c.n.b.x..Xz.4X+XA.Z.S.:XoX].1X",
".X.X.XoXL.oXoXoXoXoX+X4X+XoXL.oXa.#XrX`.'.1X8XwXk.l $ s i 5 i 5 t t t i p 9 w w e w e v v m n V j [ j.n.&X&XXX#X<XoXS.*X+XS.'.'.",
"A.oX+X+XoXoXoXoXA.P.oXoXoXS.A.L.L.d..X].`.2XOXu.g = f d q 3 a 5 t i i i 9 p c w w e v e c c v C Y E E 5.n.n.$X.XoX].P.P.=X1X@X[.",
"A..X2X,X.X.XoXoXA.L..X.X$XoXL.oXL..XL.A.,XI.3.: $ s i 7 p 9 3 i i i 8 p p c w c c v w v M c c n Y Y j c.x.f..XZ.A.P.P.{.=X:X1X'.",
"d.P.2X#XoX.X.XL..XA.oXoXoXoXoX+Xa..XL.%X9X*.- # x t 3 7 p 9 7 p 9 9 9 p p c w c c b w c n v c n V j c.h.&XXX.XoXP.:X;X;X].+X].Z.",
"Z.A..XoXoX.XoXL.oXA.A.L..XoXoX.XoXL.%XT.o.- # x 5 i i 8 5 8 p p p 9 w c c p c c c b v v v v n A j ^ r.c.x.oX4X].Z.S.P.oX:X@X@X[.",
"L.A.A.`.oX+X.XP.L.`.A.A..XP.oX.X.XP.K.X.= r F 5 5 7 5 i d i 5 i 9 w w w p a a c c b n v v M N Z b ] j.R.I.Z.Z.{.V.D.S.P.#X@X@X1X",
".XA.A.L.+X4X3X+X+XoXoX.X.XOXP.P.9Xk.( = y s 5 3 8 8 f i 5 i d 8 9 c p p c c c c v b v v v N I n ) q.R.J.,X8X7X{.{.*X=X,X<X$X$X[.",
"+XA.Z.+X2X+XoXoXtXs.rXL.,X9XJ.!.R.~ 4 y u r 4 i 9 9 9 9 p 8 9 w e c p a c v v c M e N M N G V ) e.P.qXE.*XoX8X3X3X*X:X1X{.{.1X1X",
"`.`.L.oXoX2X4X8X#X#X.XOXP.I.qXi.W 4 f f 4 = t i 9 w 9 w 8 f 9 w w c 9 a c c e v M M e N I D ) 4.0XjXG.:X*XoXZ..X3X;X:X1XD._.[.[.",
"`.@X:XS.S.oX:X+X@X4XA.+XW.P.g.! y t S d 4 r t 4 9 9 w 9 f p f w w c c c a a v v M M I G F ) >.Q.hXjX:XC.8XS.S.`.oXS.:X{.S.'.[.[.",
"A.@X3X+XP.P.oX`.rX$XoX;XP.B.! O - $ h h 5 4 t i 9 9 p p i p p w c e e m c a n v e M I D ( e.^.hXhXjXg.;XA.+XoX$XoXS.].{.S.].@X[.",
"`.`.@X<X3X3X3X,X@X].<X`.P.;.O < * @ = s S d i t 9 8 p i i i c c e m e m b b c n N I D ) 1.^.VXxXjXeXy.,XP.d.tXZ.1X{.=X{.{.=X].A.",
".X@X`.oXP.3X:XoX.X@XA.G.E.| o +...U - # f F m f 8 p i i i p c e S e m v v v n V ' G / e.^.iXBXAXjX;.0Xy.#X4Xd.@X1X=X{.}.oX<X<XoX",
"`.@XoXS.A.oX.XZ.oX:Xd.P.6X< . >.,...! l 4 f s F d f a i p a e e e e M M v n C D D / w.yXxXZXnXmX+.i.i.XX#X.X4X$X'.[.1X1X].:X2XOX",
"s.$X:XA.A.2X,XZ.1X=X;XS.E.;   N.B.1.,...W y # y D F m b c b v M e m M M M B G G ( e.yXpXbXCXmX%.; u.XX0XXX.X$X[.Z.'.1X].A.A.L.z.",
"A.].A.,XoX2XA.d.<XoX].G.U.>   F.sX^.H.1.8.#.l : 5 S D G n w c n v e N v A Z G ( w.^.xXbXZXcX$.@ @.x.0XXX.Xd.v..X`.Z.A.].=XoXd.z.",
"Z.`.S.+X:X8XoXZ.S.].7X8XQ.;   F.dXyXaXG.M.9.e.( K x i p V C n w M Z 7 A A T ^ e.yXvXAXmXnX$.$ #.k.OXI.x..X$X`.[.@X`.Z.S.].S.L.L.",
"`.Z.`.S.4X2X+XL.2X$X].:XQ.; o (.zXiXpXsX-.k #.e.*.( U z s a n A A A T p R _ q.sXxXvXVXSX-.% ( k.eX0XL.a.XX$X$X@X@X].S.+X+X.XL.b.",
"`.`.+XS.+XoXoX`.2X`.S.D.6X>   (.AXlXlX^.} y % $.M.8...Q l E C 7 T Y V =.=.q.sXuXvXbXnXN.% / c.T.I.OXL.L.$X.XoX<X].`.].:X2X.Xz.z.",
"oXoX3XP.+XP.+X.Xv.`.S.*XsX!   F.ZXzXMX(.0 L J e.G.F.H.2...4.7.=.Y j 4.h.i.Q.fXCXvXSXN.@ } 9.I.I.P.oX.XL.oX#X#X+X:XP.A.P..X$X$X$X",
"1X<X<X].oX.X@X#Xd.$X`.1XQ.+.o %.fXCXNXQ.+ L } (.jXyXaX X1.;.4.5.j.c.k.i.G.gXNXmXZXN.@ ( 8.E.P.P.<X<X:X.XoX#XoXL.:XP.P.oXOX.X.X$X",
"1X=XoXoXL.+X.X@Xv.`.L.8X8Xw.> X { F.NXfX% k @.fXyXsXuXyX|.C.,.o.6.6.y.V.gXBXvXZX~.O ! w.E.C.jX{.8XoXoXoXP.A.P.P.P.P.P.+X#X.Xv.v.",
"8X4XS.oXoX#X@X.X`.`.p.oX5XqXB.J X . w.).P + >.hXNXgXuXyXyXsXG.C.3.i.|.gXMXBXAX(.@ / 8.U.A.{.S.5X{.'.[.4XA.p.Z.OX3XP.A.oX.Xv.v.b.",
"A.S.S.].:X@X2X4X<X<XP.C.L.oXI.E.+., . K L + -.cXcXMXzXgXuXuXuXyXF./.gXzXVXzXdX: K &.J.S.[.1X+XOX`.oXZ.A.4XtX<X3X3XP.A.Z..X.X$Xv.",
"A.A.S.oXoX:X:X<X`.A.A.A..XOXL.L.!.e.( 0 S q -.nXNXBXbXNXxXmX^.uX/.mXvXVXnXcXJ J *.J.W.`.'.].L.L..XoXA.A.4X:X].*XG.S.S.A.A.d.d.b.",
"S.S.S.oX+X<X<X:X:X=XoX+X.XA.a.K.U.l.&.m H P k w.xXBXBXBXxXvXAXpXxXxXSXnX).{ J #.J.8X=XZ.`..XL.OX`..X`..X<X<XS.S.oXoX+XoX`.v..X$X",
"oXoXoX+X@X:X:X:XoX=X=X:XOX.X.X%XR.] 9 m 9 P J X 2 m.MXbXAXbXzXMXvXAXhXcXO.: } J.:X7X[.`.oX.XI.#XoX.XA.oX<X=XE.oX:XoXoXoXoX.X`.v.",
",X,X+XoXoXoX].S.P.oXoXoX#X4XL.u.^ V ' b ) R.8.! ; . %.).ZXZXMXBXlXgXCX>.% ( J.W.D.}.}.}.4XoXK.L.oX.XA.oXoXoX*X*XoXoXoXoX.X.X`.v.",
"3X2X:XoX=XoXoXoX:X:XoXoX#XI.y.X.' t.' ^ l.%XjXE.%.! X . $.mXCXlXlXkX8.@ / 9.!.3X[.}.[._.$XL.C.OX@X.X.XoX`.S.*X*XS.+X<X+X$XA..X.X",
"4X+XoXP.].oX{.*XS.`.P.A..XL.y.;.R.*.z l.eXOXW.qXE.J. .J X O ,.rXkXg.O @.9.T.+X[.@X@XA.a.`.Z._.rXoXA.`.+XS.S.oX`.*X:X2X+X`.`.`..X",
"oXL.A.Z.A.S.oX].S.:X:X+XL.A.$X0XeX( J.eXU.9X,X5XE.qX!.9.} #.U ! :.1 k.R.T.K.@X_.v.oXOXXX0X@X'.}.`.s..X@XoXS.oX*X=X`.A.A.`..X`.d.",
"oXoXoXA.C.S.].S.C.A.oX:XP.A.L.,XG.B.B.!.!.D.*X{.Z.6X9XT.U.u.h.5.:.q.U.%XOX.X.Xd.].].OXI.%X4X}.}.].`.`.`.oXoXD.A.S.:XS.p.A.oXoXoX",
".X+XoXA.A.P.].`.oX+X;X;X.XP.P.,XD.D.P.wXeXI.}.{.Z.3X9X0X$Xf.c.j.h.x.x.XX.X.X.X.X].$XoXOXOXoX'._.[.oXoXoXoX`.A.`.4X8X+XA.`.oX$XoX",
"d.L.`.`.oX:X<X].:X=XoXoXP.L.P.OXI.;X[.@XP.L.]._.'.}.,X0X&XL.&Xc.R.Y.z..X.Xv..X.X.X.XoXoXoX].S.Z..X`.S.oXA.Z.A.+X@X<X+XoXS.:X:XoX",
"A..XoX`.<X4X:XoX<XoXS.P.oXP.P.OX#X4X'._.p.a.=X'.'.}.;X3X@Xv.b.b.&XXXL.$X$Xv..X.XL.oX].1X].oXoX:XoXd.A.oX$XL.oX<XoXS.oXS.A.oX3X`.",
"oX#X.X@XoXoX].S.2X:X,X3XoXoXI.,XA.+X+X@X.XoXrX{.{.].1X}.[._.a.d.a.oX.X$X`.v.'.`.OXOXoX}.}.].I.OX+X.X.X@X@X.X$X<X:X`.=XoXA.oX<XS.",
"oX#X#X.XoXoX*X=X2X3X3X3X,X.XP.oXS.oXOXOXoX@X8XoX:XG.1X{.[.[.d.v.s.$X.X_._.`.@XoX,XoX].].[.].P.,X0X@X$X.X.X`.`.`.oXoXoX`.S.oX:X`.",
".X$X#X#XoXS.oX:X:X+X,X,X,XP.P.P.:X1XS.S.A.[.,XP.,XE.7X[..X$Xv.v.v.`._.'.].'.<XoXoXD.D.P.*XoX;X,X2X@X`.Z.a.`.`.`.A.$X`.D.S.=X=X=X",
"b.#XrX#X`.Z.S.=X*X`.P.;XoXP.P.oX5XE.D.S.[.{.wXW.9X;X:X'..X&Xv.v.$X_.v.[.1X1X,XS.*XS.S.;X,XE.S.oX+X@X.Xd.s.A.oX@X<X8X=XS.oXoXS.oX"
};
