/* XPM */
static char *result[] = {
/* columns rows colors chars-per-pixel */
"64 64 256 2 ",
"   c #261B07",
".  c #301A0D",
"X  c #352811",
"o  c #392F2A",
"O  c #1D1000",
"+  c #582907",
"@  c #442A17",
"#  c #593618",
"$  c #4C3011",
"%  c #652D04",
"&  c #693509",
"*  c #783809",
"=  c #683716",
"-  c #743C14",
";  c #7B3C14",
":  c #723C1B",
">  c #773A17",
",  c #652F13",
"<  c #573A23",
"1  c #4B3C35",
"2  c #4C3B2A",
"3  c #6A3D25",
"4  c #753E23",
"5  c #451E00",
"6  c #7B431C",
"7  c #7A4319",
"8  c #784111",
"9  c #5B4526",
"0  c #58493D",
"q  c #4D4132",
"w  c #674728",
"e  c #7B4423",
"r  c #784729",
"t  c #76562A",
"y  c #674C38",
"u  c #784B35",
"i  c #6B5339",
"p  c #775839",
"a  c #6D552C",
"s  c #7C653C",
"d  c #6E623A",
"f  c #5D411C",
"g  c #584D48",
"h  c #5C5449",
"j  c #5C5353",
"k  c #564C4B",
"l  c #665549",
"z  c #765B46",
"x  c #6B5C54",
"c  c #665A58",
"v  c #6F584F",
"b  c #7B624D",
"n  c #7B6446",
"m  c #6D615C",
"M  c #6E6457",
"N  c #756254",
"B  c #7B6453",
"V  c #74645C",
"C  c #79655C",
"Z  c #7D6958",
"A  c #7B6B63",
"S  c #786964",
"D  c #776B67",
"F  c #675D65",
"G  c #843E0B",
"H  c #873B07",
"J  c #853C17",
"K  c #943E11",
"L  c #89420B",
"P  c #93430C",
"I  c #9A450A",
"U  c #844314",
"Y  c #8D4513",
"T  c #82441C",
"R  c #89471B",
"E  c #944513",
"W  c #9A4B14",
"Q  c #974917",
"!  c #A44B19",
"~  c #AB5517",
"^  c #834B2C",
"/  c #884826",
"(  c #944E2C",
")  c #974B24",
"_  c #89562A",
"`  c #985429",
"'  c #864D34",
"]  c #835333",
"[  c #875937",
"{  c #935333",
"}  c #985936",
"|  c #944F36",
" . c #A45729",
".. c #B45A26",
"X. c #A65B34",
"o. c #B0582E",
"O. c #88653A",
"+. c #98683A",
"@. c #9B723D",
"#. c #846A34",
"$. c #B7652B",
"%. c #A76538",
"&. c #B76939",
"*. c #A7753B",
"=. c #B97838",
"-. c #AF6A2C",
";. c #C66D36",
":. c #865D42",
">. c #9C5F40",
",. c #8B6C43",
"<. c #886648",
"1. c #936C43",
"2. c #986A47",
"3. c #8B7348",
"4. c #9A754A",
"5. c #866A54",
"6. c #8B715A",
"7. c #9A7554",
"8. c #9E7A54",
"9. c #987759",
"0. c #996C56",
"q. c #A76943",
"w. c #B86A44",
"e. c #A77849",
"r. c #B77848",
"t. c #A37B54",
"y. c #A37D5A",
"u. c #A97C55",
"i. c #B97B54",
"p. c #A26D52",
"a. c #836E64",
"s. c #877467",
"d. c #947A64",
"f. c #917A71",
"g. c #A77F62",
"h. c #C67A47",
"j. c #C37D53",
"k. c #D27951",
"l. c #BA813E",
"z. c #C9853D",
"x. c #A78347",
"c. c #B98349",
"v. c #A5825D",
"b. c #AC845B",
"n. c #A88457",
"m. c #BC8B5D",
"M. c #B68659",
"N. c #B7925C",
"B. c #998473",
"V. c #998369",
"C. c #AB8562",
"Z. c #AD8A64",
"A. c #A88668",
"S. c #B38B64",
"D. c #BB8D64",
"F. c #B38C6A",
"G. c #B58765",
"H. c #BC9265",
"J. c #BD936A",
"K. c #B7956A",
"L. c #A88A74",
"P. c #B99676",
"I. c #AE9178",
"U. c #9D8255",
"Y. c #C98948",
"T. c #D38A48",
"R. c #D7944D",
"E. c #C38355",
"W. c #C88859",
"Q. c #D38857",
"!. c #CA945B",
"~. c #D89759",
"^. c #CE944D",
"/. c #E39D58",
"(. c #EA9B53",
"). c #E8A45B",
"_. c #F5A75A",
"`. c #C98B63",
"'. c #C49364",
"]. c #C3946B",
"[. c #C39B6C",
"{. c #CB9767",
"}. c #D49B63",
"|. c #D49D6C",
" X c #D79967",
".X c #CC9D73",
"XX c #C59A76",
"oX c #D4956B",
"OX c #E19D62",
"+X c #DBA36C",
"@X c #D8A268",
"#X c #CBA377",
"$X c #D4A374",
"%X c #DBA473",
"&X c #DAA979",
"*X c #C9A16B",
"=X c #EDAA63",
"-X c #E4A96D",
";X c #E8A768",
":X c #F5AC67",
">X c #F8B36C",
",X c #E3AB74",
"<X c #EBAC74",
"1X c #E3AD7B",
"2X c #EBAE7A",
"3X c #E3A671",
"4X c #F2AF75",
"5X c #ECB27C",
"6X c #E8B179",
"7X c #F3B274",
"8X c #FAB572",
"9X c #FDBA75",
"0X c #F3B47B",
"qX c #FDBB7C",
"wX c #F8B77C",
"eX c #D9A05B",
"rX c #B09885",
"tX c #BCA592",
"yX c #C39E85",
"uX c #DCAE82",
"iX c #D5A886",
"pX c #DCB288",
"aX c #CDAD8F",
"sX c #E3B283",
"dX c #EBB483",
"fX c #E4B58A",
"gX c #ECBA8C",
"hX c #EBB788",
"jX c #F2B482",
"kX c #F4BA84",
"lX c #FABC83",
"zX c #F4BC8B",
"xX c #FABD8B",
"cX c #F9B785",
"vX c #E7BB95",
"bX c #F5BE90",
"nX c #E5AE80",
"mX c #D8BCA6",
"MX c #FEC185",
"NX c #FCC28C",
"BX c #F5C18D",
"VX c #F6C293",
"CX c #FBC392",
"ZX c #FDC999",
"AX c #EDC698",
"SX c #D8C6AD",
"DX c #EACAB7",
"FX c #EDD1BA",
"GX c #F2CFB4",
"HX c #F8E0B4",
"JX c #ECD6C6",
"KX c #F5DAC8",
"LX c #F0D9CE",
"PX c #FAE8D6",
"IX c #F9EACF",
"UX c #E9E4D7",
/* pixels */
"T z.z./.~.(.).~././.R.R.~.Y.T.Y.~.Y.N.J.[.K.[.[.#XJ.P.[.[..X#X.X[.*XK.J.*XH.#X#XN.H.[.].}.=X_.).).).=X=X).)./.T.^.T.z.z.l.l.z.;.",
"# =.R.~./.R./.OX~././././.T.T.z.Y._ w z p w i p i i i p p i i n z b n 5.p s p s p p s p e.~.=X=X)._.=X=X).~.eX^.Y.T.R.T.Y.Y.z.$.",
"@ *.z.(.R./.OXOX/./././.OXR.R.R.z.*.5 5 9 w w w w w f w 9 f 9 9 9 9 w # # w 9 < f t = . R +X).=X=X=X;X@X~.R.~.Q.Y.Y.T.Y.z.z.R.;.",
"@ =._.).).).;X=X).=X=X=X;X;X=X/.).R.Y.*.#.*.@.@.@.@.*.@.+.e.@.@.@.@.+.1.4.4.1.1.+.@.+.c.;X=X=X=X=X).;XeX~.!.~.~.Y.h.Y.k.Y.z.z.-.",
"#.R.:X:X:X8X7X>X>X>X=X:X>X8X8X:X>X_._._.R.r.c.c.^.c.c.c.c.c.r.x.c.n.+.*.^.^.^.^.~.R._.>X>X9X>X>X>X-XeX-X@XeX}.Q.r.c.Q.Q.E.E.Y.-.",
"~._._.:X8X9X:X>X>X>X>X8X8XqX9X9X9X8X8X>X).eX!.$X+X@Xm.m.N.N.H.M.u.D.m.].$X~.+X7X:X>X>X9X9XqXqXqX>X<X-X,X-X*X}.W.m.E.E.E.E.Y.eXl.",
"_._.>XlX8X8X;X>X8X8X>XqXqXMXlXqX>X>X:X7X@X*X'.b.n.4.e.8.e.n.b.4.S.b.1.n.4.@.+.u.!.!.4X5X6XwXkXwX9X0X,X,X@X$X{.m.m.E.E.M.M.W.}.c.",
"_._.0XkX9X9X5XqXqXqX8XMXMXMXlXqX8X>X;X|.K.F.<.e.n.n.N.8.n.n.1.J.y.8.v.4.U.H.$XN.s n.e.!.dX6X:X>XqXwX-X&X*X@X}.!.].M.E.E.c.E.~.c.",
"=X=X7X0XkX5X5XkXlXMXkXkXNXMXMX7X7X'.e.t.C.XXF.7.O.4.1.[ ,.8.v.9.8.4.,.p 1.4.O.4.F.G.g.u.#X[..X@X@X6X-X+X@X+X+X!. X}.!.{.!.!.!.c.",
"@X@X$X&X1X1X1XfXdXsX&XhX5X6X6X+Xe.@.M.!..X:.+.e.e.N.H.].[.D.b.J.J.].#X].J.K.u.4.1.O.S..X$X'.u.'.~.@X+X6X+X6X+X6X;X2X1X,X-X;X}.*.",
"*X&XuXuXpXpXpXAXvXgXgXfX&X#X#Xu.3.S.n.[ e.u.b.'.'.N.e.@.@._ _ @.1.} 2.+.+.4.Z.K.*XM.b.e.b.H.N.m.!.*X,X6XMXMXlX0XlXlX0X0X0X7X;X=.",
"$X$X1XpXsXfXgXgXvXpXpXfX#XH.1.4.7.p :.C.b.N.e.1.+.%.q.r.j.T.h.Y.k.Q.Q.E.E.q.+.%.4.K.#X#X].+.e.K.b.e.!.,X5XwXMXMXMXxXNXMX8X7X;XE.",
"$X&X&X&XpXgXfXsXpXvXsX#XM.2.S.S.:.:.b.#Xt.[ +.*.h.E.W.`.Z.L.B.B.s.V.V.C.H.!.Q.h.%.+.e.b.#XH.b.J.J.#Xe.}.<XkXlX7XMXNXCXMX0XwX6Xc.",
".X&XsXpXfXpXsXsX6X$X&Xm.4.].e.1.e.[.N.+.%.w.i.'.I.I.I.B.s.M h g g g g j x a.f.L.oXQ.h.%.x.#XJ.M.8..XM.M.{.3XlXqXkXkXBXBXkXMX&XM.",
"@X&XsXsX6X1X1XsX1X&X[.t.b.t.O.M.`.4.O.q.i.W.P.aXtXB.x 2 X       X         X q h 3.G.oXk.*.c.K.[.H.O.b.n.N.$X6X0X0X0XkXkX6X6X|.M.",
"8X9X7X8X0XwXwXqXdX{.p.7.7.:.C.XXv.2.r.j.XXaXmXrXz X X $ 9 9 9 9 t t # 9 o X     o l d.J.Q.w.e.[.'.M.n.P.b.m.+XwXMXMX0X0X4X5X{.1.",
":XwX0X4XwXwX4XcX#Xu.C.m.r.b.F.m.r.=.j.yXmXmXd.# 5 a a d #.t x.n.%.e.U.#.a a q f   O 2 s.XXQ.r.e.K.{.b.u.%Xx.K.cXcXNXqX6X0XcX|.O.",
"8X9XwXcXqX8X4X4X[.1.P.t.*.n.Z.e.r.i.vXSXDX6.X t a p t a #.a w a -._ 9 p y t 9 p 9 9 O   B XXoX&.e.#XJ.e.D.Z.b.&XcXcXMXgXzXCXzX&X",
"9XqXwX>X:X7X2X1Xb.y.y.:.S.F.u.w.j.aXmXDX9.$ < w w p t s O.d i y r.O.q b d a a ] 9 f 9     V.iXQ.r.F.#X!.3.b.m.P.5XwXwXlXcXjXcX[.",
"9X7X7XwX8X7X,X.X7.y.:.7.K.4.e.j..XJXLXrXX #.*.x.p O.#.n ,.n s y i.<.q n d s p [ w 3.3.p     rX*Xh.C.[.[.A.b.c.Z.#XNXAXZXZX*X~.N.",
"7XcXcX4X<XjX&XF.t.u.G.u.G.u.j.j.mXHXSX9 a #.O.1.O.p O.i p n O.a p p i s z s y p y s #.s 9 X l pXQ.r.H.#XH.D.[.S.'.GXIXJXUXFX$X,X",
"4XxXzX,X XnX#Xy.G.y.u.b.G.M.r.oXJXKXU.X ,.c.x.x.#.<.4.<.1.<.n.n.z <.4.1.z s z e.z 9.4.3.s $ . tXoX&.m.#X.XM.K.M.*XpXHXJXPXHXjX6X",
"wX0XzXbXdX%XJ.v.g.y.n.J.u.E.j.iXKXKXt #.8.@.#.4.s 3.#.n O.a 1.O.[ ,.3.p n ,.p ,.i 3.a a 3.t @ B.uXh.i.P.{.e.V.K.K.%XlXkX6X0XqX%X",
"4XjXbXzXnX&X[.S.G.6.N.J.G.i.j.mXPXmXr e.@.3.#.@.O.<.#.n +.s 2.d..XD.7.O.n 3.p 2.d 3.n z s t # 6.vXj.p.K.'.S.A.S.K.$XwX0X7X7X-X1X",
"cXcXjX2X}.!.K.Z.g.8.F.y.u.M.i.mXPXaXo l 2.2.r.i.<.p.0.0.p.2.i y W.7.y <.4.9.<.u.z g.t.q.+.[ X h aXY.M.F.P.D.'.Z.K.'.+X5X7X<X0X+X",
"<X2X<X%XM.e.2.<.:.+.<.<.<.r } DXIX9.2 y p :.z b z [ z l z p z y z l g :.u y y p p u z l l g 1 2 yX` u v.b.e.u.8.n.4.i.3X0X2X,X-X",
",X@X|.|.'.M.2.1.O.1.t <.0.0.q.vXPX<., r [ } X.} w ^ ( X. .} z 1 # < 4 } X.} >.' 3 [ q.X. .:.< # yXq.[ 7.e.8.n.1.,.n.$X1X2XjX<X+X",
",X%X1X%X'.c.e.@.u.b.<.] r :.w.vXPX0./ u | } } | 2.} ^ { ( | ' [ u p ' ' } { ' { X.{ | { { / ^ 4 yXr.[ [ x.F.F.8.O.4..X2XjX2X3X3X",
"1X&X%X+X@X+X!.c.,.[ z +.*.r.w.DXUXp.X.^ ] } } t $.&._ :.q.{ ' -.r 2.>.^ } 2.| :.h.) ' p.:.r +.6 #XE.r.x.e.0.,.8.W.&XdXdX0X0X,X}.",
"3X1X1X|.@X}.!.!.n.2.0.r.^.h.i.DXPXd.( ( } &.&.` $.;.) *.;.X.{ &.R X.} } q.w.} ) ;.X.%.h.-.)  .^ yXW.!.-X!.F.y.D.nXxXxXcXcX2X<X X",
"6X5X1X1X6X6X1X,XM.4.1.e.}.r.`.mXvX0.| | } w.+.} o.w.( w.Y.q.| w.] %.X.X.q.%.X.} ;. .q.h.w.( X.e yXoXoX;XY.C.y.!.NXNXzXCXCXkX6X+X",
"kXBXgXVXVXzXVXVX|.n.t.{.kX`.oXJ.& [ | ( ` -.q.( o.q.( o.&.%.} %.u } %.( q.%. .` ;.{ } &.} ( ) w tXoXoXwX;Xb.b.&XBXVXCXbXzXCXcX;X",
"kXBXVXzXzXlXzXVXCXzXNXCXbX`.`.mXaX:./ u u | { r o.X.4 u ' ^ R q./ %.{ e ' ] ] ^ w./ ( ` } e { 7 P.oXoXzXMX5XkXMXZXCXZXZXBXBXdX-X",
"kXzXVXVXzXzXzXzXjXkXkXzXzXE.`.DXPX5., u %.;.$.} ] ' { X.&.X.^ y y y u %.$...$.{ ^ 2.w.;.&.>.4 $ I.Q.{.xXMXkXMXNXZXZXCXZXZXNXjX;X",
"kXBXzXzXzXjXzXbX0XgXdXkXbXE.i.FXPX:.T u  .$.X.} p ' >.w.o.q.^ y ^ p ^ } X.X.} { ( { %.%.+.' e $ 8.Q.oXxXMXNXcXzXZXVXCXZXZXkX6X-X",
"kXMXzXzXlXkXkXzXzXzXjXzXCX`.i.DXKX:.) e T ' / w !  .4 ' ^ ' 7 } e { / 4 ] ] r ) ;.J { } ' 4 { % 9.W.`.bXkXVXkXbXVXVXNXNXNXjX7X-X",
"9XqXlXMXMXlXlXdXkXdXdXzXbX`.E.DXPX:.) J _ X.X.^ | X./ ` &._ 4 u # 3 u { q.&.} ` ;.( ( w.{ J { & 9.j.`.fXuXuX&XpXsXgXNXNXZXNX5X<X",
"9XqXqXqXqXlXkXdXzXdXhXkXhXj.`.DXKX:.) T W .. .R ` o.U X.&.( T 3 / w 7 ) o.$. ._ ..( X.&.) J ` # 9.E.i.iX.X.X.X].$XsXzX0XNXNXMX<X",
"9XqXqX9X9XqXkXdXkXhXhX6XnXi.j.DXKX' J > R o. .T  .o.J X.X.` : w = w r / %.X.) ! ;.J ( +.( J ) % g.W.`..X'..X&X]..X1XcX1XkXNXkX1X",
"8X9XqXqXqXqXdXsX1XsXsX1XuXE.j.DXLX:.J 4 e e R -  .) > T ^ 6 & r = 4 3 : / / : ' ..; e 6 6 ; T = F.j.i.iX%X&XuX&X.XdXxX0XlXhXdX1X",
"wX4X7X7X7X5X0XdX<X1X2X1XuXj.i.DXKX{ ; 3 T r ' > / ^ 4 ( ) / 4 / 9 u.{ )  . .( e / ^ { ` | : & + F.E.W.8X5X4X6X<X2X0XhXdXzXkXdX%X",
"2X<X4X<X7X0XzXjXjXjXzXgXhXj.i.DXUXu , w ) )  .) 3 3 ( o.! ( u < 8 u.} / ! ..) r 3 u o... .T # @ F.W.`.9XxXlXlXcXkXNXVXzXxXkX0X,X",
",X<X<X;X<X5X0XdXdXzXdXhXgXE.i.DXLX[ ; = : 4 r , J / = : ^ 4 = ; 4 / & = u : , 4  .* : ^ 3 + * % Z.W.`.8XlXcXwXlXlXNXVXVXCXkX5X-X",
"1X1X2X1X4X0X5X0XjXjXnXnXfXE.i.DXKX^ H & - / T > E T > / { e = R = Q J ; J ) J ; ) ; U R > > & + A.k.`.>XqXqXwXcXlXxXVXVXCX0X0X-X",
"6XdX6X5X0X2X<XjXdXhXnXuXpXj.i.DXPXr - = H P G ; E ; * E Q U > U * ; ; 7 R W G U ! H Q Q > & & % F.Q.`.:X4X4X4X8XwXzXBXgXBXdX6X@X",
"1X+X;X3X3X%X3X1X1XdXdXfXpXW.`.DXKX^ U = * / / f I Y - ; / J * L = R R J ) ) E 7 ..H Q Q 7 & * % L.`.`.;X3X4X4X4X<X1XsXpXgX5X6X@X",
"}.!.~. X X|.%X1XnXfXnXvXpX`.m.DXKX/ H % & : - % Q T , - ; - = U + T L * - > G J E T 7 * = = % + I.`.{.<X3X<X<X<X;X%X&XuXAXhX6X@X",
" X}.}.;X X|.+X+X1X$X$XuX&X`.`.FXKXu = # - 7 7 = ; = = 6 r 4 = 8 = 7 & : r : : , - , ; / 6 , % + rXoX{.<XOX3X-XOX<X X#X#XpXpX&X*X",
"~.!. X}. X@X{.%X.X.X$X|.|.D.XXFXJXw + : ; R R T # = 6 R / / = $ $ = - / ` Q R - # 7 Q Q E - + . P.XXoXnXOX X;X;X-X|.{.#XiX&X#XD.",
"q.c.'.!.`.].{.#X.X&X&X].D.G.yXFXLXu # e T 7 T e r e e 4 7 6 w 4 2 < 3 / R R / / u / R 8 e w $ @ I.F.].oX1X|.%XoX@X'.m.F.J.].H.M.",
"J.]..X{.].].D.A.J.P.D.H.G.F.aXKXJXe * R R U U ; ; ; U 8 ; J J J , - Y P K K I W ! ! I L G * % % rXP.D.`.].D.D.M.D.D.G.S.S.b.b.e.",
"P.XXXXXXJ.J.P.Z.S.F.C.S.G.g.P.JXKX6 * I I P P G G G P W I E E Y # = U L I I P P K K I P H * % + F.P.C.F.S.K.F.P.S.F.A.F.Z.n.n.t.",
"C.C.F.Z.F.Z.K.A.C.J.K.S.G.C.L.KXKXw % H H H G J ; G P W E E U U , % ; * G G * 8 H L H H K * % + I.P.A.F.F.K.A.F.Z.Z.A.F.F.Z.y.<.",
"9.8.C.9.n.y.g.y.7.9.8.6.t.0.9.KXJXt H H H L P E W I W W W W Y Y < , 6 ; - : & - ; & & - & & + @ I.d.<.4.9.A.S.C.v.v.A.F.Z.Z.7.p ",
"n <.9.0.9.<.9.9.0.6.<.<.6.<.6.KXFX6 H I H H P I W I ! W I W P P & * L P L L L H P L L L H * & + I.5.:.<.6.9.C.y.C.U.g.y.y.8.7.:.",
"5.5.5.<.6.<.<.z <.6.b 5.n b s.JXFXe G Y * L * K L E E Y L E Y Y & & L H L Q Q P I L L G * * & + f.5.5.A.9.d.d.y.9.V.9.8.n.v.8.<.",
"Z Z B B b v z 5.5.B B b 5.B d.JXFXr - * H H E Y L L Q P W W W E $ 7 ) ~ ~ ~ ~ ! ~ ~ ~ I I L & + L.z 5.d.9.9.5.6.3.9.9.8.C.D.7.<.",
"n n B B B n z 5.5.b 5.B Z B d.LXDXw # & & = % % * * 8 G L U U ; + ; ) ! ! I E W W E K H * & + 5 B.b 5.6.6.6.5.<.3.5.<.7.C.u.0.p ",
"B Z Z 6.5.z z b 5.<.6.v z N f.LXSXz i i i z l z z i z l l z z y l l l 3 i l y y y y y 0 0 0 q j L.6.6.6.d.s.b n z p z <.0.2.:.a ",
"M N N N b v v B z l Z 5.N N f.JXrXa.C A c m S A D m A A S V S S C V b N Z A 6.s.d.a.Z N b Z V V Z Z N b B l 0 h y y y n n z z < ",
"x x x x l l l l v l V Z N N d.L.A f.s.D V m f.s.s.N a.a.a.A a.a.D Z A A D C V Z V C C c c V V V h 0 q 1 o o o 1 h l g l y 0 y 0 ",
"c M h h g g g g k g l S N N s.d.f.B.V.D D D B.B.f.V C D s.D A D Z N V c V C V V m V S c j c x m m h c F k k j m m m c h 0 0 h j ",
"g j l D s.m V m c V V c m A s.a.s.D D S D D f.s.s.V V V S C Z A V S S m m S m m F c j c c F c j c k j m c j c j g j j j g g g g ",
"1 1 1 x C N S s.s.S V c S D S D a.s.V m m m A V V c V V V V S A C S C m c V c c c v v v j c V m c c k j c c j j k k k c x c h j "
};
