/* XPM */
static char *ZmlyZTIu[] = {
/* columns rows colors chars-per-pixel */
"64 64 256 2 ",
"   c #B50900",
".  c #AA1701",
"X  c #B31300",
"o  c #B41B02",
"O  c #BB1B02",
"+  c #BB1805",
"@  c #A50700",
"#  c #AB2807",
"$  c #B32200",
"%  c #B82806",
"&  c #BA3902",
"*  c #BA3C17",
"=  c #AD3010",
"-  c #A83112",
";  c #C51A05",
":  c #CA1605",
">  c #C32203",
",  c #C22B00",
"<  c #C92907",
"1  c #D22C0A",
"2  c #C33301",
"3  c #C93A05",
"4  c #D43708",
"5  c #C82C12",
"6  c #D62A17",
"7  c #CA3415",
"8  c #D83914",
"9  c #E13D14",
"0  c #DA3B24",
"q  c #C33D24",
"w  c #E63828",
"e  c #B5490A",
"r  c #B45328",
"t  c #986530",
"y  c #AB6537",
"u  c #BA6218",
"i  c #CD4C01",
"p  c #C84607",
"a  c #D44402",
"s  c #D44B02",
"d  c #DB4C0B",
"f  c #D94707",
"g  c #CA5605",
"h  c #D85808",
"j  c #C94A14",
"k  c #DA4714",
"l  c #D35715",
"z  c #CF5814",
"x  c #E24B0A",
"c  c #E4570A",
"v  c #E54918",
"b  c #E75616",
"n  c #F65618",
"m  c #DB6403",
"M  c #D96805",
"N  c #D57508",
"B  c #D86618",
"V  c #D77518",
"C  c #CC6D0D",
"Z  c #E76B07",
"A  c #F16A0E",
"S  c #E6780C",
"D  c #E86816",
"F  c #F86A1C",
"G  c #E67815",
"H  c #F57A17",
"J  c #F07E0E",
"K  c #C84527",
"L  c #C85728",
"P  c #D75826",
"I  c #D1512F",
"U  c #E34824",
"Y  c #F65928",
"T  c #E9542D",
"R  c #CC6728",
"E  c #D96726",
"W  c #D66D32",
"Q  c #E66A26",
"!  c #EB7B27",
"~  c #FB7B25",
"^  c #F57632",
"/  c #F16930",
"(  c #B47547",
")  c #D56D44",
"_  c #D6794B",
"`  c #D17851",
"'  c #EA7A48",
"]  c #F9714D",
"[  c #D48603",
"{  c #D28E0C",
"}  c #E68806",
"|  c #EA9709",
" . c #EB8616",
".. c #F8881A",
"X. c #E99619",
"o. c #F89818",
"O. c #FA950F",
"+. c #D9B517",
"@. c #D5B00E",
"#. c #E5A608",
"$. c #E7A31D",
"%. c #F8A519",
"&. c #FAB616",
"*. c #F4B10C",
"=. c #D7912E",
"-. c #EA8827",
";. c #FA8825",
":. c #FF9326",
">. c #FE9C2C",
",. c #FB9A25",
"<. c #FB8637",
"1. c #FC9936",
"2. c #E89430",
"3. c #DBB322",
"4. c #E9AC27",
"5. c #F9A426",
"6. c #EAB626",
"7. c #FAB826",
"8. c #FEA534",
"9. c #F8B536",
"0. c #EBB339",
"q. c #E9CA13",
"w. c #FBC616",
"e. c #F0D012",
"r. c #DDC831",
"t. c #F8CB27",
"y. c #FFD42B",
"u. c #FBD527",
"i. c #FAC937",
"p. c #FDD737",
"a. c #E9CD2D",
"s. c #FAE82D",
"d. c #FCE537",
"f. c #FEF339",
"g. c #BA8453",
"h. c #DD8546",
"j. c #D58F56",
"k. c #FF8944",
"l. c #FB9445",
"z. c #F88B5A",
"x. c #EC9758",
"c. c #F89554",
"v. c #E88F4D",
"b. c #F9A74A",
"n. c #FBB646",
"m. c #FAA656",
"M. c #E8B65A",
"N. c #FAB857",
"B. c #E7B44C",
"V. c #D09465",
"C. c #E89869",
"Z. c #F79968",
"A. c #FA906D",
"S. c #D9A877",
"D. c #DCBC7D",
"F. c #D8B77B",
"G. c #D7A26A",
"H. c #F3AA69",
"J. c #E6B968",
"K. c #F5B766",
"L. c #E8A977",
"P. c #F8AA77",
"I. c #EBBB74",
"U. c #E3B47C",
"Y. c #E3BB7D",
"T. c #E8B979",
"R. c #FAB879",
"E. c #E8A469",
"W. c #DCA34A",
"Q. c #E9C647",
"!. c #FCC748",
"~. c #FCD748",
"^. c #F8CB57",
"/. c #FFDC52",
"(. c #F8D757",
"). c #EACD56",
"_. c #FFE344",
"`. c #F9E14B",
"'. c #FFF746",
"]. c #FFEC54",
"[. c #FAE756",
"{. c #FCF459",
"}. c #E9E250",
"|. c #DCC27C",
" X c #D8C474",
".X c #DCC76D",
"XX c #E9C668",
"oX c #F8C767",
"OX c #FCD769",
"+X c #EBC374",
"@X c #EAC37C",
"#X c #E5C679",
"$X c #F5C679",
"%X c #FFDB78",
"&X c #E8D768",
"*X c #FEEA69",
"=X c #FFF866",
"-X c #FFF87A",
";X c #EDE768",
":X c #D6BC82",
">X c #DCBD84",
",X c #DEBE89",
"<X c #DAB784",
"1X c #DCBE9A",
"2X c #F7AC82",
"3X c #E3B683",
"4X c #EBB482",
"5X c #E3BD84",
"6X c #EBBB84",
"7X c #E3BE8A",
"8X c #EBBD8B",
"9X c #E4B68B",
"0X c #F3BC8A",
"qX c #F8B786",
"wX c #E7BD95",
"eX c #FCBB92",
"rX c #EEAF83",
"tX c #E2BEA6",
"yX c #D5C184",
"uX c #DDC285",
"iX c #DDC38A",
"pX c #DDC98D",
"aX c #D7C688",
"sX c #DDC992",
"dX c #DAC593",
"fX c #E2C286",
"gX c #EAC384",
"hX c #E4C983",
"jX c #E3C38B",
"kX c #EAC38C",
"lX c #E5C98D",
"zX c #E9C98D",
"xX c #ECCB84",
"cX c #F3C48D",
"vX c #F6C587",
"bX c #E4C592",
"nX c #EBC592",
"mX c #E5CA92",
"MX c #EACA93",
"NX c #EBCB99",
"BX c #E3C79B",
"VX c #F2C393",
"CX c #F2CA94",
"ZX c #F9C798",
"AX c #E8D297",
"SX c #F0D48E",
"DX c #FFE788",
"FX c #FDF989",
"GX c #FFFD99",
"HX c #FEEA99",
"JX c #FFFBA8",
"KX c #FFFDB4",
"LX c #FFFFBA",
"PX c #FAE8A4",
"IX c #FFFAC7",
"UX c #FFFDD5",
/* pixels */
"fXuX:XuXjXlXjXfXMXmXbXiX,X,XjXbXbXdXdXdXBXsXbXbXnXnXwXkXfX:XiXAXpXiXjX9XCXkXkXlXmXAXyXaX:X:XNXMXjXjXjXjXjXjX7X,X7X<X:X5XD.F.D.hX",
"jXuXuXuXfXjXjXjXiXfX7XiX7XfXbXbXdXbXBXbXBXBXbXbX,X7X5X5XjXnXiXuXaXuXzXjXkX5XzXlXmXmXaXsXjX>XbX9X,X>X>X7X,X,X>X>XuXfXfXfX>XD.D.fX",
"iXfXfXuXiXfXjXjX,XfXjXjXjX7XjX7XbXMXNX8XnXnX8X,X:XAXAXiX,X7X8X8XfX:X,X>XVXkXjX>XmXpXiXMXbXjXjX>XMXjXjXjXbXjXjXjXfXjXzXfXfXfXhXfX",
"uXuXfXfXjXjXfXjXjXjXbXjXbX7XjXjXwXBXVXnXnXnX7X<XiXsXdX:XiXnXnXkXjX<X<X7XnXnX7X<XjXjXjXbXjXbXnX7XkXzXjXfX7X7X,X>XjXjXnXjXjXzXzXxX",
"fXuXiXmXMXzXjXfXiXfXiXbXjXjXbXMXkXnXnXnXbXbXiX:X:XdXsX,XiXbXwXjX,XjXbXmXkX7X7XnXkX7XbXjXzXNXnXnXjXjXjXfX7XjXfX,XbXzXlXfXzXzXzXhX",
"fX:XuXjXzXjXuX>XjXjXjXfX,X7XjXnX7X8XkXbXbXsXaXiXiXbX,X,XnXnXnX8XjXjXjXnXjXbX7XnX7X7XnXzX7XnXjX5XjXzXjXjXjXMXNXnXnXzXjXjXjXkXfXF.",
"uX>XuXjXjX>X:X>XMXjXjXiX7X,X7X7X8X6X7XjXlXiXiXbXnX4XV.V.S.eXZXwXVXnX<XiXdXMX7X8X8X9XnXjX>XjX>X<XfXfXfX>XiXbXnXjXjXjXjXjXjXfXD.:X",
"jXjXiXlXfX>X<XuXjXjXjXfX7X7XfXjX9XU.U.jXbXfXfXnX<XZX4X( y ( L.eXZX0X7XbX,XsX9XnXnX8XCX7X>XzXfXfXfXfXfX:X>XjXjXiX7XiXjXlXjXD.>XfX",
"bXjXmXjXMXjXfXfXuXjXfX>X,XjXMXjX8XG.t 8X6X3XZXcXeXeX2XeX` - q A.eXeX9XjXaXyXBX7XwX8X7X,X|.aXMXSXfXuX>X>X>X,XjXbXmXMXNXlXjXfXiXfX",
"jXiXiXiXfXjXjXjXjXjXjXuX7XjXzX5XY.g.t U.vX0X8X6X3XrX2XeXC.q . K 2X2X4X7XmXAXNXkX4XkXnXjXaXmXAXMXfXuX>X,XiXjXbXMXjXbXMXMXbXjXfXjX",
"iXiXiXiXjXjXzXmXMXjXjXfXfX7X7XfX3X( ( S.7XlXuXzX9X6X2X2X` 6 X + I j.4X6XuXyXjXCXVXVXnXjXiXmXlXfXiX>X>XfXjXjXmXMXMXMXMXMXbXjXjXiX",
"jXjXbXjXjXbXjXmXMXjXjXlXjXfXfXgX6XG.D.8XD.uX>XfX4XZXtX] q @   o I ) P.cXmXmX7XkXVX8X,XuXyXyXD.>XjXfX>X,XjXiXjXbXmXMXMXbXjXjXjXjX",
"jXiXjXbXbXjXjXjXMXjXjXzXjXfXjXCX0X0XwX5X<X7XVXeXqXC.L # . o + + ; q _ E.gXMX7X3XV.S.3X<X:X:XuXfXlXjXuXuXiX>XiXjXiXjXbXbXbXlXbXlX",
"uX,XiXiXjXjXjXjXjXjXfXjXjX>XfXgX8X0X0XcXcX0XL.V.r = # . + X + ;   + r C.Y.lXnXF.( S.nX,X:XiXkXgXfXfXlXjXiX,X,XbX,XjXmXMXMXbXiX>X",
",X,X>X>XjXbXjXjXfXiXuXuX<XD.5XfX0XqXrX2XA._ K # % @ X + +     : : + # h.T.Y.U.g.( 4XCXjXuXfXfXfX>XfXlXlXjX,XiXjXBXMXmXMXmXjX,X:X",
"bXiX>XiXjXjXbXfX>X,XuX5XY.6X6X0XqX2X` K = = + + + : 6 6 : : : : : < r P.vXfXcXg.9X0XnXbXNXjX>XkXD.uXzXlXfX:X<X,XmXbXbXiXjXjXbXmX",
"BXsXbXjX7XfXjXfXbXMX5XS.j.V.2XeXz.q = % + + + + : w w : : ; : 5 7 * Z.vXgXNXnXcXCX9X,XNXmXuXMXiXjXfXjXjX>XfXjXjXbXMXNXjX>X>XzXMX",
"bXjXbXjXfXjXnXzX7XF.MX8XC.y I ' * 5 % + + + + + w 6 :   : 5 < q W Z.0XgXjXjXnXnXNX,X,X,XjXzX:XSXjXfXzXmX7XiXfXfXfXjXbXfX7XfXjXjX",
"bXjXdXlXpXjXkXkXkX<XfXVXU.` e * 5 0 ; O O ; + : ; 6 1 ; 5 1 5 T A.ZX8XY.lXpXAXbX8XZX3XL.U.CXfXmXfXjXjXMXfX7XjXfX<X>X7XiXjXzXzXfX",
"VXwXiXpXaXjXkX8XkX<X<X6XqXZ.q o 0 0 > X > . ; 6 1 8 9 > > 7 8 z.eX6XfXjXlXmXMX3X0XZXj.L.U.gXSX|.jXjXjXjX>XuXzXMX>XuXfXfXjXbXjXfX",
"VXwXiXpXaXuXzX8X8XS.7X6XeX_ % O 5 8 > O % + 8 4 4 v x , % % 8 z.qXR.5X:X<XjXVXeXeXC.y rX6XT.gX|.fXfXjXfX>X,XbXMXzXMXnXjX7XfXfXfX",
"NX7X,XiXuXfXjXkXnXF.8X0XC.L $ > > w < O X 8 Y 4 4 f v x 3 o o P z.eX6XT.gX4X2XC.y r ( 0X6XY.F.fXfX>XfXjX>X7XfX>XjXMXzXjX>X>XjXbX",
"nX9X>XjXiXiXfX>XMXnX6XP._ K $ O 5 U O X X 8 Y 4 c f f k f 2 % 3 K z.P.R.L.C.) - - ` rXZX6XgXD.fXfXfXfXjXfXjXfX>XfXjXzXfXuXfXjXzX",
"bX,X7XnXfXuX:XF.jX7XcXL.W # $ O 5 6 + + < < Y / d x x c b k 4 % k U Z.v.r e - # j.rXcXkXkXzXMXiXjXfX,XjXfXjXnXjXuXjXjXjXfX7X>X<X",
"MXbXjXnXiXF.:XlXiXjX0XC.) * o O 7 o X + 6 6 1 / ^ n c b Y v 8 > Y k & j ] P $ W R.U.fXMXcXVXBXpXfX>X7XzXMXjX7XfXjXjXjXfX>XjXjXzX",
"9X,X7XjXjX>XjXmXNXzX6XC.) * o > o + 0 @ T U @ 3 b ^ F b F v ; 9 n 3 p z.] o 7 ' vXzXAXlX8XVXmXdXiX>XuXMXMXjXfXfXjXjXfX7XfXjXjXjX",
"8XnXbXmXiXuX7X7XzXjXY.L.x.L 3 1 5 q . 0 ] ; < % 2 ~ ~ F b a < Y n $ ^ m.Q . k ' vXxXyXyX8X9X<X,XjX>XfXjXlXjX7XuXjXjXjXjXjXnXjX>X",
"8XnXmXpXaXiXjX5X3X5XgXvXR.' U 5 7 5 w ] 0 X 4 3 % i ~ H n , x Y v $ l.l./ j p L H.@XgXhX8X6X<X7XfX7XfXjXfX7X>X>XjXfXfXjXMXMXfXD.",
"9X7XmXaXpXlXzX8X9XkXkXT.R.c./ k 8 U ] 6 + 8 2 a s m J A ..s a c b i z <.m.g p j W Z.vXvX6X0X8X3XjXjXzXjXjXfX>XuX7XfXfXjXzXMXfX<X",
"8XnXmXjXiXiX7X<X7XzXfXU.R.x.k.b U U 1 X 1 v k a D .. . .;.H s a b l & Q c.j & 7 j W x.R.vX0XT.T.jXjXjXjXfX>X>X7X>XfXjXjXfXjXuX<X",
"NXNXNXmXfX,X<X:XfXjXfXT.R.h./ j 3 o ; 4 w v f D ;...O.,. .:...D f a a b Q ^ j % v k W x.H.I.T.xX5XfX7X>X7X>X7XiXfXjXlXjX7X>X>X>X",
"bXiXjXMXnXjXjXiXmXlXgXR.P.R j & & 4 < 4 8 Y d ~ 8.X.X.%.o.,.8.1.D a a s 3 c.k.d > 4 k z R h.K.R.I.8XgXfX7X5XhXxXjXNXzXjX5X>X>XfX",
"AXsXiXbXVXnXjXBXmXAXvXP.' 7 3 4 > 1 4 4 v n c  .9.7.6.4.4.X.8.9.n.! h c e g <.<.~ D x 3 d l R v.m.oXvXcX8X6X+X$XlXlXjXMXnX6X<XhX",
"pXiX>X,XnXnX8XMX|.T.L.Z.P p a Y v 8 < 1 9 b D Z :.^.^.9.!.!.!.^.^.oX1.B B e p c :.:.H A i m g B W v.R.0X0XvX+X+XAXmXmXjX8XjXfXuX",
"pXiX,X5XwXbX7XkX6Xj.v.' z 3 p k.n > 4 x 4 f d P <.k.b.N.oX%X%X%XDXHXDXx.R E k 3 -.>.,.,.C 8.E l B W E.6XkXgXJ.J.kXbXjXuX7XkXjX#X",
"jXBXbX7XbX,XfX0XqXr P l z & V l.F 1 f a 2 p 7 j p k h z B N.$Xg.SXHXDX%X2.Q j D ,.9.5.4.0.OX-.j B ! j.T.@XF.J.J.6XbXiXiXjXzXlX>X",
"uXbXkXjXiXmXjX0Xz.* , v h g b.:.a x c ~ D & 3 k v x 4 s h V R =.PXKXDXOX! l B m.n.i.6.6./.*XB d l E W.I.Y.Y.I.$XcXNXBXmXMXjXjXfX",
">XMXnXkXsXlXjXR.W 3 < n s G n. .g s p ~ c.<.D h a x x x h h B u $XHX%X0.N m <.OXQ.r.q.p.{.!.e D h B v.$X+XD.@X$XkXnXMXiXiXfXjXfX",
"7XMXnX7XlXlX9XH.E 4 1 n f H n.X.S B g i D 1.1.;.Z i s h h h c l Q l.2.N ..M C OX!.p.u.p.].i.e A D Q b.K.J.J.#XxXU.kXjX>XyXlXlXfX",
"7XiX,X<XpXlXY.L.W 2 4 n c H >.5.1.G g B g g ..8.o...M g D D h c c h J } ..H C X.~.p.y.y.d.`.[ } -.-.b.K.J.J.xXxXF.kXnX>X>XlXpXF.",
">X<XiXiXpX<XU.R.h.P 3 x F Z ;.>.>.-.M g M m M  .o.9.N.N e i i h m m m Z H ~ ~ S } &.t.p.y.d.u.&.5.V n.N.W.+XD.xXD.>XCX8XMX>XaXyX",
"jX,XaXaXuX>XT.0XH.' p h F A Z >.,.8...M M Z S ..X.8.^.^.n.n.-.-.C M m Z A H ~ ..o.S | *.y.p.e.'.!.{ 2.2.n.J.xXyX:XjXCXnXnX>XyXyX",
",XuXaXlXjX5X6XvX$XH.W g d ~ ;.G ..>.>...S Z S 8.8.5.4.7.~.`.`./.~.7.} Z Z Z G Z ....} [ #.p.f.f.[.0.{ 2.b.J.xXiXyXlXVXVX7X>XyXyX",
":XuXjXlXnX8X5XfXSXvXR.c.B Q ! -.S J ..:.:.J Z G 1.7.7.*.#.@.u.p.`.~.t.%. .M N N  .J X.X.N 4.'.f.{.=X9.{ 2.M.5XmXuXhXjXnX>XjXuXaX",
"pXuXfXkX7X9X5XMX>XxXG.H.v.E z V ;.:.........H S  .o.&.w.w.e.q.q.+.y.s.w.t.5.X.C J N 9.!.[ X.a.{.{.{.[.{ =.B.6X7XuXlXiXsXiXMXlXjX",
"aXhXjX0X8X8XjXjXiXNXJ.T.$XR.H.C g c J ....;.:.:.O.} } | *.w.u.y.u.u.e.e.y.d.0.[ N } 6.~.4.$.6.].=X}.{.9.=.B.0X<XlXiXpXdXiXmXnXcX",
"|.aX8XcXwX8XiXdX:X:XgXvXR.I.$Xc.G h g g m S  .O.%.O.O.} } } | 7.t.p.u.e.e.s.~.!. .[ #.p.i.{ +.].=X{.].i.$.M.U.9XgXhXsXaXaXuXnXeX",
"aX|.6X6X8XwX,XmXmX:X>XD.xXvXI.H.G H ~ ~ -.1.>.o.o.O.5.O. .O.} } 7.p.s.s.f.f.].[.i.[ &.p.~.@.r.].{.=X].3.B.M.L.VXkXlXAXaXaXuXCXZX",
" XhXzXhX>X>X7XBXNXMXCXCX7XD.6XH.<.Z 1.l.1.5.5.%.o.%.o.%.| | o.| i.`.{.=X=X{.=X=X[.@.t.f.~.3.r.=X=X`.Q.0.B.XXfXjXnXMXlXjXiX|.5XY.",
"uX|.>XuX>X,X7X,X7XjXnXNXfX>X>XI.2.S G  . .5.o.} 5.%.5.&.%.*.%.$.~.=X-XFXGXFXFX-X{.@.d.'.r.3.*X-X[.~.Q.Q.M.+X#XiXMXMXBXjXiXuXD.D.",
"hXuX|.fXjXbXbX,X,X,XbXMXjX7XfXI.b.-.S  .} 7.&.#.7.#.*.&.&.&.6.9.*XFXJXKXIXIXLXGX}.~.'.e.@.d.=X(.~.Q.Q.M.XX@XkXbXBXNXbXbXjXfXuX5X",
"D.hXfXjXjXjX7XbXbX7XbXbXjX7XfX@XM.0.2. .} &.i.p.p.#.| &.w.*.0.*XFXGXKXIXUXIXKXFXQ.d.e.@.p.d.~.).^.).XXXX@XgXkXbXbXbXBXMXbXjXjXjX",
"|.fXfXjXjXjXjXbXbXbXjXjXjXjXfXxXT.M.m.4.X.7.~.].].a.#.&.w.*.~.-XFXJXKXLXLXGX;Xr.a.q.e.s._.p.).(.XXoXXX@XxXfXbXbXbX,XdXbXbXbXnXmX",
"fXfX>XfXlXmXjXjXbXjX,X,XjXfX>XkXzX3XK.m.9.0.~.[.*X=Xt.w.w.u.*XFXJXLXKXJXFX;X}.a.s.s.d.p.~.).OX)..XXX+XgXkXjX,X,X1XbX7XbXbXbXMXNX",
"fXuX>XuXjXmXbXjX7XjX>X,XjXiX>XfXwX,XT.I.K.B.).M.OX*X/.a.p.~.*XFXLXLXGXFX;X}.[.[./.*X^.^.OX).J..X#XY.D.fXzXbX7XbXbXbXjXiXjXjXMXNX",
"D.uXfXfXfX,XfXbXjXbX,XfXMX7X:XfXbXNXjXSX+X+XXXXXXXXXoX).).).&XGXPXAX.X.X;X;X&X).+X$XXX$X$X#X#XSXfXfXD.>XjXbXdXbXjXiXiX<X<X<X,X7X",
"bXfXfX>XF.>XbXfX<X>X,XfXjXiXfXfXlXmXmXlXhX#X@X@XgXY.#X+X&X.X#XxXaXaX X.X#X#XSXD.VX8X9X5XfXD.lXAXmXjX<X,XbXbX,X<X,X>X>XF.D.jXMXjX",
"fXjXjXiX,XmXNXMXiX,XiXfXjXfXjXjXD.|.iXlXfXfXgXkX8X7XfXfXhX.XuXhXhXhX|.hXxXlXMX9XwXwXwXNXNXuXaXyXmXjX,XbXbXbXdXjXuXuXfX|.uXfXjXfX",
"jXMXbXiXjXbXbXmXjX>X:XfXjXuXyXfX X|.,XjXzXjXfXuX7XbX7XjXhX|.uXuXhXhXhXlXNXzXzX3XfXfX<XdXsXdXsXaXiXiX,X,X,XdXbXnXjXlXxXfX#XuX7XD.",
"iXMXjX<XjXfX,XjXMXiXuXjXjXyXD.uXhXfXjX8XnX7X7XuX,XbX,X5XT.#XuX|.#X|.|.nXMXnX5X#XfXjX<X,X,XdXNXdXjXuXiX,XdXwXbXbXjXlXzXhX>XuXfX>X",
",XbXjX>XbXjXfXlXlXjXfXlXlXuXpXlXmXbXwXwXnXlXaXsXdXdX7XT.I.+X|. X#XD.>XkXnXzX7XfXjXmXBXBXBXBXmXuXjXjXjXlXbXNXMXMXuXjXhXjXjXhXlXzX",
"jXbXjX,X,XjXjXiXuXiXuXuXuXuXlXAXBXdXwXwXkXjXaXsXdXdX|.T.+X#XhX:X>X:XfXjXjXnXfXjXbXAXbXdXbXbXzXD.fXfXfXmXNXNXNXbXjXjXfXjXjXzXjXjX",
"bXbXbXiX>XfXjXiXuXuXyXD.:XuXlXNXBXwX8X8X5XD.yXaXdXsXfX@X@X5X1X1X1X,XjXfXjXNXbXbXjXmXaXuXD.3XxXcXfXY.uXjXbXBXbXbXNXjX,XfXzXzXjXiX",
"jX7XjXjX>XjXAXzXlXjXyXF.F.aXlXlXtXwX8XxX@X|.aXdXdXBXlXxXT.>XtXtX1X1XBXiXiXmXbXbXpXlXhX#XXXD.8XxXfXfXfXbXbXwXwXwXbX,X<XfXMXMXBXfX"
};
