/* XPM */
static char *ZmlyZTEu[] = {
/* columns rows colors chars-per-pixel */
"64 64 256 2 ",
"   c #B90800",
".  c #AC1600",
"X  c #B31201",
"o  c #BC1401",
"O  c #B41D01",
"+  c #BB1B02",
"@  c #BA1D08",
"#  c #A40600",
"$  c #AD2708",
"%  c #B82704",
"&  c #BC3902",
"*  c #B13616",
"=  c #AD2F12",
"-  c #C30C01",
";  c #C41C02",
":  c #C61706",
">  c #D01A09",
",  c #C42303",
"<  c #C32B00",
"1  c #C92806",
"2  c #D22C08",
"3  c #C33301",
"4  c #CC3501",
"5  c #CB3B03",
"6  c #CA3A08",
"7  c #D23A00",
"8  c #D63809",
"9  c #CA2B12",
"0  c #DA2717",
"q  c #C93514",
"w  c #DA3915",
"e  c #C63521",
"r  c #D83B24",
"t  c #E63926",
"y  c #E23B0F",
"u  c #B84611",
"i  c #B4512C",
"p  c #AB6536",
"a  c #AC5F23",
"s  c #CB4905",
"d  c #D44300",
"f  c #DA4403",
"g  c #D84907",
"h  c #CA5603",
"j  c #D75607",
"k  c #D84615",
"l  c #DB5818",
"z  c #C74A12",
"x  c #E54A08",
"c  c #E4540C",
"v  c #E75708",
"b  c #E54817",
"n  c #E95716",
"m  c #F65618",
"M  c #FA530F",
"N  c #DC6502",
"B  c #D96807",
"V  c #D96718",
"C  c #D87616",
"Z  c #D06F0A",
"A  c #E76908",
"S  c #E87909",
"D  c #F57A0C",
"F  c #E86815",
"G  c #F76917",
"H  c #EA7817",
"J  c #F87A1A",
"K  c #F4670B",
"L  c #C74725",
"P  c #D65624",
"I  c #CD562F",
"U  c #E44526",
"Y  c #F35828",
"T  c #D76725",
"R  c #DA673A",
"E  c #D5702E",
"W  c #EA6B25",
"Q  c #FB6629",
"!  c #FA7925",
"~  c #FB7A33",
"^  c #EC7232",
"/  c #BA774A",
"(  c #B97347",
")  c #D57C4D",
"_  c #D5714A",
"`  c #F97A44",
"'  c #F46B4D",
"]  c #D98303",
"[  c #DA9215",
"{  c #E98706",
"}  c #F5880D",
"|  c #E99906",
" . c #E98A17",
".. c #FC8C1A",
"X. c #F98417",
"o. c #EA9B15",
"O. c #FD9B1C",
"+. c #F89517",
"@. c #FC910F",
"#. c #D8AD0E",
"$. c #FDB50C",
"%. c #F9A71B",
"&. c #FBB818",
"*. c #EAAD10",
"=. c #D88936",
"-. c #EB832E",
";. c #F98825",
":. c #FF9D2A",
">. c #FB9926",
",. c #FE8639",
"<. c #FB9836",
"1. c #E7952E",
"2. c #FDA223",
"3. c #FEA52B",
"4. c #FBB726",
"5. c #FFA634",
"6. c #FBB536",
"7. c #E9B230",
"8. c #F8D909",
"9. c #F9C817",
"0. c #F3CB0E",
"q. c #F9CB29",
"w. c #FED32B",
"e. c #FDD825",
"r. c #F8C839",
"t. c #FDD937",
"y. c #E9D02A",
"u. c #FEE72C",
"i. c #FEE837",
"p. c #FCF635",
"a. c #EFD928",
"s. c #DC8659",
"d. c #D48C50",
"f. c #FC9645",
"g. c #E68858",
"h. c #F88657",
"j. c #E99558",
"k. c #F89756",
"l. c #EF9049",
"z. c #F9AC4A",
"x. c #FEB447",
"c. c #FDA759",
"v. c #E9B85B",
"b. c #EDB650",
"n. c #D49767",
"m. c #F69A66",
"M. c #F08F68",
"N. c #D9A878",
"B. c #DCBC7D",
"V. c #D8B87B",
"C. c #DAA36A",
"Z. c #E9A56A",
"A. c #F5A86A",
"S. c #E7B767",
"D. c #F7B667",
"F. c #E7A877",
"G. c #F8AB77",
"H. c #E5B37D",
"J. c #EAB47D",
"K. c #E3BD7D",
"L. c #ECBB7C",
"P. c #E8BA74",
"I. c #F8B978",
"U. c #DEA14E",
"Y. c #E9C549",
"T. c #FCC949",
"R. c #FDD847",
"E. c #F9CB56",
"W. c #FCD857",
"Q. c #E9D155",
"!. c #FEE345",
"~. c #FFFC43",
"^. c #FFED53",
"/. c #FFEE5B",
"(. c #FEE257",
"). c #FFF355",
"_. c #FEF75C",
"`. c #EDE359",
"'. c #DAC27C",
"]. c #DBC969",
"[. c #EBC669",
"{. c #F9CB69",
"}. c #FFDB69",
"|. c #EAC37C",
" X c #E7C678",
".X c #F7C477",
"XX c #FEDC79",
"oX c #EDD662",
"OX c #FFE764",
"+X c #FEF866",
"@X c #FBE879",
"#X c #FFFC7D",
"$X c #FFF675",
"%X c #EEEA65",
"&X c #DBB682",
"*X c #D6BC83",
"=X c #DDBD84",
"-X c #DEBE89",
";X c #D5B986",
":X c #DBBC9D",
">X c #F7AD84",
",X c #E2B683",
"<X c #E3BC84",
"1X c #EBBC84",
"2X c #E3BE8A",
"3X c #EBBD8B",
"4X c #E9B485",
"5X c #F2BD8B",
"6X c #FAB987",
"7X c #E7BD94",
"8X c #FBBD92",
"9X c #E1BEA0",
"0X c #D6C184",
"qX c #DDC285",
"wX c #D5C38A",
"eX c #DDC38B",
"rX c #DDC98D",
"tX c #DACA87",
"yX c #DDC392",
"uX c #DDC991",
"iX c #DAC598",
"pX c #E2C286",
"aX c #EBC385",
"sX c #E4CA85",
"dX c #E3C38B",
"fX c #EAC38C",
"gX c #E5C98D",
"hX c #EACA8D",
"jX c #EDC983",
"kX c #F2C383",
"lX c #F2C48D",
"zX c #F9C689",
"xX c #E4C592",
"cX c #E9C691",
"vX c #EBC593",
"bX c #E5CA92",
"nX c #EACA93",
"mX c #EBCC99",
"MX c #E5C79A",
"NX c #F2C493",
"BX c #F2C994",
"VX c #F9C898",
"CX c #E9D295",
"ZX c #EFD495",
"AX c #FEE789",
"SX c #FEF886",
"DX c #FFFD9D",
"FX c #FFFE94",
"GX c #F6E791",
"HX c #E2C3A5",
"JX c #FEFAA5",
"KX c #FFFCB9",
"LX c #FFECA8",
"PX c #FFFCCA",
"IX c #FFFED6",
"UX c #FFFFE1",
/* pixels */
"pXB.V.K.=X=X=X=X2XeXdXdXdXdXdXdXcXnX;X;XeXwXCXuXgXgXdXBX<XdXeXhXCXqX=XdXdXvXcXcXxXxXMXMXuXuX:XxXdXdX-X-X2XdXcXcXeXdXhXpXqX=XqXpX",
"pX'.B.=XpXqX=XpX=X=X=X2X2X=X=X-X-XxX=XdXcXwXuXbXgXhX<XfX3XhX=XeXqXeXcXdX-X=X2X-X-XxXxXMXxXMXMXMXxXxXdXeXeXeXeXdXpXdXpXpXqXqXdXpX",
"jXpXpXpXpXhXdXpX2XdXdXxXdXhXdXcX&XvX2XxXbXrXbXdX=XfXvXNX2X=X*XeX-X2XeX-XdXmXnX-X-XxXcXfXvXmXmXxXdX2XeX2XdXxXdXeXdXdXpXeXpXeXqXpX",
"hXhXhXpXdXhXcXpX=X2X2X-XdXdXdXhX2XcXvXdXgXeXdXdX&XdXfXnX2X*X*XeXdXcXvXeX=XdXxX-X&X2XvX7X7XvXvX2XdXeXdXdXdXdXpXdXdXpXdXxXpXpXpXqX",
"pXhXhXhXdXhXcXcX-X2XdX2X<XdXdXfXfXvXmXhXhXdX2XvXcX2X2XxXcXxXdX-XxX2XyX-XeXyXdX-X*X2XvXvXvXbXbXyXcXxXdXdXdXdXpXpXeXdXhXnXcXeXqXdX",
"V.qXdXdXpXdXxXcXcXmXnXdXdXdXdXhX<XdXnX2XxXvX2XdXcX2XxXeXbXeXxXdX2XfXmX7X*X-XxXdX2XdXvXfXxXdXdXdXcXdXeX2X-XdXdXdX=XqXdXcXhXqX=XqX",
"B.B.qXgXdXdXdXdXdXcXdXeX=XdXpXpX=X<XdX=XdXNX<X2X2X-XMXeXrX*XdXvXvXNX5XN.n.n.,XfXdXeXrXgXdX2X,X3XeX-X=X=XdXdXcXbX=X=X=XdXpX=X=X=X",
"pX=X=XpXhXdXeX-XeXdXdX*X=XpXpXqX=X2XhX*XdXBX3X7XvX-XuXwXuXeXvXNXVXF.( p ( >XVX,XxXqXeXpXdX,XH.4XdXdXdXeXdXdXdXdX=X=X=XpXxXdXpXdX",
"dXeXeXpXcXnXbXbXcXdX=X=X=X=XqXpXZXnXqX*XqXdX3XfX2XMXwXwXuX2X>X8XM.e * ) >X>X5XvXfXZX2X<X<Xp n.3XfXcXcX=X=XdXpXqXqXdXdXcXbXdXdXxX",
"dXdXdXbXnXmXbXdXbXcXdX-X-X=XqXqXcXZXCXqXeXcX7X,XxXCXCXuXxX4X>X>Xt   i ' 8X6X4X&XqXdXfX3X&Xa / 1XpXdXdXqX=XdXgXdXdXpXdXdXeXdXeXdX",
"qXdXdXcXmXmXnXvXmXbXxXdXeX=X=XpXqXgXuXrXdXcXNXNXBXdXwXqX2XJ.) ' > - e ' >X>X-XyXgX0XhX<XH.( / J.aX=XeX=XeXdXdXcXcXgXdXeXdXdXdX-X",
"dXdXeXdXhXcXnXxXdXdXeXdX<XqXdXpXqXV.0X0X-X=X3XNX7X-XhXnX5XG._ L     @ e ) 8XVX-XtX0XqX=XpXH.C.4XfXdXdXdXdXpXgXhXcXgXdXdXdXdXdXdX",
"dXdXxXcXvXxXeXeXdXdX-XeXeXeXpXhXaXqX*X'.;X&X;Xn.,X<XnXaXF.) q + @ @ @ # = I ' 8XlXZXeX*XdXfX6X3XhXhXqXhXdXdXdXcXdXhXxXdXxXdXdXeX",
"=XeXbXcXbXvXxXeXxXeX=XqXpXpXpXeXhXpXwX=X;X2XN.p H.lXfX1Xj.L %   : @   @ @ @ = i g.J.5X7XlX1X5X3XfXpX=XqXdXdXdXhXpXdXdXxXdX-X-X=X",
"*XeXeXbXbXbXnXbXxX-X=XeXgXhXeXqXpX<XeXeXdXVX4X) / H.L.J.d.$ - > -     @ o     9 O L ' M.>X4X2XdXpX=XB.=XqXpXeX=XeXdXdXdX-X*X=X-X",
"cXcXdXeXdXdXxXxXeX*X*XeXcXhXqXB.fXB.rXnXfX7X7X&Xd.lX1XzXG.L ; > : > @ > 0 0 > - : o = = i s.F.1X5X1XK.,X=XeX=X=XdXxXdXdX2X-XeXxX",
"nXhXqX=XdXmXnXdXdXdXdX=XdXdXpXpXdXhXeXbXCX-X<XNXNXvXBXpXzXm.* q , > : : 0 t t   - 9 X @ % = L h.6XG.s.d.N.wXCXuXdXfXpX<XdXxXgXMX",
"dXpXdXdXdXdXdXpXeXdX=XpXxXhXdXdXCX*XhXdXdXeX2XmXvXnXeXrXfX1Xm.R q 1 2 >   - 0 t   : @ X : @ 0 * ' E p F.dXcXV.eXfXfXdX<XxXdXeXgX",
"dXdXhXdXdX=X<X=XpXpXpXdXhXhXdXpXgXtXzXH.&X4XVX2XxXmXrXrX0XpXVXG.R 9 9 2 > 2 2 1 > + ; @ + ; U 1 q * ) F.fX2X&XdXxXvXdXdXbXdXyXxX",
"dXdXdXdXdXpX=X=XnXcX<X=XdXdXdXdX'.ZXfXJ.C.d.VX3X=XnXbXeXpXqX1X6Xh.w 2 1 ; w w 2 2 + X , X ; t t % q A.4X1X&X,X7XdXhXdXdXrXeXxXvX",
"dXpXqX<XdXdXcXcXhXdXdX=XpXpXeXpXK.aXK.aX>Xp s.>X3XvXeX*X<X<X1X6Xh.w & % < b b 8 8 w O + o , w 2 ; % d.6X1X3XN.3XxXdXdXeXeXeXxXBX",
"dXdXeX=XdXhXnXhX=X2X=X=XdXdX=X<X|.V.V.1X6X) i ( M.>X3XaXK.I.zXM.P @ O 4 g n 7 7 7 Y w X O 1 r 1 ; O I j.6X3XV.hXdXdX<XqXeXwX2XvX",
"hXdXpX2XdXhXdXpX=XpXdX=XdX2XqXdXqXB.aX4XNX4X( * * _ M.I.I.G.h.L 6 % 3 g l f f c f Q 8 X X + U 2 ; + L _ J.<XcXbX2X2XeXdXdX-X-XvX",
"&X=X=XdXdXdXdXqXdXhXdXdXdXpXpXdXwXbXfXlXdXvX7X) $ $ u u g.m.P k % 6 k b c c g b Q Y , , o + q 9 X O % R Z.fXeXeXV.=XqXpXxX2X;XxX",
"dXhXdX=X2XdXpXdXdX=XdXnXhX-X=XeXuXbXbXvXmXpXK.I.R $ P ` z & b Y , 8 n n n j m ~ Q 2 2 w @ . O q + X 6 R Z.<XgX0XdX&XV.qXxXdXdXvX",
"dXdXdXpXqXdXdXpXdXdXhXcXdXdX=XdXuXMXvXvXbXbXhX6X` q X ` k.g d n y + x Q n G ,.v 4 # U U # r @ O , + z R C.=XhXmXvXxX=XdXdXdX-X-X",
"=XdXhXdXpXdXdXpXqX<XdXdXdXpX=XeXyX;X4X7XqX0XhXzX` w # Q c.^ + m Y 1 7 n G ! ! 3 % 1 > ' r X q 9 2 4 I d.F.1X2XfXdXeXeXeXbXbXcX3X",
"B.dXnXcXdXdXdXdX=X=XpXdXdXdX<X2X-X;X4X3XpXaX|.Z.I 6 s ~ f.,.O v m g < K J J 5 & 5 8 X w ' r 9 q 2 b l.I.6XlX<X&X-XeXdXeXrXbXvX3X",
"=X<XcXnXdXpXpX<XqX2XdXdXdXdXdXhX=X2XfX<XkXzXA.T z s s A.,.j 7 m g d g J D H j s d 4 8 X t ' U 8 b Q j.I.L.aXfX<XdXdXxXdXeXbXdX&X",
"=X=XpXdXdXpXdX=XqX=X=XpXpXdXpXdX,X4XaXlXI.m.^ L 6 3 s k.W & v v g j J X.} } X.A d b U 2 X 3 b n m ` k.I.P.aXcX2X*XeXdXeXuXbXcX2X",
"=X=X<X-XdXhXdXqX2XpXqX<X<XpX2X<XaXK.P.D.k.P k b % g ~ Q n f f f A X.>.} O.} ..;.n g b b 2 ; o 3 s ^ -.6XL.sXeXeX&X&X-XdXcXmXmXnX",
"=X=X=X<XdXnXmXhXaXpXpX2XdXaXaXL.I.D.d.I P k 4 1 g h.k.5 f d f F <.5.2.| %.o.+.5.J x m y 8 1 4 & % z V G.L.pXrXrXxX2XdXxXhXcXeXdX",
"dX<X,XfXnXgXeXhX.X|.L.1XkXzXD.U.l.E l g 7 x K ;.,.,.h u j j ;.5.6.2.o.*.#.&.4.6.X.v n b w 2 2 , 7 7 6 ^ G..XgXCXcXdXvXvXxXdXuXCX",
"pX<X3X3XdXbXMXnX[.[.jXlXkXI.l.E V h v f K J O.;.v 5 u V C <.{.}.T.T.T.T.x.W.T.>.B F v y 2 2 y b Q 7 6 W m.A.K.=XxXxX7XvX-X*XwXrX",
"pXfXlXpX=XdXMXhXS.[. XfX1XZ.-.V j W <.Z O.O.:.;.4 f V C 6.AXAXXXXXAX@X{.D.z.f.,.n k g 7 f 7 ; m f.s & z l.g.s.L.fX2XxXxX-XqXrXrX",
"<XhXhXdXeXeXxXpXS.S.V.<XK.j.E l g -.}.7.4.%.6.<.W s H -.XXAXLXZXd.{.D.V B g g 6 k 4 s 3 f x 2 G ,.H & j l T I G.5X2XeXdXdXdXbXrX",
" XpXxXvXbXbXmXlX X XP.K.S.d.T l g V OX(.4.*.r.6.x.Z j ^ AXLXPXKX=.T V j x 7 y f k 6 $ W ,.c x d <.5.h j c < & M.6XdXgXrX2XcXdXqX",
"pXpXdXyXeXcXfXaX|. XB. XI.U.F l n h T.+Xq.0.y.y.}.<.B C z.AXLX.Xa V V g x x M f g Q ;.k.~ 5 d j  .x.H g M 1 4 R I.dXuXuXxXvXcX-X",
"qXgXdX=X=XdXdX,XjX XB.P..Xz.W F S h r.).t.w.r.R.XXZ N ..Z +.<.V j v x v v g s K ;.<.f.F s j v F 1.6.X.x m 2 7 R Z.pXgXuXdXcXnXdX",
"V.gXgX=X-XvXvXB.hX|.S.S.D.k.-.;.S ] !.i.w.w.R.W.1.B X.D } { j c v x v A h N X.+.5...h j B h H <.>.3.D v M 8 3 R Z.K.bXrX;X=X2X=X",
"wXqX=XhXfXvX-X&XhX'.[.U.c.z.C <.9.e.u.e.e.9.q.{ S ;.! J A A n n v s s u H x.6.O.} N h N j B ..:.>...K G x 4 P d.G.=X=XtXeXwX=X=X",
"0X0X<XvXvXBXpX0XpXhXS.c.1.<.] T.~.8.i.w.$.| { @.J ! J G A j B V ;.;.z.T.E.W.6.O.+.S A A N X.3.3.:.A K ! g z =.A.6X1X=XqXeXwXqXpX",
"'.0X-X2XNXhXhX'.eXhXD.b.1.[ x./.p.p.t.%.] { } X.A F F A A { &.R.(.^.!.R.4.2.2.3.:.S N D @.:.:...S J ~ j j =.A.|.kX1X2XdXtXeXqXqX",
"0XqXdX2XvXdXtX0XxXpXS.1.[ 7.$X/.p.~.%.Z o.1.{ H H S A S %.q.i.i.e.0.*.*.$.4.4.>.H S D +.+.} } D -.H F T k.I..XlX<X<X3XcXnXeX0X'.",
"xXhXhXwXbXeXbXpX7XaXU.1.[ (.+X)._.q.o.] T.6.Z S Z  .2.q.e.e.q.y.0.0.0.0.$.&.%.} S D X.X.} ..;.;.C a E l.A.C.aX0XxX2X2X2XdXpXtXtX",
"vXcXsXtXeXyXgXcX&X1Xz.[ 6.+X)._._.*.o.%.r.4.{ S ] 6.i.e.0.0.w.q.w.q.9.$.| { { @.>.>...X.X.D N h V c.I..XI.V.CXqXbX2X3X3XfXaXsXtX",
"8XvXrXwXwXuXsXdX4XJ.b.[ r._._._.).*.] t.t.| S { R.R.i.8.8.8.e.q.4.+.{ S } O.@.O.@.X.S B j h j H l..XI..XBXpX;XwXyX-X2X8XlXaX'.'.",
"VXNXwXuXwXbXsXaXNX4Xv.b.#.)._._.^.7.#.!.t.&.{ r.OX).i.i.u.p.e.&.{ { .. .+.2.@.%.O.:.<.;.! H D H D.P.aXjXV.*X*XMXiXiX2X3X1XpX'.tX",
"K.K.pXqXbXbXcXmXvXaXS.b.7.r.`.#X$Xb.#.!.i.9.#.^.+X+X%X+X+X).i.y.| +.| o.%.O.:.O.2.2.3.<.5.<.A -.A.<XB.qXnXZXbXMXMXeX*X<X2XaXsX'.",
"B.B.=XeXxXbXbXbXdX|.S.].Y.Y.R.(.SX@X#.y.~.u.#._.#XFXDXJXFX#X%X!.o.%.%.@.%.%.O.2.| +.2.{ H H A ,.S.pX=X<XmXbXxX2X-XdXeX-X=XB.'.qX",
"=XpXpXdXdXbXMXvXdXpX|. XQ.b.Y.Y.OX$X(.#.9.p.i.W.DXPXPXPXKXFX#X%Xr.%.$.$.$.$.| &.*.$.&.{ { S  .z.P.dXqXdXMXdX-X-X-XyXdXdXpXB.<XpX",
"dXdXdXdXbXMXvXxXxXfXjX.X[.Q.E.E.Y.R.!.e.#.8.u.y.AXKXIXUXPXKXDX#X/.4.$.0.$.| #.t.t.q.&.{  .>.7.D.|.pXeXpXvXxX2XyXvXxXdXdXdXsXpX'.",
"nXcXxXxXxXxX:XyXxXdXpXaX|.[.[.E.E.t.e.u.8.8.0.y.y.GXKXPXIXPXKXDXSXR.&.&.$.*.q.^.^.t.4.O.3.z.v.[.aXpXdXdXdXdXxXvXdXdXdXeXhXpXpX'.",
"mXmXxXxX2XxXxX-X2XxXpXfXaX X X[.Q.(.t.t.u.u.u.i.y.`.@XJXKXPXPXJXSX+Xq.9.9.q.+X+XW.R.7.6.z.D.P.fXhXqXeXdX=X-X2XxXeXbXcXcXqX=XpXpX",
"vXxXdXdXeXdXxXxXxXyXyXdXpXK.V. XB.P.[.{.E.E.(.(.`.`.`.%XSXFXJXDX#X).i.y.y.!.OXW.Y.Q.b.v.S.4X7XxXpX=X-XhX-X*XdXdXdXxXcXhXpX=XqXpX",
"xX-X*X&X*X2XeXdXxXxXxXdX2XpX<XdXZXmXdXlX|. X.X{.Q.oX`.`.`.].GXGXSXQ.`.r.Y.E.Q.].[.[.[. XhX7XMXuXeXB.qXcXeX=XxXdXxXeX=X=XqXpXqXB.",
"dXhXdX=XV.B.qX=X;X-XxXxXeX-XeXcXCXMX=XdXdX,X3XvXK.hX X X].]. XtXsX'.]. X XB.<X1XL.|.pXpXbXbXbXgXdXqXqXdXdXeX=X=XeXxX-X;X=XdXqXdX",
"dXdXpX<X'.qXqXqXdXyXMXvX-X-XeXbXwXeXwXbXmXxX7X7X4XmXBXvXsX'.sXgXxXdX'.gXbX-X7X7XvXdXdXeXxXrX0XB.pXpXdXdXpX-X=XeXmXnXdX=XpXdXdXpX",
"=X=XpX'.pXhXhXpXxXxXxX-X-X-XeXeXwXrXwXeXdX=X2X2X<XhXvXmXmX2XpX X'.'. XsXpX2XxX-X<XdX7XxXxXeX0X'.qXqX<XdXeX=XqXcXhXdXxXdX-XbXcXdX",
"=X<XpXpXsXhXhXdXxXxX-XyXyXeXeXpXrXCXrX*X;X*XdXdXK.<XvXmX7X2XpXpX'. X]. XK.-XxXeXeX=XdXxXxX7XqXrXqX=X*XpXdX=XpXcXdX-XdXdX=XpXmXdX",
"hXhXgXpXpXpXdXpXvXbXMXvXxXdXpXdXB.hXMXHXHXiXbXpXdX2XxXcXdXqXB.qX*XpXaX|.,X-XiXiXuXuXxXvX7X7XyXuXhXeXqXdXhXpXpXdXdXdXdXdX=XeXcX-X",
"dXdXhXgXdXpXdXdXnXmXMXmXcXdXpXsX<XhXMXMXMXMXCXbXxXdXcXdXpXpX=X-X;XdXpXK.K.<XiXiXuXrXpX3X7X7XxXuXZXhXdXpXpXqXeXeXdXdXdX2X-XdXxXeX",
"eXdXhXdXdX-XdXMXMXxXvXvXdXpXB.pXNXfX<X=X-XeXbXxXrXgXhXpXqXrX*X:X:XMXK.L.sXpXMXuXwX'.B.|.3X3X7XMXmXgXpXB.B.=XqXqXeXdXeX*XdXdXxXdX",
"eXcXZXbX-X&X-XxXxX7X7XxXdXpXpXpXNX3XB. XdXdXMXyXbXgXhXqXqXMXyX:XHX9XB.|.jXgXuXiXtX'.'.|.fX2X7XyXhXgXpXV.V.=XdXhXcXnXdX-XdXxXeXdX"
};
