/* XPM */
static char *result[] = {
/* columns rows colors chars-per-pixel */
"64 64 21 1 ",
"  c #C39662",
". c #C49662",
"X c #C69964",
"o c #C69A64",
"O c #C49763",
"+ c #C39561",
"@ c #C69A65",
"# c #C59964",
"$ c #C59863",
"% c #C59864",
"& c #C79A65",
"* c #C49762",
"= c #C49863",
"- c #C59963",
"; c #C39562",
": c #C79B65",
"> c #C69B65",
", c #C59763",
"< c #C29461",
"1 c #C39461",
"2 c white",
/* pixels */
" ...... XoO+ .X@oo@ooXO....+ .oo#$o@oo##Xo@oXo@ooo#%$$%$+.$$+.o&",
"$$OOO$OOXXOO .#XXoXXXXOOOO.. .#X#$XXXX$$#oXXXoXXXX$$#$$$. $$**#o",
"#Xo#O=#X@X#%O=-###o#X%. ;;  $#oX##o##XXX##o##XoX##o##X$$++$##$-X",
":oo#O=XXo#X#$$-X#%@o>oO..OO.oX@o#$oo@X@o#$XX:oooX%oo:o$$+ $X%$$$",
"oX,.  *O*OooXooooooooooXXXXXOOoo.*ooOOooO.* #o##oX,OXX*O .Xo. + ",
"XXOO .OOO$XXXoXXXoXX$#$o%#X#$$XXO*XXO$X#OOOO#X$$#XOO#XOO.*XXO ; ",
"X#$O*$o#O=$O#Xo##Xo# ;.*;;..$#o###o# .X#  OO#Xo#O$o#O=##o#####X#",
"@XOOOOXX$$*OoX@o@X@o..O..OOO#%oo:o@o.*oo..*O@oo#$$X#O$XXooXX@X@o",
".O$%*.*O#X*;*Ooo.Ooo .XXXooXXX,OXo@o .oo  ..XXOO#XO #ooXoo@X..oo",
"..$$$$O=##OOO$XXOOX#; #XoX#o#XOO#oX#;.##;;.O##OO$#OOXoXXoo%#..$X",
"%%X##XX##Xo##Xo###o#; #X@XXXO=##oX$O;;OO;;OOoX$O; $##oXX#X**$$;<",
"%$oo:o@o:ooo:o@o:o@o.*##oo##O$##oXO$.OO$.OO$X#*O.*#XooX#oX,.$O++",
";Ooooo@ooo##Xo@ooo@o .*.ooO.#XO.XoooXXXo$$XoO*.+ .*.XoO; .XX. +;",
"  ###oXXXX$$XoXXXoX#. .O#X*O$#*OXX#@XoXX$$##O$O*+;.OXXO* .#XO;+;",
"++1;O$oX##o##Xo###$=o#.     ;; *oXXo@#$O; . O==O;; *oXX#%#oX#$1<",
"<++.OOXoX%oo:o@o:oO$X#* ;.O..O* XoXXoXO$..* .OO=..* ##Xo@X@oX$ ;",
"1.$$*.*OXX,OXo@ooooX...+ .XoXX* X@oXoooX*....*Xo*..+ .*O*Ooo#=$%",
"  $$$$OOXXOOXoXXXoX#  .OO$%o##*O#ooXXo#XO$OOO$XX$$.. ..OO$XX#$$O",
"++$##XX##Xo##Xo##Xo#OO##oX$O;; *#oXX#oX#  OO;.XXo#..X#. ;.X###+<",
";.$X@o@o:o@o:ooo:o@oO=##oX*O.OOOXoooooo#.OO$..XooX* ##* .O#X:o*.",
"Xooooo@ooo@ooo##oo@oO.O.Xo* #XoXOOXoo@oXXooX. *OXo*+... #XO #ooo",
"#XX##oXXXoXXXX$$XoX#OO.O$#OO#X#o$$%@ooXXoo#o...O##O* ..O##O*#oXX",
"OO. O$o##Xo###-#XXo# ;  ; $##XXXoXXXXoXXoXXoo#.*oX##o#####* #XoX",
"O$*;.Ooo:o@o:o$#@Xoo.O* .OXo@oX#oXXo@@ooooXoo#*.#XXoooXXoo$.@ooo",
"XX*+ *oooo@ooo#$.O$##X*O#oooooO ..XooooooooX* ....Xoo@oXX@o#XX,O",
"##OOO$XX#oXXXX$O..$$XXOO%##ooXO.+ $oXX#@X#%#  OO  $@ooXXXoX#$#OO",
"O==O#Xo#O$o#X#++$%X###$OO=#o>X. +;.* .#o@#*.+ X#OO#XXoXX#oXX ;. ",
"OO*$@oo#$$@o@# ;$$oo:oO$O$XXo#*  .*;;.#XoX*  .X#O=#X@oooooo#.OO.",
"  .OXX,O#o@oO.;;;.$###ooXoooO... ..+..O,Xo*+  .;  *OXooooooXXooX",
"+ OO#XOO#oXXO$. ..,=#$XX#oX#O$OO;;.OO$OO$#*. ..O .*O%#%oooX#oo%o",
"+;%#oX#%O$o#O==O#$++$##$O$$O;.X#;;$# ;. ;;  $#X#%%$OOO.OoX#XXX*.",
".OXXo#X$OOX#OOO$@#..#%#-OO*O..XX.OX#.O* ;.*.oooo:oO$O$OOXoXXoo$ ",
"XXOO..*O  *O.*XoO..OXooo. .;..*O$$oo#X*.  .*%$OOXoooXXXXo@oXX@o#",
"#XOO .OO .OO$$XX$$OO$XX$;;.OO$O=#$XX#XOO .OO#$OO#oXX$#%oXXX#XoXX",
"#X* .$X#$%o###-###$O;;. + ###Xo###$OOO. .O=O##$OO$$O; #X..#XXoXX",
"@oO O$ooX%@o:o#X@o==..* .Ooo:o@o>oO$OO* O$O$@o*OOOO$.OXX*OXXooo#",
"oX*.$$oooooo#%oooooX  ..$$oo##oooXXX*..;$ooooX*+  #oXXooXooXXooX",
"X#OO#%XX#oXX#$XXXoX#..O=#%XX$$XX#X#XOO.*#oXX$#.. .$@XX#o#ooXXoo#",
"@Xo##Xo#O$$O#Xo##Xo###X##Xo#O$oooXX# ;  #Xo# ; .X#Xo@XXXXoXX#oXX",
"o#XX:oo#$$O$@ooo:o@o@X@o:XX#O=ooooX#..* XXoo..* #XXXooXXo@ooooX#",
"... #X,O#XXX#$##oo@oOOoo#$O; .Xoo@oX...;*OoX. .+ *oXX@oXXooXO*O ",
"  .*#XO=###o#$$$XoXX$$XX#$O*+ $oooXX$$OO*O$#. .* .#XooX#oX#X$$OO",
"o#. #Xo###XX##$###-###o###=O+;#o@XXX#X## ;.OX#..X##X@XXX@XX#O$X#",
"o#* XX@o@X###$$$$$$#$$@o:o*O.OXooXXXo@o#..OOXXOOXXXXo#Xo@o#$OOoo",
". ..*OooO*O #X ;;.$$ OoooX* #o@X**XXX@oX .XXoooXXXOO*OooooO .*oo",
";.OOO$XXO$OO#X. ..OO. #XX#.O#X#X  #XXoo#  $@oX#o#XOOOO%o##***$XX",
".O=OO$o#O==O##$##$+<<;$##$.  .##; #X#oX#;;#o@XX#O$o#; #X.;  ; OO",
"O$OOO$ooOOO$@o$#%O++<;$X#$* .OX#.OXo@ooX*OXXooX$$$X#.*#$.O*  .O$",
"XX*. .oo**Xo#$$$  ++1.$#XX* #oo# .XoooooXooXoo,OXXO; .*.#X*+ .#o",
"$#OO;.##$%XX#$$$* ; ..$$##.O#XX#..$oXX#oXXX#XXOO$#..  .O$#OO .$X",
"; =O+;#XoX$O##$#%$$#%$X#OO.  .#Xo#.OoX$O..##..## ;  .O. ;.X##$. ",
".OO$.OXoo#*O@o#X#%$XX%@oOO* .OXoo#O*XX*O.OXX*O#$..*;.OO.;.#X@#*;",
"XooXXooooo* #ooo#=$#XoooO.. #ooX*.XoXX. #oooXoO ...+ *XX*.* **.+",
"XX%ooo#oooOO#oXX#$$$#XX-O,OO$#%#..#XX#.O#X%ooX**O$OOO$XX$$OO*O.*",
"  .O#oXXXXX###-###o#OO. ; OOOO*..O$O#%.*o#*OoX. O==O##-##XX#;;  ",
".OOOoooo@oX#@o#X%$@oOO* .OO,OO*;.O*$@oO*XX* ##* O$O$@o$X@ooo.O*;",
"XXooooooooO #ooo.Ooo. . #oXo*..+ ..OXooooX*+. .O#ooooo###$###X*+",
"###@XX#@ooOO#oXXO*X#  .O$#X#O$OOO$OOXoX###O* .OO#oXXXo%$#$$$XXOO",
"O=#ooXXX#oX###$O##$O*O. ; $OO$X##XX##%.*oX##o#$OO$o#XXo##XX##XX#",
"O$##ooXo@ooo@#O$o#OOO$O..O*OO$@o@X@o:XO.XXXXo#*OO$oo@X@o:o@o:ooo",
"XXO.XooooooXOOXX* .O#XoXXX* %o@oOOoo#%oX..*O. .O#o#$.Ooooo@ooX,O",
"##*O%##oXX#XO$#$..O=##%o##OO$oX#$$XX#$X#..OO .OOXo$$..#X####XXOO",
"#%. %#$$oX$OOO..$%$O##*.O=##OO..##-###o###o###o###-#%$-$;;+;#Xo#",
":XO.oX*$o#*OO=*.oX*$&XO *$X#O=*.oo$X#$oo:o@o:o@o:o$X#$$$+++.@o@o"
};
