/* XPM */
static char *result[] = {
/* columns rows colors chars-per-pixel */
"64 64 245 2 ",
"   c #080503",
".  c #140D08",
"X  c #16110C",
"o  c #1B140B",
"O  c #1C1512",
"+  c #191614",
"@  c #241D1A",
"#  c #251B14",
"$  c #23190D",
"%  c #2A231C",
"&  c #282218",
"*  c #34271B",
"=  c #2B2522",
"-  c #2C2A24",
";  c #292928",
":  c #332B24",
">  c #332D2A",
",  c #382C23",
"<  c #35312C",
"1  c #3B342B",
"2  c #3D3429",
"3  c #3B3532",
"4  c #3C3934",
"5  c #383838",
"6  c #2F2D32",
"7  c #1E2022",
"8  c #462818",
"9  c #44362A",
"0  c #443C34",
"q  c #4B3D33",
"w  c #433E3B",
"e  c #473C37",
"r  c #563E35",
"t  c #4F3425",
"y  c #643C28",
"u  c #3D423C",
"i  c #4B4236",
"p  c #44413C",
"a  c #4B433C",
"s  c #48463B",
"d  c #52453C",
"f  c #534A3D",
"g  c #584636",
"h  c #5F503D",
"j  c #664A3A",
"k  c #7D533A",
"l  c #704934",
"z  c #4B4543",
"x  c #4D4943",
"c  c #494846",
"v  c #534C44",
"b  c #5A4D44",
"n  c #534D4A",
"m  c #534945",
"M  c #5B5144",
"N  c #56524C",
"B  c #5C534C",
"V  c #565044",
"C  c #545352",
"Z  c #5B5552",
"A  c #5D5955",
"S  c #5D5B5B",
"D  c #565759",
"F  c #4F4E51",
"G  c #63554C",
"H  c #635A4D",
"J  c #6C5B4C",
"K  c #685545",
"L  c #775948",
"P  c #625652",
"I  c #645B54",
"U  c #6A5C54",
"Y  c #625D5B",
"T  c #685F58",
"R  c #765C53",
"E  c #684D42",
"W  c #5F605C",
"Q  c #76624D",
"!  c #6C6255",
"~  c #64615D",
"^  c #6C645C",
"/  c #6A675B",
"(  c #73645B",
")  c #746A5C",
"_  c #786557",
"`  c #746B56",
"'  c #5A5C62",
"]  c #635E62",
"[  c #656362",
"{  c #6B6563",
"}  c #6D6A64",
"|  c #6D6C6B",
" . c #68666C",
".. c #746B64",
"X. c #7B6D64",
"o. c #736D6B",
"O. c #776B68",
"+. c #7C7265",
"@. c #75726C",
"#. c #7B736C",
"$. c #7A766B",
"%. c #747373",
"&. c #7B7572",
"*. c #7D7A74",
"=. c #747679",
"-. c #7D7B7B",
";. c #79777B",
":. c #706D73",
">. c #86583A",
",. c #854734",
"<. c #875A47",
"1. c #885D52",
"2. c #89654C",
"3. c #92684D",
"4. c #846C5B",
"5. c #896956",
"6. c #946B57",
"7. c #89735C",
"8. c #96745B",
"9. c #836E66",
"0. c #8C7364",
"q. c #83756C",
"w. c #847A6D",
"e. c #8C7B6D",
"r. c #877466",
"t. c #9A7663",
"y. c #937D6C",
"u. c #9B7D6A",
"i. c #957864",
"p. c #837B74",
"a. c #8B7C73",
"s. c #837D7A",
"d. c #867975",
"f. c #977E72",
"g. c #916F66",
"h. c #A37E67",
"j. c #A57358",
"k. c #7D827B",
"l. c #8B816D",
"z. c #98836C",
"x. c #868175",
"c. c #8C8175",
"v. c #85827D",
"b. c #8B837C",
"n. c #8B887D",
"m. c #948374",
"M. c #9B8374",
"N. c #93847B",
"B. c #9A857B",
"V. c #94897D",
"C. c #9B8B7C",
"Z. c #998976",
"A. c #A6856B",
"S. c #A18572",
"D. c #A38B7C",
"F. c #A98A77",
"G. c #A8927C",
"H. c #B49079",
"J. c #7D7D82",
"K. c #787C84",
"L. c #847E82",
"P. c #7D8388",
"I. c #848383",
"U. c #8B8583",
"Y. c #8C8A85",
"T. c #83848A",
"R. c #8C8B8B",
"E. c #878888",
"W. c #928583",
"Q. c #938B83",
"!. c #9B8C83",
"~. c #938D8B",
"^. c #9C8E8B",
"/. c #9B8681",
"(. c #9C9285",
"). c #95928D",
"_. c #9C938C",
"`. c #99968A",
"'. c #8C8D93",
"]. c #848994",
"[. c #938E93",
"{. c #8E9193",
"}. c #8D939B",
"|. c #949393",
" X c #9A9593",
".X c #9C9A94",
"XX c #95949A",
"oX c #9C9B9B",
"OX c #97989B",
"+X c #8E9088",
"@X c #A38E82",
"#X c #A88E85",
"$X c #A49284",
"%X c #AB9484",
"&X c #A4948B",
"*X c #A39A8D",
"=X c #AB9A8D",
"-X c #AA9788",
";X c #B39A88",
":X c #A39693",
">X c #A49B94",
",X c #AA9D94",
"<X c #A39D9A",
"1X c #AA9B97",
"2X c #B49D95",
"3X c #B08F80",
"4X c #9DA09B",
"5X c #B4A28D",
"6X c #A4A29C",
"7X c #ACA49C",
"8X c #ABA498",
"9X c #B4A597",
"0X c #B3A88F",
"qX c #9C9CA2",
"wX c #969AA5",
"eX c #8E93A1",
"rX c #A39FA2",
"tX c #A39EA8",
"yX c #9DA3AC",
"uX c #9EA2A5",
"iX c #A4A3A3",
"pX c #ABA5A3",
"aX c #ACA9A4",
"sX c #A3A4AB",
"dX c #AAA6AA",
"fX c #ABABAB",
"gX c #A6A9AA",
"hX c #B3AAA4",
"jX c #B2ADAB",
"kX c #B9ABA6",
"lX c #B8B1AA",
"zX c #ABACB2",
"xX c #A5A8B4",
"cX c #ACB4B8",
"vX c #B4B3B4",
"bX c #BBB5B3",
"nX c #B7B7BB",
"mX c #AFAFB0",
"MX c #C2B5AF",
"NX c #BFC0BA",
"BX c #C7C2BC",
"VX c #B9BDC3",
"CX c #C4BEC0",
"ZX c #BCC3C9",
"AX c #C5C7C9",
/* pixels */
"O + o v ^ %.T.'.o.9 @ Z 7X XgX XR...q 1 3 < -.aXpX X3 @..XY.).T.~ w.V.x.b.x K I ..+.I v S S N w F W [ [ F v N z f i q 1 - ; < % ",
" .'.=.c 0 @ 0 G i O   k.gXiXoXiXzX~.p.B % X . p o.n.4 @.<X|.iXI.+.w.`.Q.C.v +.y.f a ..S v ..U...5 } 4 ~ N Z ~ ~ @.( H z 4 < < 6 ",
"K.P.yXzX;.3 . $ O   ; ).iXXX|.E.XX~.).p.A z 0 * O > > z ~ } |.I.T.).!.n.C.q m f a ! d.s.a.c.Q.s.u A ~ Y { T $.v.R.c.X.A C x x 6 ",
":.K.].qXsXqX4 = ! % S  XoXxX}.v.{.qX[.n.$.z s. Xv.p C * . & v Q.wX|.n.).e.9 @ s d.U.$.p.W.e.q.p.Y p U.I I p.p.~.E.). X*.A N F 5 ",
"P.].}.eXXXOXR.< q Z Y.*.Y.gXwXT.gXsXT.~.`.S E.4X4X*.Y N > @ # 9 ! +Xn.e.e.d =._ s.oXp.W.,Xr.q.p.~ 0 @.^ v q.#.Y.'.T.U.@...A } F ",
"].P.].;.'.zXnXk.. v !.w..XcXsX'.[.'.T.rX~.~ ;.|.oX|.Y.R.} n 4 3 9 - V 9 q !.>X!.Q.rX<XdX!.c.~.b.<X..v I B ! *.-.[.P.'.b.@.~ | / ",
"].K.}.sXwXyXsXzX& Y ~.n.[.T.oXOXXXqXOXR.s.&.U.|.oX[.qX|.oXv.^ {  .D I ! x a.y.W.Q.W.b. X,Xx. X!.).b.> a N.#.p.J.R.P.T.s.+.} $...",
"'.wXxXyXqXeX'.^.p I.<XR.L.=.aX XXXqX{.'.U.) 6Xs.I.|.|.'.E.~.b.f Z p.d.N.S _ 2.0.W.b.m.#.6X:XW.!.>Xn.< n *XV.b.;.=.P.J.I.x.w.+.$.",
"wXeXwXyX`.v.} %.n |.uX$.=.J.XX<XzXiX'.qX[ 5 <X*.%.k.~. Xv.N._.f > +.+XJ U h 8.-.W.a.V.p.).pX~.U._.U.a q.b.c.p.[ :.@.P.].~.U.*.x.",
"eXeX].T.T.U.*.+.w R.Y.p.U.I.-.W.4XR.~.v.@ w <XR.-.x.v.s.$.J V.~   & b.D.( & n.N.q.X.!.^.1XpX).p.$.~.^ s.Q.Q.v.:.=.K.P.K.-.*.s.#.",
"wX}.}.J.;.E.Q.! % |.iX)..XT.~.B Y { ^.Z * - n Y.#.p.H $.V.Q J m  .~ N ..q   E.iXe.K Q.>X,X_.n.*.p.o.a c.~.).Y.L.J.T.T.@.%.I.p.#.",
"eXeX].'.U./ q , > C } Y.-.v.Y...P b > w } @.D @.s.n.H f ` i % X.bXVXvXq.<   N <Xb.+.l.E K q.#...b.T , C.n.<X!.*.*.;.K.S ~ -.#.{ ",
"P.T.T.&.v & #.W...0 $ B } B M f 0 % & 4 ^ W.bXn O w B & o O $ ..hXfX1XbXzX Xb J *.w.4.4.Q w.) a.Q.% * r.`.`.c.) ! ;.=.| =.J.b.$.",
"S } v.f . d.aXaXhXc.G 3 * : 1 $ # n w b U !./.>Xs - # = < 0 p 9.&XD.f.jXVXpX>X! Y.C.z.m.i 0 A h a % # 9 V J H ` H %.[ o.'.T.~.p.",
"+ @ O $ @.dXoX6XiX_.*X_.I 0 Y n B m A 1X=Xy.@XN._.v d z < a a /.t.0.#X/.1XsXuXq / X.g 9 O . o $ = n $ $ * * 8 M ! p.~ =.-.v.Y.x.",
"2 * < n OX'.|.qX7X-XC.7X9Xm.B s a p s.hX$Xy.M.7.B._.v d m U._.Q t.M.f.u.pXcXpXM 9 a M ^ Y A ~ U.U.T.{ z a * * i h g g &.U.w. Xq.",
": 2 e @.Y.~.~.).iX7X&X,X7X7Xa.B i ] :Xm.C.M.6.S.!.1X! A U 5.4._ ^.M.q.f.W.dX6X& ^ &X:X6X_.V._.rXxXiX XqXR.K $ & % i G g K ) R F ",
": i { oX<Xb.n.V.).>X*X9X,X7XbX<X..o.!.M./.2X&X>XaX>X/ M _ ^.5.L X.:X#XS.9.M.7X8 Y dXoX>XpX<XZ.6X:X`.<XdXQ._ O   q N.>X) 9 o % u ",
"q B  X|..X!.(._.6XR. X7X7XvXnXnX~.= ) 1XW.=XkXrXqXvXe.h D.-Xt.>.y G #XD.%X-X-Xb c aX,X=X2X7X,XU.W.&X^. XQ.O.3 6 q K ! g % 7 > u ",
"d { gXiX6X7X<XpX[.L.dXfXoXiXqXjXmX~ @ ..,X#X1XsXsXfXK ) 7.f.F.3.1.e.&X#X:X=X;Xr.6 rX,X7X,X3X XR.eXQ.rX X_.p.z Y N I ! w. XrX{ c ",
"r m rXcXfX X>XrX$.P.OXqX+X/ &.vXnX:X@ X , h ).cXOX<XB J 6.h.h.F.M.D.pXbXV.a.-XC.@ oXpXcX>X;XiXR.T..X[.)..X#.3 F ;.fXjXbXAXvX XZ ",
"w.m =.wX}.|.*.I.Y.Y.R.iXOX.X6XOX[.T # c = < 3 -. XW.d L 6.8.F.;XA.t.D.&XG.i.>XlXX D AXkXMXMXMXlXvX7X:X>X9X~ ..|.kXmX7X7XVXcXoX_ ",
"!.@.C xXqX{.;.k. XOXXX X6X&.w :.zX8X{ L.&.s.N s s 4 , S.G.A.;X2XF.t.A.f.h.t.B.kXx   B g g r.D.b.} U e.B.!.e W.lXhX7X<XhXbXbX6XL.",
"[.Y.< %.qXJ.R.R.wXfX.Xw.v O S <XxXrXU.zXfX7X#.J X.# 3 t.i.A.G.M.2XF.u.M.B.G.A.e.I ! G ~ z   o @ + N a a * b 1X6XfXjXC.C.*Xe.#.d.",
").z O < =.'.R.<X~.~ w ! B U.mXwXiX( U.oXqXoXf.#.*X! T u.6.h.%X:X(.A.A.M.u.A.A.B i q.w.#.} ' o.J.P.[ %. X> Y bXnX7XZ.B.>Xy.+.n.^ ",
"a % d 9 1 4 4 ; @ X q W.p.p w o.v D qXR.T.~.A.m.nXa.B H.H.A.zXoXiXf.%Xh.A.A.F.q : f x | :XfXsX#X@XbX@.~ f *.bXjXa.z.(.Z.e.Y.e.^ ",
"3 a.X.G d p > > Z a K C.v.3 0 0 a | fXoXv.Q.$X@XnXpXN D.;XMXAXiXvXqX-XH.F.A.2XG < ( ~.pX7XV.vXg.L =XpXM 9 $.MX6XM.y.5.e.7XB...H ",
"L.qXXX[.OX#.m P ~ ^ H #.s.&.O.( &.J.iXcXpXV.a.A.B.W.B B h #.w.v.v.-.G M.t.f.jXU -.c./.f.=Xu.D.l 1.@XiXU.B s.pX6Xy.2.3.`.hXb.} X.",
"eX].].yXeXOXN d ~.[.&.A p.v.&.~.U.].sXcXcXc.#X7.e._ ( v 4 2 1 w n @., d t 2 N $.)._.( l 2X6.3.<.<.:XsXI.b ~.:Xz.z.H.z.*.aXd.#.q.",
"L.'.wXeXwXJ.Y B iX).&.s.U.Y.R.|.|.R.k.R.^.1XCXbXkX5X%XiX$.~ } ^ *.oX$.M m 9 a { <XpX,Xt.3Xh.<.,.<.#XwX~.) `.!.t.H.>XZ.+.*XB.B.Z.",
"eXL.wXqX'.XX:.s.dXuXA S R.uX|.wX'.U.s.q.4.C.ZXzXsXkXu.MXV.} $.X.#.U..XA N m b v.fX~.!.F.u.H.1.<.2.$XoXoXp.*X;XH.H.5XG.7.>X:XM.z.",
"xXyX}.'.XXvX .s.XXrXB i  XuXsXuXqXqXoXc.4.V.7XN.a.a.y.9X>X~ } ~ $.p.I.@.H [ =..XfXoXm.F.2.t.3.6.t.*XfX6Xv.bX0X5XG.A.8.D.pX(.y.l.",
"].wX'.XXwXqX@.p.R.n.B Y R.iXsXyXcXOX`.hXQ.Z.-XM.).^.c.r.-XN T M ^ b.p.} v N @.6XaXvXpXZ.>.3.F.6.k D.zXpX..7XbX9X;XA.H.C.6XC.@X*X",
"J.T.&.U.OX{ ..Q.~.W.N p.~.wX'.T.I.+.-X7X_.m.,XG.h.y.m.$Xm.B ! G X.).Q.! V B Y ~.iX>X&Xj.u.6.h.h.,.3.jXiXQ.,XhX9X0X;X0X*X6XQ.(.z.",
"T.[.~.<XY.s.v I V.b.^ *.v.{.XXR.v.D.MXiX!.N.&XG.H.i.0.z.-XG b G p.R.v.~.@.e ..n.oX@XM.L <.S.A.6.3.6. X|.Q.%X-X5XkXkXG.F.:X:Xm.e.",
"XXOXE.E.~.dX4 V ! T q &.U.P.'.OXoX0X9XdX.X$XD.z.z.5.L 2.M.! i ) n.6XiX<Xp.^ @.x.#.M.D.K t.F.S.F.t.G. X6X..D.9X&X5X8X;Xz.aX&Xf.y.",
"wXR.T.K.*.Y X { !.c.& s L.~.T.'.).*XG.>XX.! 4.q.*X>X1XQ.Q.#.1 s.[.sXAX+X} ~ p.).j M.lXi.u.t.#XA.h.t.2XCXc b kX9XZ.N.G.G.$Xa.9.e.",
"[.%.S -.b z @ 1 ~.p.# > T.%..XR.qXpX=XJ ( X.0._.nXaXoXiXiX^.@ ..|.rXzXiX.Xz `.).5.f.#X6.S.A.S.3.5.6.R y.6   @.8X8.>X:XD.u././.f.",
"Y } N > * a e < { 1 . 4 gXY [ U.|.'.+XM.!.V.y.N.'._.f.>X X_.1 9 n.R.T.6X6X= ~.!.m.B.B.y.t.F.8.j.2.h.>.y w   + s.z.(..X*X(.>X>Xe.",
"4 < : < < n [ c o 3 z v s.iX[ * a G v.7X1XdXm.@XrXoXhXvXfX_.p 4 i p.$.n.> : v.).6XB._.g.r.t.2.6.>.6.>.<.N 5 X + i 0 d f p w U X.",
"n v 0 2 I O.T O.B { &.{ } *.~.F q e Z iXrX..f N %.o.Z ..@.N Y &.3 & 1 w > 4 s.U.hXoX7.k 6.f.2.6.k 3.6.5.c [ C C p - o 7 X + = = ",
"d G 0 { .XlX<XpX_.#.;.&.Z B Z &.o.4 1 n B 2 : z w e a > 4 z U.vX#.a < 4 ..e ( |.aX7X0.0.L t.t.5.<.L g.4.c S ;.yXR.+.e Y -.w o.I.",
"q q o.rXuXfXbXjX~.v.|.s.I n T ^ o.N n %.`.G d J ) m.( a N A #.MX7X..x N &Xp.G <Xn.m.0.=Xl k f.m.M.g P 4.v =.}.yXOXe.U C 4 p = D ",
"2 Y cXsXU.~.>X_..X<X|.>X&.G I I +.Z o.iXlX).I M.M.=Xw.0 ^ S v.hXhXa.f ..&Xv.a b..X-XB.C.>.l 0.8X*Xl G ( Y P.{.R.}.p.( =. .| [ D ",
"A &. X6X~.>XaXn.~.pXv.Y...m #.} ..} .X6XjXBX} d +.#.T Z D Y n.kX7XlXg Z :X^ + B c.8XB.M.2.2.y.7XL.j I K ~.].Y.+.{.Y.$.| -.Y -.U.",
"A &.Q..X).oX`.6XpX_.#.p.$.2 p [ / ~.lXaXmXvXaXi & N Z } p.s.!.!.a.jXX.F d.X.+ > 9 H J 9 j q.a.s.q t - 2 s.-.o.r.+X{.&.) ) - X m ",
"s.b.>XjXvXfX.X6X>X`.oX6XV.v ~ o.*.~.aXfXnXnXlX*Xn { x Q.<Xa.a.M.D.>X=XO.9 G } { B < * d I } v 1 * : > 9 x.U.v.n.|.T.p.H m > % @ ",
"OXoXoXmXvXgX_.(.*X_.6XkXI.n #.*.E.fXaX7X7XAXnX8X^ x m p.).&X_ 4.&Xb.f.N.#.T o.*.} ^ ) } T.P. XU.) Y d g p.`.E.E.oXfX&.% 6 p z 5 ",
"s.U.).jXdX:XV.oXC.(.V.jXX.- |.B.+.OXiX.X^.vXvX9X!.[ A I N.q.w.7X_._.B.u.!.:XU.$.R./ &..Xa.l.qXuX|.&.3 Z {.+Xp.E.$.x > 5 D :.L.&.",
"G s.oXU.dX.X`.(.C.*XV.aX&.3 U.:X&X.X!.p.n.aXaXiXaX) 9.K b p.zXpX,Xm.N.C.>X*X<X'.P.w.V.5XA.>XgXOX~.N.Y S oXE.x.^ < 1 ~ A Z -.s.p.",
"O.k.).!.c.Q.*X>X8X8X*XbXP 0 $.I.|.'.n.a.*. XnXaXbX!._ J ! .XoX!.^.$X_.!.*XV.oXrX$.w.3.>.7.4X<XnXQ.>X Xn Y OXv.x D C v.-.OXT.=.p.",
" .OXY.6X). X6XvX9X7X8X>Xq g { %.;.qX_.OXI.~.tX<XjXU ~.m.) ).4.e.:X*X$Xy.fX<XR.~.W _ t.M..XB.(.$X/.~. X) > C s N ' N A w. XsXY.#.",
">  .=.~. XiXvX9XkXhXMX&XG p.6X~...+._ ~.qXR.oXfXw.= oX_.K K 5.,X:X!.C.B.W.8X`.R.0 ) 7XgXaXhXbXF.#X.X&X_ b C z W F v X.#.I.gXE.n.",
"I N m N c...&.X.( / &.B U @.xX.Xa.a.(.).qXoXp.b.& m R.b.) 2.^.6XhX&X!.B.R 9.v.U.X g ` 6XaX-XA.-XG.&XkXO.N A S %.C ^ `.`.+XuX{.Y.",
").m.9.3 0 9 > n ..e.q.R o.[ wX6X XoX)..XoXuX^.b o w @.s.N.z.:X).V.<XU.a.2...} C 7 x Q 2.(.z.8.Q.N._ q.Y 9.) [ o.+.!.B.Q.s.oX+Xk.",
"q.0.d.F S } U.`.a.5.7.B.R.} '.fXgXaX,XaXqXxX Xa *.o.n U.-.q.V.b.o.D K ) Q / $.N :.I.1 g R F..X}.Y.e.r.B m.9.' | w.w.b.Y.R.T.E.T.",
"4.L U N ~ p.>Xs.R j g.g.a.o.o.L.o.N v Y.mXvX@.b |.pXY v.Q.p.} U.$.N x 1 p ~ ..x -.-.A 9 , X.|.uXk.=.w #.D.J I ; A X.$.x.E.[ T A ",
"> : #.q.w.W..XE.v.@.~.y.b.n.! z * O : a c S Z n Z ).Y | *.~ o.N = p 4 = N ~ [ Y ~ #.p.=.w q U.|.@.= X a.6.6.E . % I R { P.) ! < ",
"  c 1XL.x.d.9. XQ.X.E j c.+.#.U.q a s.*.} N f I U i ~ W z w C a c S &.[ [ I.| :.C ..v.=.C , 1 C F F 4 q.5.0.G c | Z G : p , 2 > ",
"> N W._ ..R R a.E y y l N.e.V.N.U z %.-.|.~.!.W.a.G N o.| | | | } ] =.[ S ;.| @.{  .%.+.X...c < S [ 1 b K U } } I.v.aX#.a 5 5 p ",
"m | a.1.g j E L j 2.k 6.^.:X&Xe._ , p.OX:.oXxXyXs. Xs.d.Z N } C W | |  .C %.| -.{ =.[.C.B.U.W x | +.n + q q { ;.E..X XQ.Y D D 4 ",
"d ..^ R 8 t 8 * r 8 8 _ oXkXaX*Xx., W wXJ.].eXP.E.XXoX*.o.o.Z Z } -.-.I.W  .%.E.&.|.pX:X*XU.5 } ..A c   ~ %.' T.V.N.N.E.&.M p < ",
"d T n R 9.1.t 8 8 8 y r ~. X|.aX~., c }.T.'.wXR.%.=.'.OXoXU.@.N N A @.:.z @.aX7XV.$X1X X[.&.0 s.z.h - + %.$.! k.l.i.m.OXs.#.v.' ",
") ) I r 1.E 8 8 8 r R L ~.n.]. X+.% 1 :.].yXXXT.| s.XXxXuXR.|.I 0 4 v 3 w .X.XW.(.B._.~.qX} z I.0.H = 6 | $...7.V.7.Q.|.U.o.v.p."
};
