/* XPM */
static char *result[] = {
/* columns rows colors chars-per-pixel */
"64 64 198 2 ",
"   c #C39662",
".  c #C39662",
"X  c #005620",
"o  c #015B23",
"O  c #0A5D2B",
"+  c #095A27",
"@  c #165729",
"#  c #125F30",
"$  c #2C4B28",
"%  c #255229",
"&  c #3A5733",
"*  c #006226",
"=  c #026529",
"-  c #026B2B",
";  c #0B642E",
":  c #01712E",
">  c #0B6C33",
",  c #076B30",
"<  c #156433",
"1  c #176D39",
"2  c #1D6C3A",
"3  c #176836",
"4  c #047331",
"5  c #0A7336",
"6  c #067B36",
"7  c #077E39",
"8  c #0B7E3C",
"9  c #0A7738",
"0  c #12753B",
"q  c #1C723E",
"w  c #226B3E",
"e  c #20663A",
"r  c #5D4330",
"t  c #5E4838",
"y  c #4F4B30",
"u  c #654A36",
"i  c #6B4E39",
"p  c #654B37",
"a  c #6D513B",
"s  c #655A3D",
"d  c #72543E",
"f  c #5A633D",
"g  c #167D43",
"h  c #286E43",
"j  c #287446",
"k  c #34754C",
"l  c #33794D",
"z  c #3B7A53",
"x  c #306F47",
"c  c #585A43",
"v  c #695343",
"b  c #765A44",
"n  c #7B5B43",
"m  c #715A49",
"M  c #745740",
"N  c #4E7A53",
"B  c #7A6249",
"V  c #756253",
"C  c #7A6554",
"Z  c #7B685A",
"A  c #6D6845",
"S  c #7F7567",
"D  c #805F46",
"F  c #826147",
"G  c #84634A",
"H  c #89664C",
"J  c #8C694E",
"K  c #8E6C53",
"L  c #856C59",
"P  c #926E53",
"I  c #967155",
"U  c #9A7456",
"Y  c #92725A",
"T  c #9D7659",
"R  c #9D795E",
"E  c #8F6F57",
"W  c #A27A5C",
"Q  c #867568",
"!  c #9E7C63",
"~  c #8B7D72",
"^  c #A57E61",
"/  c #0A823E",
"(  c #0D8541",
")  c #0E8A44",
"_  c #118344",
"`  c #118A47",
"'  c #138D4A",
"]  c #1D884C",
"[  c #0F9249",
"{  c #099E4E",
"}  c #13944C",
"|  c #14994F",
" . c #169550",
".. c #189552",
"X. c #169C53",
"o. c #199C56",
"O. c #1B9F58",
"+. c #2B8450",
"@. c #0FAE5D",
"#. c #13A156",
"$. c #18A157",
"%. c #14A559",
"&. c #1BA35A",
"*. c #15AC5E",
"=. c #1BAA5E",
"-. c #0EB25F",
";. c #12B15F",
":. c #1CAE60",
">. c #17AF60",
",. c #0DB660",
"<. c #0EBB63",
"1. c #13B461",
"2. c #1BB161",
"3. c #12BC65",
"4. c #46855E",
"5. c #4C8462",
"6. c #4A8A64",
"7. c #5B8C6D",
"8. c #508765",
"9. c #5E8F70",
"0. c #5C9170",
"q. c #6D9A7E",
"w. c #659577",
"e. c #0AC366",
"r. c #0BC568",
"t. c #04C767",
"y. c #11C369",
"u. c #8F8176",
"i. c #94877B",
"p. c #AC8364",
"a. c #AD8669",
"s. c #AC886C",
"d. c #B38A6B",
"f. c #B88E6F",
"g. c #B18768",
"h. c #B78F71",
"j. c #BC9374",
"k. c #BF9778",
"l. c #B79072",
"z. c #C1997B",
"x. c #759D84",
"c. c #6F9D81",
"v. c #7DA38B",
"b. c #9A8D84",
"n. c #968B82",
"m. c #9E948C",
"M. c #999086",
"N. c #A1968E",
"B. c #A5998F",
"V. c #A59C94",
"C. c #A69C95",
"Z. c #86AA93",
"A. c #8BAB97",
"S. c #92B19E",
"D. c #86A28E",
"F. c #ADA39B",
"G. c #96B4A1",
"H. c #9DB9A7",
"J. c #B1A9A3",
"K. c #A4BDAD",
"L. c #BAB3AD",
"P. c #BDB6B1",
"I. c #C2BEBA",
"U. c #ACC2B4",
"Y. c #B2C7BA",
"T. c #B6C8BC",
"R. c #C6C2BD",
"E. c #BCCDC3",
"W. c #C1CFC6",
"Q. c #D2CECB",
"!. c #C1D0C6",
"~. c #C5D3CA",
"^. c #CAD7CF",
"/. c #D5D1CE",
"(. c #D3DCD6",
"). c #DCD9D7",
"_. c #D5DED8",
"`. c #DDDCD9",
"'. c #D8D6D4",
"]. c #CED9D2",
"[. c #E1DFDD",
"{. c #DAE2DD",
"}. c #D6E0DA",
"|. c #E3E1DF",
" X c #DEE5E0",
".X c #E4E5E3",
"XX c #C39662",
"oX c #C39662",
"OX c #C39662",
"+X c #C39662",
"@X c #C39662",
"#X c #C39662",
"$X c #C39662",
"%X c #C39662",
"&X c #C39662",
"*X c #C39662",
"=X c #C39662",
"-X c #C39662",
/* pixels */
"=XOX&XOX*XOX&X#X&X#X%X%X%X%X%X%XOX&XOX*XOX&XOX*XOX&XOX&X#X}.T.#XOX!.(.%X%X#X%X%X&X$X%X$X*XOX*XOX*XOX&XOX*X$X&X#X*X%X%X%X%X%X$X*X",
"OX&XOX&X$X*X$X%X%X%X#X%X%X%X%X%X&XOX%XOX&XOX&X%X*X%X&XOX&Xq.3 v.Z.q 6.!.*X%X%X%X#X%X#X*XOX&X#X%X#X&X#X%X#X%X#X%X#X%X%X%X%X%X%XOX",
"&XOX%XOX%X#X*X#X%X%X%X%X%X%X%X%X%X&X#X&XOX&XoXH.x.S.XX=XT.l - * = } _ 6.!.#XK..X&X$X%X$X%X$X&XOX&X$X*X$X&X$X&X%X&X%X%X%X%X%X%X%X",
"OX&XOX&X$X&X#X%X%X%X%X%X%X%X%X%X%X@X&X#X&XK.7.1 o > 7.w.j - / ) 6 ) ' / +.0.j c.XX*X$X*X#X*XOX&XOX&X#X%X#X%X$X%X#X%X%X%X%X%X&X#X",
"%X#X*X#X&X$X&X$X%X%X%X%X%X%X#X%X%X%X#X&XK.2 o : / / - * - / / $.| ....#._ _ ' g c.oX*X$X&X$X%X$X%X#X%X%X%X#X&X#X%X%X%X%X#X%X%X%X",
"#X&X#X%X#X%X#X&X%X%X#X%X%X%X%X%X%X%X&XT.w - : ( ] ..( / } o./ o.=.O.=.&.$.O.&...g x.%X%X$X*X#X*X#X&X#X&X$X*X#X%X%X%X#X%X%X%X%X$X",
"%X#X&X%X&X$X%X#X%X%X%X%X%X%X%X%X%X%X%XU.o 4 ` / `  .&.| | O.O.&.$.=.X.$.O.&.=.O.( 8. X%X%X#X%X$X%X#X*X#X&X%X%X%X%X%X%X%X%X%X%X&X",
"#X*X#X%X#X&X%X%X%X%X%X%X%X%X%X%X%X#X&X!.l 6 ` ( } ( =.O.$.$...O.=.e.t.*.&.O.&.$...0 9. X%X%X%X%X%X%X%X%X#X%X%X%X%X%X%X%X%X%X%X#X",
"%X%X%X$X%X%X%X#X%X%X%X%X#X%X%X%X%X%X#X&XS.* 7 ` ` ) o...o...*.=.=.*.,.<.$.*.&.O.O.` ; w. X$X%X%X%X%X%X$X%X$X%X%X%X%X%X%X#X%X%X%X",
"%X%X%X%X%X%X%X%X%X%X%X%X%X%X%X%X%X%X&X].6.= 8 ) } O...&.o.*.-.=.:.y.<.3.*.1.$.X.=. . .0 U.*X%X%X#X%X%X%X%X%X%X%X%X%X%X%X%X%X%X%X",
"%X%X%X%X%X%X%X%X%X$X%X%X$X%X%X%X%X%X#XU.o 6 6 4 X.$...&.%.e.&.=.3.;.,.<.*.:.-.&.O.&.&.' 5.x. X%X%X%X%X%X%X%X%X%X%X$X%X%X%X%X%X%X",
"%X%X%X%X%X%X%X%X%X%X%X%X%X%X%X%X%X(.7.k = / ` _ / ) $.&.%.-.e.=.*.:.;.*.,.>.#.&.O.&.:.&.) 9 w.oX%X%X%X%X%X%X%X%X%X%X%X%X%X%X%X%X",
"%X%X%X%X%X%X%X%X%X%X%X%X%X%X%X%XXX5.X o - /  ./ |  .#.e.;.;.=.:.2.1.e.1.*.<.1.,.>.@.o.$.( ` 5.XX%X%X%X%X%X%X%X%X%X%X%X%X%X$X%X%X",
"%X%X%X%X%X%X%X%X%X#X%X%X%X%X%X%X+X8.= = - 6 6 6 } O.$.%.;.;.=.;.e.3.*.=.2.=.<.,.,.&.( 6 g g !.$X%X%X%X%X%X%X%X%X%X%X%X%X%X%X%X%X",
"%X%X$X%X%X%X%X%X%X%X%X%X%X%X%X%X%X_.4.X , / ) _ / / &.%.3.;.y.=.=.;.3.<.<.3.=.,.#.o.[ ( ` h (.*X%X%X%X%X%X%X%X%X$X%X%X%X%X%X%X%X",
"%X#X&X#X%X$X%X%X%X%X%X%X$X%X%X%X%X=X!.# o ( ` ( | } O.$.&.;.;.=.3.1.;.2.1.%.&.%.@.&.` / 8 2 _.%X%X#X%X%X%X#X%X%X%X%X%X%X#X%X%X%X",
"%X%X#X%X%X%X%X%X%X%X%X%X%X%X%X%XOXS.w.+ 4 8 8 ) $.}  .$.O...;.=.<.;...*.;.&. .$.X.X.` 6 ` h (.&X%X&X#X%X#X%X%X%X%X%X%X%X%X%X%X%X",
"*X#X&X#X&X#X%X%X%X%X%X%X%X%X%X%X.Xh . * , , ( ) / ` $.o.:...=.y.<.%...$.-.=...&.#.7 )  .( w _.%X%X$X%X%X&X#X%X%X%X%X%X%X#X%X%X%X",
"$X&XOX%X#X%X%X%X$X%X%X%X%X%X%X%XXXx o = * 8 ( ` 6 ' =. .....o.$.X.| O.&.&.$.$.} &./ ) ` 4 1 (.&X#X%X#X&X#X*X%X%X%X%X%X%X%X%X%X$X",
"*XOX&XOX*X$X&X#X%X%X%X%X%X%X#X&X Xx X * 4 9 4 7 / ' / ` O.o.O.&./ O.$.=.o.o.[ } / /  . .6 l {.%X*X$X&X$X%X$X&X#X%X%X%X%X%X%X$X&X",
"OX&X#X%X$X%X#X%X%X%X%X%X%X%X%X%XoX8.* o O 5 _ ` ' /  .}  . .| } ) &.&. .$.$./ ' } } ../ ; T.#X*X$X&X#X&X$X%X$X%X%X%X#X%X%X%X%X#X",
"&X$X*XOX&X$X&X%X%X%X%X%X%X%X$X&X%X{.5.* = , 4 - 4 ` } 6 _ / / / } [ #.&.[ [ / $.&.} / = z (.*X$X%XOX*X#X&X#X&X#X%X%X%X%X#X%X%X*X",
"OX%X$X&X#X%X$X%X#X%X%X%X%X%X%X#X*X%X~.# o o * o * - / ' [ ` $.=.&.| _ X.=./ ` =.#./ / * K.=XOX&X#X&XOX%X#X%X#X&X%X%X%X%X%X%X%X$X",
"*XOX*X#X*X#X&X#X%X%X%X#X%X%X%X%X$X*X_.w.k z X o = : 9 / } / ) } ` 6 6 / [ / / } ) = * 8.(.#X&X#X*XOX&XOX&X#X*X#X%X$X%X%X%X%X#X&X",
"OX&XOX&X$X%X#X%X%X&X#X%X%X%X%X%X%X$X*X(.!.!.z * X - _ > : 6 = : - @ % - - ; 5 4 - z G.(.#X*X#X*XOX&X#X%X$X*X%X%X%X%X#X%X%X%X%X$X",
"*XOX%XOX&X#X&X$X%X#X%X%X%X%X$X%X#X*X$X*X$X*X9.* * O O - * - + o . % y + q.U.H.w z !.=X%X&X$X%X$X%X$X*XOX%X#X%X#X%X%X%X%X%X%X$X&X",
"OX&X#X*X#X*X#X%X#X&X%X%X%X%X%X%X%X$X&X$X&X$Xc.+ x A.e X . o & @ . & f 0.XX&X%X^.].%X#X%X$X%X#X&X#X*XOX&X#X*X$X%X%X%X%X%X%X%X%X#X",
"&X#X&X#X%X$X&X$X%X#X%X%X%X%X%X%X%X&X#X%X%X*X_.w.Y.&XK.k e @ s a % B A D.*X%X%X%X&X#X&X$X%X$X*X#X&X#X&X$X&X#X&X%X%X%X%X%X%X%X#X&X",
"OX%X#X*X#X&X#X&X%X%X%X%X%X%X%X#X%X#X&X$X%X#X*XXX%X$X%XXXM.y M G b p.K M.&X%X%X%X%X%X#X&X#X%X$X*XOX&X#X&X$X&X$X%X%X%X%X%X%X%X%X$X",
"*X#X%X#X%X$X%X%X%X%X%X%X%X%X%X%X%X%X$X%X#X&X#X%X$X&X#X=Xm.  d P Y j.K B.%X%X%X%X%X$X*X$X&X$X&X#X%X#X%X$X*X#X%X#X%X#X%X%X%X%X%X%X",
"#X%X#X&X#X%X%X%X%X%X%X%X%X%X%X%X%X%X%X%X&X$X&X$X%X#X&XQ.Q i M I R k.E M.%X%X%X%X#X&X%X%X#X&X#X*X#X*X#X&X$X%X%X%X%X%X%X%X%X%X%X#X",
"&X$X%X%X%X%X%X%X%X%X%X#X%X%X$X%X%X%X%X%X#X%XOX&X%X%X%XJ.u M i H p.k.E m.&X%X%X%X%X%X%X%X%X#X%X$X&X#X%X#X%X%X%X$X%X%X%X%X%X%X#X&X",
"%X%X#X%X%X%X$X%X%X%X%X%X%X%X%X%X%X#X#XoXXXS.K.XX%X%X&XJ.a n i D p.d.Y m.*X%X%X%X#X%X%X%X%X%X@X%X%X%X%X%X$X%X%X%X%X%X%X%X%X%X%XOX",
"%X%X%X%X%X%X%X%X%X%X%X%X%X%X#X%X%X^.w.H.z 1 q z T.%X%XJ.r d d F p.f.Y N.*X#X%X%X%X%X%X%X&X#X%X%X%X%X%X%X%X%X%X%X%X%X%X%X%X%X%X%X",
"%X%X%X%X%X%X%X%X%X%X#X%X%X%X%X%X^.z + 1 : ) 8 : l _.&XP.a d d P p.j.I m.*X%X%X%X%X%X%X%X%X%X#X%X%X%X%X%X%X%X%X%X%X%X#X%X%X%X%X%X",
"%X%X%X#X%X%X%X$X%X%X%X%X%X%X%X$X5.. - / | .._ / 6. X%X%XM.i H U p.k.J M.%X#X%X%X%X%X%X%X%X%X%X%X%X%X%X%X%X#X%X%X%X%X%X%X%X%X%X%X",
"%X%X%X%X%X%X%X%X%X%X%X%X#X%X%X$XZ.< / $.2.3.#.1 W.%X%X&XN.r D d p.k.K m.*X%X%X%X%X%X%X%X%X#X%X%X%X%X%X%X%X%X%X%X%XOX%X%X$X%X%X%X",
"$X%X%X%X%X%X%X%X#X%X%X%X%X%X%X%XG.q X.1.2.y.%.1 ~.&X%X%XN.r D J p.j.E m.%X%X%X%X%X%X#X%X%X%X%X%X$X%X%X%X%X%X%X%X%X%X%X%X%X%X%X%X",
"%X%X%X#X%X%X%X%X%X#X%X%X%X%X$XG.< 4 %.e.2.r.} N n..X$X%XN.r D W R g.Y m.*X#X%X%X&X%X%X%X%X%X%X%X%X%X%X#X%X%X%X%X%X%X%X%X%X%X%X%X",
"$X%X%X%X%X%X$X%X%X%X%X%X%X%X%Xw.+ = / -.3.{ = A Y L m.+Xb.i H W I h.Y M.%X%X%X%X%X#XoX&X%X%X%X%X%X%X%X%XOX&XOX%X%X%X%X%X%X%X%XOX",
"*X$X%X%X%X%X%X#X%X%X%X%X%X%X%X{.T.z - ) [ 4 < c U W Y Z m J I W R z.P B.%X%X%X#X XS.Z._.#X|.%X#X&X#X&X#X%X%X%X%X%X%X%X%X#X%X%X%X",
"#X%X#X%X%X%X#X&X#X%X%X%X%X%X%X%X&X!.< * = 3 G.'.Q F T s.R T W P W z.Y M.&X%X#XU.h > > w Z.0.T.*X$X%X$X&X$X%X%X%XOX%X%X%X%X%X%X$X",
"*X$X%X$X&X$X%X%X%X%X%X%X%X%X%X%X%XXX5.< N G.OX&X).~ Z I W P W F W k.Y B.%X%X}.h X - 4 8 1 _ +.T.%X#X%X#X%X#X&X$X&X%X%X%X%X%X%X&X",
"$X&X#X&X$X*X#X%X$X%X%X%X%X#X%X%X%X%X(.S.oXOX%X#X%X#X/.Q n d H n ^ l.K M.&X%X.X9.; 5 } =...o.' 5.+X*X$X&X#X*X#X%XOX%X%X%X%X%X%XOX",
"&XOX*X#X%X$X%X%X%X%X%X%X%X%X%X%X%X%X%X%X%X*XoX*XOX&X$XQ.C u n J d.j.E N.*X%X&XE.3 | =.=.1.&.] S.%X#X*X#X%X#X&X%X%X%X%X%X%X%X#X&X",
"OX&X$X*X#X&X#X%X%X%X%X%X%X%X%X%X%X%X%X%X*X#X*X#X&XOX&X%XN.u H U g.z.E M.&X%X%X!.# 8 =.;.t.-.] Z.OX%X#X*X%X%X#X%X#X%X%X%X%X%X%XOX",
"*XOX%X#X&X#X&X#X%X%X%X%X%X%X%X%X%X%X%X%X#X%X#X%XOX&X@X&XN.r P I p.z.J N.&X+X`.Q $ > %.e.3.%./ > Z.OX&XOX&X#X&X#X&X$X%X%X%X%X%X%X",
"OX%XOX&X$X*X#X%X#X%X%X%X%X%X%X%X%X#X%X#X*X%X%X%X&XOX&X@XN.r H W a.z.K i.).n.Z I t + ` #.X.8 * 0 c.*XOX&X#X%X$X%X%X%X%X%X%X%X%XOX",
"*XOX&XOX%X#X&X$X%X#X%X#X%X%X#X&X%X%X%X%X#X*X$X%X#X&X$X*XN.r F W j.k.p.G C ! ^ P V & * 8 ' 4 5.~.oXOX&XOX*X$X%X#X%X%X%X%X%X%X$X&X",
"OX&X#X%X$X&X#X&X%X%X%X%X%X%X%X$X%X#X%X%X*X$X*X$X*X$X*X#XN.i d W d.l.k.l.g.P n u.[.Y.e X * 3 ~.*X$X&X$X%X#X&X#X&X%X%X%X%X%X%X%X$X",
"*X$X*X#X*X$X%X%X%X%X%X%X%X%X%X%X%X%X%X%X$X%X%X*X#X%X#X*XN.u n F d.j.j.g.J Q M..X*X$XK.9.2 9.oX%X%X$X&X$X%X#X%X%X%X#X%X%X%X%X#X&X",
"OX*X#X%X#X*X#X%X%X%X%X%X%X#X&X#X%X%X%X%X%X$X%X#X*XOX&X%XN.r H D ^ l.^ d ~ ).%X%X#X*X$X%XK. X%X%X#X&X#X%X$X&X$X%X%X%X%X%X%X%X%X#X",
"&XOX&X$X%X#X%X%X%X%X%X%X%X%X%X%X%X%X%X%X%X%X%X%X#X&X$X*Xm.p F H p.d.Y Q ).%X%X#X%X$X*X$X%X%X%X$X*X#X*X$X&X$X%X%X%X%X%X%X%X%X#X&X",
"#X%X#X&X$X&X%X%X$X%X%X%X%X%X%X%X%X%X%X#X%X%X%X%X%X#X&X%Xm.u J I l.k.K m.%X%X%X&X$X*X$X%X%X%X%X%X#X&X#X%X#X%X%X%X#X%X%X%X%X%X%X$X",
"&X#X%X#X%X%X%X#X%X%X%X%X#X%X%X%X%X%X%X%X#X%X%X%X#X&X#X$Xn.i T I g.f.G M.OX$X%X%X%X#X%X%X%X%X%X$X%X#X&X%X&X%X%X%X%X%X%X%X%X%X#X*X",
"#X&X%X%X%X%X#X&X%X%X%X%X%X%X%X%X%X%X%X%X%X%X%X$X&X#XOXC.v b J T d.d.W m P.*X%X%X%X%X%X%X%X%X%X%X#X*X#X%X#X%X%X%X%X%X%X%X%X%X%X#X",
"%X%X%X%X%X%X%X#X%X%X%X%X%X%X%X%X%X%X#X%X%X%X%X%X%X*XR.t F H n T g.j.d.H b.+X&X%X%X%X%X%X%X%X%X%X%X$X%X%X%X#X%X%X%X%X%X%X%X%X#X%X",
"%X%X%X%X%X%X%X%X%X%X%X%X%X%X%X$X%X%X%X%X%X%X%X#X%X.Xb.p D n H W g.p.j.j.n I.*X%X%X%X%X%X%X%X%X%X%X%X%X%X%X%X%X%X%X%X$X%X%X%X%X%X",
"%X%X%X$X%X%X%X%X%X%X%X#X%X%X%X%X%X%X%X%X%X%X%X%X&XQ.u n P n H T g.d.j.z.! i.C.+X%X%X%X%X%X%X%X%X%X%X%X%X%X%X%X%X%X%X%X%X%X%X%X%X",
"%X%X%X%X%X%X%X%X%X%X%X%X%X%X%X%X%X$X%X%X%X%XOXF.~ Q a J P d J U p.z.f.d.d.^ Y u.u.J.%X%X%X%X#X%X%X%X%X%X%X%X%X%X%X%X%X%X%X%X%X%X",
"%X%X%X%X%X%X%X%X%X%X%X%X%X#X%X%X%X%X%X%X%XOXC.p p i K P G M n T g.h.f.W T g.d.P ! Y J.%X%X%X%X%X%X%X#X%X%X%X#X%X%X%X%X%X%X%X%X%X",
"%X%X%X%X%X%X%X%X%X%X%X%X%X%X%X%X%X%X%X%X%XP.v p m K G G G v v J L a.! m m P I L a.K C.*X%X%X%X%X%X%X%X%X%X%X%X%X%X$X%X%X%X%X$X%X",
"#X&X$X%X#X%X%X%X#X%X%X%X%X%X%X%X%X%X%X%X%X.Xi.L.Q.C ~ F.B.).Q C L.C b.[.'.~ Z L.V i.+X%X#X%X%X%X#X%X%X%X%X%X%X%X%X%X%X%X%X%X%X#X",
"*X#X%X$X&X$X%X%X%X%X%X$X%X%X%X%X%X%X%X%X%X%X.XOXOX[.[.+X.X*X[.[.+X`..X%X%X[.[.+X`..X*X$X&X#X%X$X*X$X&X$X%X$X&X#X%X%X%X%X%X%X#X&X"
};
