/* XPM */
static char *result[] = {
/* columns rows colors chars-per-pixel */
"64 64 256 2 ",
"   c #2F373B",
".  c #172F3B",
"X  c #3F403B",
"o  c #1B3559",
"O  c #1A3048",
"+  c #283848",
"@  c #343945",
"#  c #263959",
"$  c #303450",
"%  c #2A3C69",
"&  c #334654",
"*  c #374966",
"=  c #395468",
"-  c #2C4B7A",
";  c #384C77",
":  c #385577",
">  c #2B4F6F",
",  c #3D6677",
"<  c #474A55",
"1  c #4B5458",
"2  c #55565A",
"3  c #52504B",
"4  c #635B5D",
"5  c #54645D",
"6  c #6D6E59",
"7  c #454B68",
"8  c #475769",
"9  c #565765",
"0  c #475776",
"q  c #525D74",
"w  c #675C69",
"e  c #48646B",
"r  c #596469",
"t  c #496679",
"y  c #566977",
"u  c #57757B",
"i  c #4D727A",
"p  c #676969",
"a  c #77766A",
"s  c #687779",
"d  c #787877",
"f  c #6C6C6F",
"g  c #403438",
"h  c #877A6F",
"j  c #81705E",
"k  c #798379",
"l  c #59827A",
"z  c #968A77",
"x  c #908977",
"c  c #A4937D",
"v  c #DCBB7C",
"b  c #D7BA7A",
"n  c #CCB67A",
"m  c #E2BD7C",
"M  c #E1BC77",
"N  c #DCC27D",
"B  c #D5C27B",
"V  c #CFC274",
"C  c #E3C27C",
"Z  c #E8C37B",
"A  c #F0C67E",
"S  c #375685",
"D  c #2F5383",
"F  c #3B6687",
"G  c #3D7697",
"H  c #366D91",
"J  c #3A78A7",
"K  c #3975AE",
"L  c #435C86",
"P  c #445F94",
"I  c #476A88",
"U  c #546A86",
"Y  c #49758A",
"T  c #577789",
"R  c #466A96",
"E  c #4C7C9C",
"W  c #487797",
"Q  c #567A98",
"!  c #556D95",
"~  c #667887",
"^  c #787D85",
"/  c #6A758E",
"(  c #487BA6",
")  c #547AA5",
"_  c #4F74AF",
"`  c #6072A0",
"'  c #4A7FC1",
"]  c #3A82AD",
"[  c #3E849E",
"{  c #4A829B",
"}  c #58859A",
"|  c #588B92",
" . c #688488",
".. c #768687",
"X. c #688797",
"o. c #768998",
"O. c #669399",
"+. c #779599",
"@. c #739989",
"#. c #4B83A4",
"$. c #4886A9",
"%. c #5483A4",
"&. c #5787A8",
"*. c #4985B6",
"=. c #558AB6",
"-. c #5994B9",
";. c #5496A9",
":. c #668AA6",
">. c #6996A7",
",. c #7897A6",
"<. c #6898B6",
"1. c #7295B4",
"2. c #79A6A6",
"3. c #6CA2B2",
"4. c #548CC6",
"5. c #79ACCA",
"6. c #679EC7",
"7. c #878B88",
"8. c #8D9589",
"9. c #989689",
"0. c #838C97",
"q. c #8A9799",
"w. c #959997",
"e. c #94898C",
"r. c #A69A89",
"t. c #A99C95",
"y. c #A99489",
"u. c #97A599",
"i. c #8DA395",
"p. c #AAA28B",
"a. c #B4A98D",
"s. c #AAA597",
"d. c #B6A997",
"f. c #BDB697",
"g. c #BAB28E",
"h. c #869BA6",
"j. c #989CA7",
"k. c #8A9FB0",
"l. c #98A9A8",
"z. c #87A8B8",
"x. c #99ABB6",
"c. c #90B0B0",
"v. c #A8A9A4",
"b. c #B6ACA6",
"n. c #B7B7A9",
"m. c #A7AAB4",
"M. c #A8B7B7",
"N. c #B7B9B6",
"B. c #AFB2A9",
"V. c #AC9FA6",
"C. c #CCBB88",
"Z. c #D5BB84",
"A. c #DCBD84",
"S. c #D5BD8A",
"D. c #DCBD8B",
"F. c #D7B587",
"G. c #C9B998",
"H. c #D3BD94",
"J. c #DCBD93",
"K. c #D6BD9B",
"L. c #C3AD96",
"P. c #E3BE84",
"I. c #E2BD8B",
"U. c #E7BC8A",
"Y. c #E3BE93",
"T. c #E8BE94",
"R. c #C7B9A5",
"E. c #D3BDA6",
"W. c #C4BBB7",
"Q. c #D1B8B8",
"!. c #B5C9BD",
"~. c #98C2BE",
"^. c #DDC284",
"/. c #D5C28C",
"(. c #DDC38B",
"). c #DDC98B",
"_. c #D5C487",
"`. c #CAC59A",
"'. c #D5C393",
"]. c #DCC393",
"[. c #DCC994",
"{. c #D5C49B",
"}. c #DBC39B",
"|. c #D9CA9B",
" X c #CFC68B",
".X c #E3C384",
"XX c #E9C484",
"oX c #E4CA84",
"OX c #E3C38C",
"+X c #EAC48B",
"@X c #E4CA8C",
"#X c #EBCA8D",
"$X c #EBC983",
"%X c #F1C789",
"&X c #E3C493",
"*X c #EAC593",
"=X c #E4CA93",
"-X c #EACA93",
";X c #E3C49A",
":X c #E3CB9C",
">X c #EAC89A",
",X c #F2CC97",
"<X c #E9D29A",
"1X c #F6D19A",
"2X c #CAC6A8",
"3X c #D4C3A3",
"4X c #DBC4A4",
"5X c #DCCBA4",
"6X c #D3C4AB",
"7X c #DBCBAB",
"8X c #D6C9A8",
"9X c #DBD2A6",
"0X c #C9C7B8",
"qX c #D6C9B6",
"wX c #DAD4B8",
"eX c #CDD3AE",
"rX c #E2CBA3",
"tX c #E5C8A6",
"yX c #E6D3AA",
"uX c #E5D7B8",
"iX c #EBCEAC",
"pX c #F8E2BB",
"aX c #99B9C7",
"sX c #95B4CD",
"dX c #B0B8C5",
"fX c #C9BCC8",
"gX c #C6BFE0",
"hX c #B9C4C5",
"jX c #B1D0D2",
"kX c #B8D8E7",
"lX c #ADD8DB",
"zX c #CBC8C5",
"xX c #D5CAC9",
"cX c #CBD3CA",
"vX c #D8D5C8",
"bX c #D7CAD4",
"nX c #D8D8D6",
"mX c #C6CFD4",
"MX c #E6D9C7",
"NX c #E7DAD6",
"BX c #E9D6D3",
"VX c #D6E3D4",
"CX c #E9E3C9",
"ZX c #FAEBCB",
"AX c #E9E5D7",
"SX c #F8EAD7",
"DX c #FEF3D7",
"FX c #EEF4D6",
"GX c #D0D9E8",
"HX c #E3DAE2",
"JX c #D2EBF0",
"KX c #E9E7E7",
"LX c #F6EAE6",
"PX c #F8F5EB",
"IX c #FAF8F7",
"UX c #EAF1F0",
/* pixels */
"].Z.b A.m v M v A.OX*XI.U.+X%Xm %XoXF.D.Y.D.=X>X[.5X3X0XzXAX!.c.:.&.i @.M.,.0 Q h.mXQ.yXtX&XY.Y.&XOXY.J.T.T.>X>X(.(.@X).N v N .X",
"OXA.A.m XXC C XXI.A.D.*XA.U.M P.N .XP.Y.>X;X-X=X(.{.8XPXcXq.mXh.! I i 5 r 8 q 0 < f SXK.J.>XT.>X&X&XY.OXY.Y.Y.J.(.=X).^.^.^.^.OX",
"OXOX.XP.XXXXOXD.&XD.}.rXJ.-XU.#Xb oXOXOX*X*X&X(.'.9XvXn...q.aXX.I o & r p t.dXm.2 Q.E.iXtXT.tX&XOX^.D.OXT.OXOX(.OX).^.^.^.^.^.OX",
"#X,X-XXX.X@X&X].}.G.yXH.].;X-XOXN <XOXOX*XI.&X;X'.wXf.9.q./ T Q R * @.CXR.qXQ.R.R.E.tX;XT.1XT.I.OX^.OX.XOXOXOXOXOX(.).).OX^.OXI.",
"XX#X#XoXOX&X:X5XDXMXCX5X{.].=X(.@X<X=X@X&XOX;XrXuXc u.i.@.| >.%.S t wXeX'.Z.yX}.;XF.;XU.,XOX@X^.@XoX.X.XXX.XOX^.^.).=X=X=X(.OXI.",
"b XXOX.XOX;XrX7Xa.p.g.MX5XrX(.^.F.;X&X(.].[.7X2Xx !.IXcX+.>.5.:.= o.eX X_.^.].D.Z.,XU.,X-X=Xb ).@X)..X^..X.X.XXX^.^.@X=XOX(.A.D.",
"b v .XOX[.}.3XR.d.r.z yXG.'.^.-XF.Y.].].'.7XqXd.8.u.cXi.l jX;., * M.2X9X_.).].;X'.S.OX,XF./.9X X_._.^.A..X.X@X#XA.Z.^.(.OX(.A.I.",
"P.P.A.&X;X}.G.a.z z x 8XH.(.oXv I.&X;X}.K.wXcXw.q.+.l l l 2.O.> = cX0X3X5X{.wXG.8X{.5X}.7X3X`.{.[.'.].(.(.XXOX@X^.A.Z.(.@XOX.XOX",
".X@X(.].:XpXp.R.d.z z H.J.Z.Z P.,X,XA.|.G.LXx.h.T X.u | X.X.X./ u hXzXAXBXbXfXm.b.v.2X0XBXKXfXxX6XrX:XH.D.@X.XA..XOX&X=XOX@X@X+X",
"(.&X(.=X:XpXL.G.L.d.z L.Y.D.m M %X#X>X'.2XVXh.2.z.aXlXkXkXkXJXjXj.0.^ f 7 $ $ % $ + @ @ 2 / e.fXSXE.4XJ.F.&XI.-XOXOXOXOX(.^.P..X",
"(.(.(.;X:XiXK.E.x c c H.tXD.m %X$X#X).`.CX!.h.kXJXkXjXsXM.k./ / 2     @ $ % D S > > = 8 7 * 7 2 h ZX4XJ.>XD.@X*X&X@X&X(.(..X^.C ",
"].&X(.&X:X<X7X3XL.a.c L.K.J.I.OXN b  X`.eXM.JXc.<.<.X.T ~ 8 < @ < 3 < @ % ; - D , : > : 7 ; 7 & 3 E.E.K.&X=X@X#X=X&XOX&XOX@XXX.X",
"&X&X&X=X;X].:XK.7Xd.c G.E.E.4XK. X/.`.2XN.k ..o.i T  .o.r < w d 3 a f r $ > D S - > : : : 0 0 < 3 qXtXtX@X@XOX#X@XOX&XOX*XOX.XXX",
"D.D.@X-X=X&X:X}.3Xa.r.Q.qXE.qX3XuX3XvXv.k .. .l  ...M.GXm.2 2 d 3 6 a k + # D D H D : - ; ; = < h SX}.].<XN .X.XOXOX&X&XD.(.P.v ",
"F.D.U.@X@X-X;XrX7Xf.9.W.vXAXAXMX0Xw.^ y r ^ r 1 !.8.d N.VXb.j a 6 5 k a @ $ S S - - D S S ; ; ~ AXG.C.S.b oXN oX^.OX&X&XD.A.A.P.",
"*X*XOXOXI.&XD.tXR.n.7.7.^ p 1 < < @ < 9 9 j.cXp vXnXvXvXAXAXMXr.5 5 6 4 @ 7 % S D - H - ; 0 ..VX2X{.H.Z.N .XN b ^.&X;XY.I.P..XOX",
"#X+XD.D.;X>X>XtXG.a $ & o o * $ + & 9 f g t.LXb.MXW.n.N.vXAXBXE.6 6 b.N.m.7 ; S - P ; * y m.KXeX9X|.>XA.A..X(.:X[.[.OXI.U.%X+X%X",
"XX+XOXI.OX&XT.K.y.  = : D S ; *   & 4 4 3 BXQ.LXLXfXLXh x AXSXL.j x v.e.dX8 % 0 0 * q j.nX2X`.5X|.].*X+XU.OX/.'.[.[.;XU.%XU.U.+X",
".X+X&XOXI.D.I.H.d.X 8 * : t * 1 + $ @ 9 d t.xXt.HXfXfX< f xXBXBXQ.y.Q.V.q.@ 8 < y 0.nX0X6X{.=X(.&X(.OXP.U.+X_.[.[.[.&XU.+X+XP.OX",
".X+X@XOX.XP.D.J.R.7.r = = 8 1 2 2 9 2 9 2 9 w.3 t.HXfXN.HXLXxXQ.BXQ.e.2   @ j.mXHXxXqXG.G.J.#XA.=X(.U.U.U.+XOX#X(.&XOX+X*X+XOX-X",
"U..X^..X.XoX-X:X3Xn.l.mXmXcXwXvXNXAXPXVXnXhX..p N.HXSXBXxXBXBXV.fXBXe.9 3 ..N.cXzXvX2X7XrX*XA.+X].S.D.I.*X%X.XOXoXOXU.U.U.I.].=X",
"*XOXP.N .XoX#X[.L.9.t.KX0X0XG.'.6XR.n.0XKXUXN.!.zXb.BXR.d.Q.Q.b.fXgXj.w 1 s l.u.v.qXqX7XL.rXtXK.H.H.}.J.D.*X(.XX.XXX.XOX*XD./.:X",
"*X*X^.N C oX)./.yXy.d.LX0X3XS.[.=X'.{.CXn.vXw.0X0Xx a.R.xXqXfXbXbXKXm.dX@.y y l u 5 q.VX0XW.0X0XR.2X8XH.G.].OX@Xv .XP.I.@XD._.[.",
"D.F..XC N oX).'.E.t.t.AX7X}._.XXv =X;X7XR.0X!.vX0XR.z R.BXBXLXfXHXUX0.x.T i u aX+.8 ~ ..0.q.o.8.n.0XvX0XE.7X]..Xb v P.U.*XD._.[.",
"T.;XU..XN ^.<X{.2Xy.t.DXE.}.(.^.#XP.1XZXE.Q.qXb.N.BXn.MXBXHXfXHXIXHXq.h.t T { 1.Y I Q Q t t U T u 5 r q.AXqXC.=X.XM v I.@X(.(.=X",
"T.;XOX.Xv _.[.G.R.b.d.SXiXK.D.A.P.,XY.Y.tXCXR.LXxXzXN.N.W.bXLXIXUXhXl.h.Y W F &.R ) :.t I , } Y u ~ y r ..AXwX[.#XXXP.U.*XD._.^.",
"J.&X*X+X.X(.rX6XQ.L.y.Q.L.iXH.[.;XF.;X:X'.4XR.CXIXUXIXIXKXIXIXLXIXN.h.aXsXQ { &.Q :.k.= t | >.| i +.sX:.= ..2X{.OX.XP.OX=X#X@X^.",
"F.*X-X,X&X[.yX6Xy.t.y.R.L.6X6X8XH.C.}.H.9X3XvX2XIXIXIXIXIXIXLXPXHXj.M.1.5.I I &.Q T 0 u T e i e t :.sXY t s CXG.^.^.I.I.&X-X@X^.",
"F.Y.*X+XOXH.6Xn.e.a MXL.qXSX9.xXE.6XeXG.eX0XvXx xXIXIXIXPXPXIXKXm.j.jXT Q %.Q I ` / l.mXhXN...U 8 e W I I u 0X`.(.@X@XY.&X&X.Xv ",
"Z.P..XP.I.K.E.d.h h h y.BXBX8.v.b.2Xf.u.u.c.q.q.B.LXIXPXIXIXHX..~ jXkXY Q E W t o.j.fXHXUXKXGXm.8 = L I >.x.0X7XF.D.I.&X[.;X@XN ",
"Z.^.v P.*XrX6Xf.y.h 3 a.xXW.0.0.B.k k +., T :.x.0.AXPXPXLXIXaX0 e ,.sXW { } Y sXdXmXBXBXHXHXHXUXs O > S ` ~ 9.3XZ.A.D.&X:X<X-X#X",
"v .Xv P.&XtX7Xb.t.a d.xXxXe.o.o.aXk.} 1.F F ! e 9 UXPXIXhXjX7 ; :.Y >.5.>.E W T ~ bXHXfXfXbXfXfX< . # > : r u.2X].OX&X&X;X).).oX",
".XA.A.@X-X;X4XqX9.x t.vXv.k O.&.&.( W 5.W F t t U GXIX!.y X.- I ) &.2.lXW { | U sXKXb.bXfXfXN.d + O $ # # 8 8.eX:XOXOX*XOXOX=X=X",
".X^.^.(.OX;XrXuXr.z W.nXcXl.,.W &.=.$.&.} } ! L sXJXhXy # ` L _ ) E >.>.F G E W dXj.d w p f ^ + O O o % % + 7.0X5X].+X*XP.D._.).",
"^.@X=X(.A.].rX4Xr.t.NXqXzXw.,.} } Y { G | &.} Q ` ! 7 + 8 o.o.>.<.&.%.{ { J ( ( ! q 8 9 y + O O o % o o ; * d AX8XJ.OX&XD.D.&X[.",
"A.OX=X(.OXOX&X{.c t.SXR.0Xl.T | X.O.} | F Y F I 0 7 8 j.GXh.8 | E E G { $.=.*.) Q U / dXh.0 & o o % % % % = 9 vX8XK.T.T.Y.;X;X;X",
".XOX&X=X#X-X:X5Xz p.SX0X0XN.u  .jXx.&.) Y O.k.k 9 d 0X0XcX@.X.Y Q %.H { { $.W ( R :.! X.X.o.T o o o # % ; 7 < vX7X}.T.;XT.T.;XD.",
"+XOXOXOXOX@X=X}.p.g.DX6XR.0X..X.+.X.! Q I T c.u.qX2X2XeXVX@.| } &.<.} &.Y } Q ) _ G R T = ~ kXX.+ $ % 7 0 @ d AX7X;X;X*XT.>X=XD.",
"OX-XOXA.v XX(.S.f.a.SX3X6XMX7.u  .` _ ` 0 r b.FX2X6XeXFXc.>.[ *.&.=.#.E ~ z.z.:.( ( ( E e 1 hXcXzXs 1 & < p qX9X].(.*X+XOX@X-X.X",
"F.&X*XA.v #XOXC.a.g.DXE.K.eX8.f r w L ` m.VX3X{.3XwXFXB.+.W *.K *.$.( E z.GXkXX.( *.J W y 3 8.vXn.DXSX0XNXSX3X|.Z..X@XXXv v N N ",
"I.I.D.+XXX%X^.S.g.g.ZX3XK.7XvXk 6 i.N.AXqX'.[.|.wXnXw.o.%.( $.[ ] ] ] *.:.,.X.I J K H J e r 7.wX3X|.7XE.3XE.'.(.N b v .XXXC N B ",
"D.D.D.@X+X#XOX'.g.g.DX8X}.K.wX2X9XeX2X7X:X)./.{.vXq.o.) ( 4.] [ ] K K J H Y I S H K H H +.w.z 9X/.D.J.J.K.[.OX@XoXN v ^.^.^.N N ",
"D.D.I..X%X#X@X'.g.a.ZX4XrXJ.8XwX X{.rX}.].S.7XFXq.+.3.;._ 4.K *.$.( *.] R W Y E W R <.I d x f.{.@XOXI.J.Y.&X-XOXoX.XA.OX&X(.N ^.",
"D.D.@XA.%X.X&XH.d.p.ZXH.>X;XH.}.{.[.tXJ.&XH.qXN.@.O.;.;.4.4.=.=.&.( *.$.$.#.E { { Q sXo.3 6 ZX:X#X+XY.I.T.>X*XOX.X^.OX;X*XOX.XN ",
"@X].=X.XoXU.=X}.R.p.DX{.D.@X:XrX>X;XD.(.rX7XAXi.i.l ~.@.&.=.&.{ { W %.( &.( W E T ,.GX7.< E.H.-XOXXXD.I.T.>X*XU.+X(.D.Y.;XI.OXXX",
"&X&X-XOXXX.X&X5XwXr.ZX|.OX@X=X&X>X1X-X<X'.`.cX8.k !.lX2.$.$.$.H { } <.%.&.#.%.;.sXGXaX< d qXH.(.@XOX;X&X*X;XOXOX=XOXD.&X*XOXXXXX",
"=X=X(.OXP.+X;X8XCXs.MXrX,X+X^.Z.Y.*X_.B  XeXN.h.M.JXlXO.=.=.#.[ $.3.5.#.#.J ( $.} Q U O o.0X4X(.=X).&X;X;XF.A.OX.X^.(.&X-XXXC Z ",
",X=XD.OX.X-X&X}.uXd.CX}.-XP..X(.>XrXoXV V 8Xu.x.jX~.jXO.&.-.H [ $.-.5.#.%.( { G ( } I # q M.6X<X).^._.&XJ.F.A.@X@X^.A.A.OXm C C ",
"I.I.D.(.OX@X-XrXuXp.CXE.I..XoX_.S.|.B b _.|.s.c.3.;.| G &.&.G $.[ { &.{ { 3.{ { ) R ( S & 5 FX`._.).B _.=X<X=X<X-XD.A.A.I.OX(.N ",
"I.F.D.(.OX#X=X:XwXp.CX3XD.P.oXb _.(.N N ^.'.u.z.;.;.;.{ &.%.J J $.$.=.&.2.jXO.;.R =._ D : = VX`. X=X_. X=X<X(.D.OXI.I.U.D.A._.^.",
"U.I.D.&X@X&X&XrX6Xr.ZX8X].^.^.B C C Z A XXK.v.aX5.] ;.-.&.( ] ' *.4.G >.jXFX!.O.G *.K P R - l.qXH.S.Z.=X@X@XA.U.I.T.T.T.I.P.^.oX",
"U.@X&X].#X=X&X4Xn.r.SX6X;X.XN N M A m A +XtXN.aX6.] -.*.#.E ] K 4.*.;.O.!.cXl.u ) ( _ ' ' P y dXqX4X}.|.S.(.^.@X*XU.U.%X+XXXC N ",
"+X#X&X).(.OX}.}.d.r.SX7X;XOX^.N N C $XP.U.4X!.k.6.4.-.%.X.%.#.( K -.%.z.M.k jX| #.( K _ G R * ^ GXHXHXBXqXiXK.D..X$X$XZ Z C C C ",
"%X#X=X].OX].Y.4Xd.t.LX7X;XOX^._.^.^.OXI.;XrXwXl.&.=.$.:.c.X.F $.$.*.&.3.T 0 | R ( ( ( G { G = * 7 7 8 f e.xXqXE.(.OXoXZ C C N .X",
"%XoXOX(.].&X;X4XR.d.LX4X;X(.^.^.(.(.:X}.;XrXvXl.>.;.>.lXJX,.I #.$.$.W -.%.H =._ ( E | O.2.c.X.e $ & = * * U V.LX6X}.=XoX^.N ^.OX",
"C .X_.S.Z.].J.4XR.d.DX3XJ.OX(.).<X[.tXtX|.{.eXu.>.} O.aXlXO.I E ;.$.$.{ _ _ K _ _ Y O.i.jXJXh.u t > > > - % 7 m.0X3X/.^.^.(.D.S.",
"C oX).S.F.D.Y.K.E.r.SXtXJ.A.Z.-X-X=XK.tXE.G.FXu.O.>.} O.O.T G H *.$.;.#.W G J _ ) Q Q >.2.,.Q Y i F R F D S 0 r NXuXC.n OXOXD.:X",
"C @X(./.D.Y.Y.K.qXy.DX4X].OX^.=X(.&XE.ZXuXSXs...3.<.{ Y T Y F G -.E { 3.} } F ) &.! W 1.I I S R { >.%.R ! 0 q 8.AXyX].A.OXOXT.&X",
"v N (.(.].-X>XJ.tXz ZXJ.A.OXOX]._.H.L.vXQ.BXd o.1.U : = .   . O Y :. .M.,./ U : &.) R H &.R R ` F Q T U u ^ B.CX5X[..XC U.+X*XU.",
"m .X(.(.;X-X>X&XZXG.ZX=XD.OXD.D.rX5Xx a d 4 9 9 q 0 = r k 8.p s o...o.m.gXJXJXT W ) ) ) > : L U ! ~ ~ hXAX2X`.[._.^.XXP.m +X%XU.",
"XX@X@X&XOX+XI.D.:X{.rX[.I.U.OX:XC.7XCXd 4 4 2 w 9 ^ m.BXqXG.E.G.zXHXNX7.dXgX0.q y i = = & 5 s a b.AX6Xf.{.`.[.=XOXI.*XI.U.U.-XP.",
"XX@X=X&XOX.XOX+X:XyX:X<X-XXXA.&X[.5X2XAXxXd.V.d.vXAX6X7XrXJ.S.}.K.qXCXe.w w < w r r r s B.2X3X2X5XyX'.[.<X_._.v OXY.*XI.F.+X@X^.",
".XOX=X&XI.P.XX#X/.[.(.&X+XP.I.I.A.yXC.|.K.4XuX{.`.9X|.:XD.].OX^.F.=XC.8X2X9.a 3 3 a V.SX{.9X|.:XrXD.]./.n n -X@XOXOX^.A.).).(.).",
"XX@X,X:XI.m m oX:X/.[.^.P.XXI.I.,XA. X XrXJ.|.<X X<X[._.I.<XA.^.C .XV [.wX2XeX3X6XQ.Q.fXtX'.S.@X*X;X&XA.Z.(.^.OX@X#X.X^.).). X X"
};
