/* XPM */
static char *f43120ae6af44a22edcf90620c7f1d89QWzWonJ42WjIp5AK[] = {
/* columns rows colors chars-per-pixel */
"64 64 256 2 ",
"   c #2E343D",
".  c #182C49",
"X  c #1B3458",
"o  c #283847",
"O  c #353946",
"+  c #283A59",
"@  c #313752",
"#  c #1B3562",
"$  c #283C69",
"%  c #274359",
"&  c #3B4859",
"*  c #34464E",
"=  c #2A4568",
"-  c #364968",
";  c #38566C",
":  c #364B77",
">  c #27557A",
",  c #385578",
"<  c #2B4E72",
"1  c #396574",
"2  c #474955",
"3  c #4B5456",
"4  c #575658",
"5  c #534F4C",
"6  c #706E59",
"7  c #454D67",
"8  c #495767",
"9  c #565868",
"0  c #465977",
"q  c #465171",
"w  c #645A65",
"e  c #5A6369",
"r  c #486678",
"t  c #576977",
"y  c #507074",
"u  c #666869",
"i  c #78776A",
"p  c #6A7678",
"a  c #797779",
"s  c #6B6C6E",
"d  c #59635A",
"f  c #40333A",
"g  c #85796F",
"h  c #6E8476",
"j  c #8B8377",
"k  c #978A77",
"l  c #988F77",
"z  c #A4937D",
"x  c #DCBC7C",
"c  c #D7BA7A",
"v  c #CCAF75",
"b  c #E2BD7C",
"n  c #E2BB77",
"m  c #DCC17C",
"M  c #D4C07E",
"N  c #D2C276",
"B  c #E3C37D",
"V  c #E7C379",
"C  c #EEC478",
"Z  c #2C5886",
"A  c #385585",
"S  c #324D82",
"D  c #386586",
"F  c #396A99",
"G  c #3B779A",
"H  c #336E8B",
"J  c #3C78A7",
"K  c #3B75AF",
"L  c #1F669A",
"P  c #435E86",
"I  c #425F97",
"U  c #466A87",
"Y  c #497588",
"T  c #587788",
"R  c #466B97",
"E  c #4B7B9C",
"W  c #487697",
"Q  c #577A9A",
"!  c #546B8A",
"~  c #667886",
"^  c #787D86",
"/  c #6A718C",
"(  c #4C7CA3",
")  c #477AA8",
"_  c #547CA7",
"`  c #4D75AE",
"'  c #3C84AF",
"]  c #5A848A",
"[  c #4A849B",
"{  c #58859A",
"}  c #558E98",
"|  c #6A8485",
" . c #778687",
".. c #678797",
"X. c #778996",
"o. c #679499",
"O. c #769699",
"+. c #759C86",
"@. c #4885A8",
"#. c #5483A4",
"$. c #5385AC",
"%. c #5888A7",
"&. c #4A86B6",
"*. c #5689B4",
"=. c #5994B7",
"-. c #5193AE",
";. c #658BA8",
":. c #6996A7",
">. c #7798A9",
",. c #6798B7",
"<. c #7293B0",
"1. c #76A5AE",
"2. c #68A3AC",
"3. c #558DC4",
"4. c #4981C0",
"5. c #78AACA",
"6. c #649ECE",
"7. c #888B8A",
"8. c #8C968A",
"9. c #989689",
"0. c #858E95",
"q. c #8A9698",
"w. c #979799",
"e. c #978888",
"r. c #A69A89",
"t. c #A99C96",
"y. c #AF988F",
"u. c #98A499",
"i. c #8DA597",
"p. c #A9A28C",
"a. c #ABA699",
"s. c #B6A996",
"d. c #BCB696",
"f. c #B4AD90",
"g. c #899CA7",
"h. c #9498A7",
"j. c #A29FA7",
"k. c #88A6A7",
"l. c #97A7A6",
"z. c #92AEB4",
"x. c #A6ACA5",
"c. c #B5AAA5",
"v. c #ACB5A6",
"b. c #B7B7A9",
"n. c #A7AAB4",
"m. c #AAB5B4",
"M. c #B7BAB8",
"N. c #BCADB7",
"B. c #CBBA8A",
"V. c #D6BC84",
"C. c #DCBD84",
"Z. c #D4BC8C",
"A. c #DDBD8B",
"S. c #D6B586",
"D. c #C9BA98",
"F. c #D3BD93",
"G. c #DCBE93",
"H. c #D6BD9A",
"J. c #C4AD93",
"K. c #E3BE84",
"L. c #E3BD8B",
"P. c #E7BC88",
"I. c #E2BE93",
"U. c #E9BE93",
"Y. c #C7B9A6",
"T. c #D4BDA5",
"R. c #C5BAB5",
"E. c #D6BCB7",
"W. c #C1ACA7",
"Q. c #B5CBBE",
"!. c #9DC1B3",
"~. c #DDC284",
"^. c #D5C18C",
"/. c #DDC38B",
"(. c #D9C889",
"). c #CBC49A",
"_. c #D5C393",
"`. c #DCC493",
"'. c #DCC993",
"]. c #D4C49B",
"[. c #DBC39B",
"{. c #DCCA9B",
"}. c #D3C99A",
"|. c #DACE94",
" X c #E3C384",
".X c #EAC485",
"XX c #E4C986",
"oX c #E3C48C",
"OX c #EAC48B",
"+X c #E4C98C",
"@X c #EBCA8C",
"#X c #EBCA84",
"$X c #F1C88B",
"%X c #E3C493",
"&X c #EAC593",
"*X c #E4CA93",
"=X c #EACA93",
"-X c #E3C59A",
";X c #E3CB9C",
":X c #EACB9B",
">X c #EAC49A",
",X c #F4CB95",
"<X c #E9D297",
"1X c #F2D19B",
"2X c #CAC7A8",
"3X c #D4C3A3",
"4X c #DBC4A3",
"5X c #DDCBA4",
"6X c #DBCAAB",
"7X c #D4C6A9",
"8X c #DBD3A7",
"9X c #C9C6B7",
"0X c #D6C8B5",
"qX c #DAD4B8",
"wX c #CED4B2",
"eX c #E2CBA3",
"rX c #E6C9A6",
"tX c #E8D3AB",
"yX c #E2CCB4",
"uX c #E4D7B7",
"iX c #F5CFA0",
"pX c #F8E2BB",
"aX c #99B9C8",
"sX c #94B7D2",
"dX c #A2B5C4",
"fX c #B9BBC6",
"gX c #CCBBC5",
"hX c #9BC7D0",
"jX c #B9C4C5",
"kX c #B4D0D2",
"lX c #B6DAE7",
"zX c #BEEAE8",
"xX c #CAC8C5",
"cX c #D5CBC9",
"vX c #D8D6C8",
"bX c #D7CAD3",
"nX c #DAD9D4",
"mX c #C8D0D1",
"MX c #E6D9C8",
"NX c #E7D9D5",
"BX c #EBD5CE",
"VX c #D6E3D4",
"CX c #E8E2C9",
"ZX c #FAEBCB",
"AX c #E9E4D7",
"SX c #F7E9D7",
"DX c #FAF3D9",
"FX c #EEF3D3",
"GX c #D4D9E8",
"HX c #E8DAE2",
"JX c #D2EBEF",
"KX c #EAE8E5",
"LX c #F5EBE7",
"PX c #F8F5ED",
"IX c #FBF9F8",
"UX c #EBF4EA",
/* pixels */
" XC.x M ~.+X+X/.:X>X>XI.I.G.%X%XI.G.I.rXuX2XmX>.Q P <.dXO.y *.%.n.Q.AX9X9X].5X+X=X-XL.I.G.S.oX@X.X.XP..XP.%XoXx K.n n b b c V./.",
"oX X~.~.~.(.'./.A.%XI.I.I.L.%X-XrX%XrXG.D.SXs & q 0 8 t r y R W g.mXw.xXLX6X_./.+X=X>X>XI.A.oXx  Xx K.P.&XA.A.L. XK.B B K.x C./.",
"C.oX X~.(.~./.oX/.L.%XI.oX/. XoX%X>XI.>XtXT.0X4 n.fXw.i u o X R Q dXq. .M.uX5X'.oX+X&X:XI.oXoXc @X X&X/.eX[.Z.%XoXoX X.X XXX XoX",
"oXoXoX(.+X/.XX/.oXoXoXOX X X X/./.&XiXU.>XrXT.W.c.0X7X2XCXq.= R Q ~ ~ g.8.f.uXF.%XoXoX*XoX%X<X~. X@X-X[.F.tXF.`.`.oX+X X#X$X$X+X",
"oXA./.+X=X+X/. X X X X X X XXX+XXX+X.X,XP.$XS.-X-XrX^.^.8XwX0 U %.-.[ +.i.a.l uXeX*X/.oX%X*X<X+XoX*X_._.7XCXMXDX4XeX%X~.XX@X@X X",
"L.C.A.*X=X(.~.~.oX X X X~.~.(.XX(.c @X@X$XP.,Xc L.XX~.M ^.wX .; ;.1.2.o.kXIX2Xl 3X5X[.`.%XoX%XA.~.(.eX5XCXJ.p.s.6XeX;X/. X.XB n ",
"A.C.A.oX(.~.V.C.@X+XoX X~.C.(./.^.|.A.A.,XL.M (.*X/. X~.8X2Xm.; D :.hXh i.kXi.8.v.0X6X_.`.oXG.S.@X~.^.B.tXl r.s.Y.].{.%X X~.b c ",
"oX XoX+XoXV.V./.OXoX XoX/.`.'._.}.D.T.5X[.{.}.8XD.yX[.{.3X2XmX& < :.2.} h | O.i.w.xXqXF./.-X&XP.c #X/.F.7Xk k k s.D.[.-XoXK.m  X",
"oXoXoXoX*X+XoXL.C. X+XA.Z.-X5X7XcXR.KXNX0XR.v.u.n.gXbXNXNXxXjXp ] { { o.] Y ..T g.l.UX).'.C.&X$XV B S.F.D.k z s.Y.p.ZX*X/.~.oX X",
" X X~.oX/.`.oXoX+XoX*XA.G.4XT.SXfXh./ 7 o * o * @ $ & 7 a ^ 0.k.kXJXlXlXzXlXhX1.>.q.vX2X'.<X$X$Xn b L.I.J.z y.J.D.J.pX;X*X/.+X~.",
"B  XL././.oX&X+X&XoXA.>XH.T.SXg 7 - - q ; ; > > S S $ @ o     d / ^ k.aXsXhXlXzXlXk.!.FX}.(.@XV $Xn A.-XF.z r.g H.T.tX:X*X/.oX/.",
" X X+XoXoX%X+X*X=X+X&X`.H.T.T.5 7 A : : , < > Z Z S $ @ O 2 3 * O 2 8 ~ ~ _ 5.<.sXJXv.wX).^.c x OXA.G.H.J.z s.d.3X5X;X-X`./.oX/.",
" X X+XoX%X%X+XoX@X X+X+XrX4X0X5 & P A A > > Z > Z Z $ + u s i d s w 2 t X./ t y X. . .b.2X).^.^.`.4X3XT.D.z s.6XH.eX`.%X*XoX%X+X",
"B C.L.%X`.oXoXoX X Xx <XG.4XDXj & , , S > Z > Z Z S X @ h a 6 5 g 4 4 n.GXm. . .| | X.^ x.vX2X8X3X7X2X7XE.r.s.T.3X;X%X=X=XoXC.A.",
"K.C.C.A.%X%XoX~.XXm XXc ^.B.D.AX~ , S I A A S Z A P @ o i i 4 6 6 i c.AXm.a q.Q.3 e ^ 9 9 ^ 9.wXNXAXNXvXM.9.d.6XeX-X=XXXOXoXA.C.",
"oXL.K.A.%X*X%X~.x m  Xm V.^.].2XGX/ q S S A : A S $ 7 O 4 i 5 6 r.uXSXMXvXvXnXnXu mXn.9 9 & * 2 5 3 t ^ 7.7.b.Y.eXG.-XL.oXoX+XOX",
"#X.X$XU.P.I.`._.;X(. Xx K.&X;X8X2XUXx.t - : P S A : 7 z.M.x.i 6 7XMXBXcXb.M.M.NXc.LXy.  u 9 * o + = # # % % p Y.[.:XrXU.A.C.OX$X",
".X X.XU.P.%X{.{._.A.+XP.OXOX/.'.'.F.2XnXh.9 = 0 , - q fX8.a.g 6 W.SXSXk g LXxXLXLXgXBX5 w w O o - : A Z ; -   t.G.&X>XI./.oXoXOX",
"oX XOXOXL.%X;X'././.OXP.P.K. X+X~.+X`.4X0XbXh.t & 8   w.c.R.y.E.BXBXbXs 4 bXgXHXt.bXt.a 4 O @ o 7 - D , = 8 O s.F.C.L.I.+XXXOXP.",
"+XoXoX&XoXoX*X/.*XoX@XP.K.P./.@XB #XL.Z.D.0XxXHXmXw.O   4 e.W.HXR.cXHXHXgXgXbXw.2 w.u 4 e 4 9 9 4 3 q 0 8 e 7.Y.Z.L.L./. X.XoX.X",
"<X`.L.OXL.oX+XoXXXoX@XP.P.A.V.~.$Xb oX-XeX3XqX9XvXQ.h 4 4 e.gXR.s.NXNXcXbXHXLXR.w  .jXVXnXPXAXAXqXvXmXmXmXh.R.3X;X@X+XXXC. XL.oX",
"'.^.A.oXL.P..X X X XOXI.G.G.F.B.A.rX-XB.qX0XwXx.i.l.p 2 w j.bXbXc.R.E.s.R.MXc.xXR.M.KXUXQ.Y.D.3X_.).0X9XKXa.9.D.'.#X#X(.m b oX&X",
"'.^.A.%XP.P. Xb oXoXG.F.H.7X).2X0X9XR.9XVX8.3 h h r y X.dXN.KXbXcXR.E.0XY.f.l R.9Xu.nXv.CX}.^.+XXXZ.3X7XLXa.r.yX^.XXB B C.K.oX&X",
"(.^.A.%XoXb x c L.`.5X2X0XvX9XM.0.X.g.0. .y r :.sXy y T n.q.KXHXcXKXNXBXY.k R.9XvXM.9XY.yX{.+Xx  XC.[.yXBXs.y.D._.(.XXB K.K.A.A.",
"*X/.oX%XK.x x  X*XB.0XAXq.e d p T Y r r { Q Y W ,.[ Y r k.q.JXPXHXcXBXNXNXN.NXM.c.9X0XT.ZX1XK..XK.P.U.rXLXy.r.T.].<X~.m  XL.-X%X",
"~.(.oX%XoXb .X@X'.uXAX| e t T y Y %.1 D , ;._ R $.H [ Y g.z.Q.LXIXLXbXgXR.N.xXvXLXY.BXrXI.L.,XK.C.I.H.rXSXy.W.D.D.'.C.m XXoX>XI.",
" X+X*X%X XL. XoX}.2X .8 ;.sX<.y } :.{ Y ; 5.%.) $.) #.sXaXh.M.LXLXPXIXHXIXIXLXIXMXD.3X_.rX%Xc >XG.F.rXJ.E.r.W.Y.7X5X/. X=X&X%XG.",
" X@X=X%XL.L. XC.B.AXp U U sX;.r 1 y 8 T ! r ! Q %.D F 5.>.aXg.KXPXLXPXIXIXIXIXPX9XMX).|.F.`.S.D.7XT.4XJ.W.y.t.t.0XqX`.+X,X&XI.S.",
"c  X%X%X%X%X+XoX).Q.t ! R W U ; p  .fXjXmXh./ ;.U #._ Q Q lXh.n.KXIXPXPXIXIXIXvX8.vXwXwXd.8X5X).cX9.SX0XW.BXg k b.0XZ.oX&X&XoXS.",
" X+X*X%XI.oXC.V.5X9XdX;.R U - 8 l.nXHXLXKXfXl.X.r W E [ U kXkX|  .VXIXIXPXIXLXm.8.0.x.i.9.v.2Xb.l.q.NXNXy.g g g c.T.F.C.oXoXoXc ",
"@X=X:X-X%XA.C.S.3X9.~ Q : < o / IXNXNXBXbXBXgXfXsXW { [ W sXg.r 8 z.IXKXPXIXKX8.z.>.T ; O.h h v.0.X.jXcXa.5 j 9.c.0X;XoXK.K.m x ",
" XoX*X;X%XoXL./.).u.t , = # . 2 gXgXbXE.gXLXbX/ T ! W :.1.:.Y ..; q mXQ.PXPXUX3 0 Q Z R 1.{ z.dX;.X.0.vXbXs.6 t.W.0XrX%XC.x ~.m ",
"+X|.oXoX+XoX+X{.qX8.9 + # X .   a R.gX9XbXN.KXdXT Q W ] hXz.{ _ A < ..t Q.IXGXy P U D Y 5.( @.$.%.o. .x.cXt.j r.0X4X-X=X*XV.m XX",
"(./.A.C.OXoX'.5X2X .+ $ $ + . o O ^ u d w / j.dXW [ F H o.:.E _ _ U Q + t jXJXz.P Q { { $.$.&.@.G :.l.cXNXY.k r.yXrX-XoX/./. X~.",
"'.*XG.A.OX%X_.3XAXp = A # # = X . . o t 9 9 8 ! W ) ' [ [ %.*.=.<.;.X.8 @ 7 / _ Q Q } } G ) [ { %.:.i.xXcXAXp.z eX-X+XC./.*XoX~.",
"[.%X%XI.U.I.G.7XMX8 - $ $ $ # X X $ U g.dX^ ! Q _ &.-.@.[ G ( _ _ 0 q.GXh.7 q P U r Y H ) $...o.{ ~ l.9XY.SXp.z G.[.oXL./.=X+XC.",
"/.%X%XI.U.%X[.6XvX2 q : $ # + + + T ..X...! ;.R ` W @.E E Y [ Y Y o. .vXR.9X .3 h k.o.W ) $.z.kX] p m.0X2XSXp.l eX*X=X@X+X%XoXA.",
"/.=X%X&X&X-X-X6XAXa O q q + + o  .kX~ - T Y ` ` _ Q { Y %.#.,.;.#.] +.VX2X3X2XvXu.x.y Y ` W ..>.o.| 9XY.0XDXD.z [.*XOX XoX/.+X+X",
" X@XOXoXOX=X/._.8X0Xs 2 & 3 a Q.mXM.8 r E @.` J ;.z.z.] #.@.*.@.&.G :.z.DX8X3XY.ZXv.w P _ Q ] ] t 7.vX0XT.SXf.J.Z.oX Xb C.%X&X%X",
"m m x C. X#X~.^.}.3XSXCXxXFXDXb.vX9.2 ! E F ' ) ;.lXmX1.) ) ) &.J -.) :.x.FXyX5XT.R.HXn.0.q r y p 8.qXD.3XDXf.f.B.oXOXx C.&X%XS.",
"m c B  X Xx c m /._.3X7X7X4X{.].qXj e r E L L J U ..>.} &.4.' ' ' ' ' #.o.w.BXyX_._.}.0XNX9X8.6 h vX6XH.5XZXf.f.B.~.@X.X@XA.oXA.",
"~.m ~. X~.x B XXXXoXG.G.G.[././.8Xl w.X.D G ) L D D Y 1 K ' K J ' [ 3.J Q X.w.vX}.^.'.;X5X3X2XwX2XuXT.G.5XZXd.d.^.oX$X.X+XA.A.A.",
"m ~.oX%X%X~.m  XOX=XU.I.G.I.oXoX_.B.j ^ ! <.F J ( E W W K &.G @.&.&.4.` %.<.:.O.FXeX/.`.4X5X].F.tX3X`.rX4XZXp.f._.+X@X$X XA.A.A.",
"~. X%X-X-XL.oX XP.&XrXU.L.L..XOX;XZX6 5 0.aXQ { E E ) &.@.&.[ -.&.3.3.3.[ :.2.+.b.4XG.%X[.-X-X-X[.F.-X&X].ZXp.f.].%X XOXC.oXA.L.",
"OXoXI.%XI.A.oXOXoX&X>XU.I.P. XXXrXD.T.5 ^ JXX.T ] G [ @.E #.W @.E *.$.#.} z.+.+.9.CX{.|.{.A.>X,X<X*X%XC.[.DXp.2X4X*X X.X X=X%X+X",
".X.XoX&X%XA.oXoXP.L.&X>X%X%XoX+XI.H.0Xa 2 dXlXhX} @.) $.#.,.#.[ G -.@.%.1.zXwXh 8.vX).^.*X*XiX&X%X=XOX%X[.ZXr.qX5X-X X X X%X%X+X",
"n V oX&X-X/.~. X~.C.A.%X&X%X(.+XoX5X9X0.. R { { [ [ ) ) { 5.6.@.G @.&.*.} zXFX!.h.M.7X(.m m &XL.c  X.X1X5XMXp.AX7X-XoXK. X X+X+X",
"V K.B L.L.C.oXXXoXC.A./.%X/.~.(.<X3Xm.8 = U Q E G @.) @.Q 5.2.[ [ H 3.-.o.hX!.Q.z.l.}.M N #X<XrX/. Xb =X5XCXa.MX3X`.=XL.oXoX=X:X",
"~.~.+X/.A.C.oX&X<X+X<X*X/.c ~.M (.FXe - , W R $.) W 2.] E $.[ [ @.F *.*.[ -.2.2.z.u.).~.c ~.'.B.^.XX~.A.T.CXr.uXeX*X@XoX/./.L.L.",
"(.C.~.C.P.P.L.L.C.oX<X=X(.c +X(.).vX; , , _ *.W %.o.kXO.%.$.@.@.J J %.%.[ -.' 6.aXu.}.L.m m _.M c XX XZ.4XCXp.uXeX*X+XoX/.A.S.P.",
" X XC.L.U.U.U.L.L.C.XXXX+XV.^.^.0Xl.$ ` F K ` F 2.Q.UXkX:.) 3.4.&.J ( @.-.&.' 5.sXl.T.$XC V N V m m C.`.3XSXr.2X;X*X=X+X/.G.P.P.",
"m  X XOXOXP.U.OX+XC.oXV.;X[.T.qXR.! I 4.4.K ) #.y !.wXQ.;.*.` 3.' J W -.&.-.&.6.sXM.-X$XC C V V m ~.oX%X7XSXr.Y.4X%X+X%X*X%XoXP.",
"B B V V V .X X X/.'.yX0XNXHXHXbX^ = R F ) J ) _ } !. .z.z.{ =.J K ) { ;.[ =.3.=.g.Q.-XK. XC B B m ~.oX;X6XSXr.s.4X`.oX/.`.%XOX@X",
" XB x B C #XoX`.].0XcXw.t 9 q q - 1 U E ) ) ) W [ } 0 ..1.%.@.@.@.D { z.:.%.-.%.k.9XeXP.P.oX X~.m ~.oX-XrXLXt.s.T.%X`.%X'.*X@X$X",
"oX~.~. XXX*X{.7XLXj.! $ = ; $ + 1 } k.k.:.} E _ _ ` R ` =.G @.@.%.D O.JXhX2.%.2.l.vX8X*X`.-X~.XX~./.oX`.7XDXs.W.5X%X%X/.`./.+X#X",
"V.C.~.~.(.^.2X9Xn.: $ < , < < 1 h 1.JXQ.1.{ R _ ` K K 4.[ @.' -.E Y +.kXaXo.[ 2.i.wX3X[.eXrX(.<X(.~./.`.T.LXs.Y.T.I.G.V.V.V. XV ",
":XL.oXoXc B.qXNXt P S S D W H H R Q O.1.o.Q _ ( ) F J ) [ -.@.&.F W ] ] :.%.,.;.l.FXY.T.rXH.-X@X=XV.C.G.rXSXt.T.T.I.A.S.Z.(.XX X",
"I.L.oX.XC.'.tXCX0.9 0 W F %.:.W R P U Y ,.E W _ _ D _ #.2.W ( =.W D T T T [ ,.1. .c.AXuXSXH.I.L.*XA.oXG.5XDXz 6XH.I.I.A.^./.XXV ",
"U.&XOXP.L.~.'.8XMXv.^ T ! R _ U ` I R #.R ) ( %.; Y Q g.!...;.! . . o   & , R <.0.a NXgXBXY.T.G.%X/.oXC.F.ZXk tXU.>X=X+X^./. Xx ",
"P.$XP.b K. XC./.'.).2XAXjX^ ! / ! U ; = ` _ _ ! / JXGXkXn. .X.X.~ s 7.h e & 0 0 7 4 w g s g yXrXG./.L.L.-XZXD.ZX-X&X=X-X`.~.B x ",
"K.&XOXP.P.>XL.oX|.|.}.}.D.wXAXx.i p e * & ; ! t t ^ GXfXe.KXHX9XD.D.H.6XNXn.^ 9 w 9 w w a CX5XB.:XoXL.oX'.eX).5XL.oXoXoX%X(.OX#X",
"A.+X%XS.L.U.&XoXV.c ~.<X(.^.tXeX).2XwXv.p e e d 9 5 w w e.MX0XD.(.C.A.;X6X0XKXvXc.c.t.bXFX).5X`.oXC.oX=X1X;XtX<X+X XP.oX%X*X+X.X",
"|.(././.C.~.oX XXX=Xc v A.%XA.:X:X'.rXE.AXa.i 5 d i e.E.7XF.*X~.x  X X~.'.|.{.}.].tX5X).}.B.1XC.L.L.K..XoX^.'.^.&X.XK.L.*X*XoXK.",
"(.(.(.(.~. X@XXX X XL.c S.OXOX@XoXS.I.yXE.T.0X6X}.2X2X8X|.M B V B x ,X~.m |.|.(.=X`.Z.*X^.V.L.,XL.oX.XK.oX'.^.*XOXb x oX:X=XOX X"
};
